<svg width="192" height="123" viewBox="0 0 192 123" fill="none" xmlns="http://www.w3.org/2000/svg">
<path d="M10.4492 109H3.55469V80.3867H10.4492V109ZM16.9336 88.2969H22.6562L23.4766 91.6953C23.9193 91.3047 24.4141 90.888 24.9609 90.4453C25.5208 90.0026 26.1198 89.5924 26.7578 89.2148C27.4089 88.8372 28.099 88.5247 28.8281 88.2773C29.5573 88.0299 30.319 87.9062 31.1133 87.9062C32.0768 87.9062 32.9492 88.082 33.7305 88.4336C34.5247 88.7721 35.2018 89.2539 35.7617 89.8789C36.3346 90.5039 36.7773 91.2591 37.0898 92.1445C37.4023 93.0169 37.5586 93.987 37.5586 95.0547V109H30.7617V96.0312C30.7617 95.4453 30.6771 94.931 30.5078 94.4883C30.3516 94.0456 30.1302 93.6745 29.8438 93.375C29.5703 93.0755 29.2448 92.8542 28.8672 92.7109C28.4896 92.5547 28.0859 92.4766 27.6562 92.4766C26.9401 92.4766 26.2565 92.6523 25.6055 93.0039C24.9674 93.3555 24.3359 93.7982 23.7109 94.332V109H16.9336V88.2969ZM40.9961 88.2969H48.3008L51.3672 100.172L52.168 104.156H52.5586L53.3008 100.172L56.4062 88.2969H62.1875L55.4688 109H47.7148L40.9961 88.2969ZM83.3789 106.832C82.6758 107.327 81.9531 107.743 81.2109 108.082C80.4818 108.408 79.7526 108.668 79.0234 108.863C78.2943 109.059 77.5781 109.195 76.875 109.273C76.1719 109.352 75.4948 109.391 74.8438 109.391C73.1771 109.391 71.6732 109.169 70.332 108.727C68.9909 108.271 67.8516 107.62 66.9141 106.773C65.9766 105.927 65.2539 104.885 64.7461 103.648C64.2513 102.411 64.0039 100.999 64.0039 99.4102C64.0039 97.6133 64.3164 96.0052 64.9414 94.5859C65.5664 93.1536 66.3997 91.9492 67.4414 90.9727C68.4961 89.9831 69.7135 89.2279 71.0938 88.707C72.474 88.1732 73.9193 87.9062 75.4297 87.9062C76.7318 87.9062 77.9297 88.1081 79.0234 88.5117C80.1302 88.9154 81.0807 89.5143 81.875 90.3086C82.6823 91.0898 83.3073 92.0664 83.75 93.2383C84.1927 94.3971 84.4141 95.7383 84.4141 97.2617C84.4141 97.7565 84.388 98.2122 84.3359 98.6289C84.2969 99.0456 84.2448 99.3906 84.1797 99.6641H70.9766C70.9766 100.576 71.1328 101.357 71.4453 102.008C71.7708 102.659 72.2266 103.199 72.8125 103.629C73.4115 104.046 74.1276 104.352 74.9609 104.547C75.7943 104.742 76.7253 104.84 77.7539 104.84C78.1185 104.84 78.5221 104.827 78.9648 104.801C79.4206 104.775 79.8893 104.729 80.3711 104.664C80.8659 104.586 81.3672 104.495 81.875 104.391C82.3828 104.273 82.8841 104.124 83.3789 103.941V106.832ZM78.2617 97.2812C78.2617 96.3828 78.1706 95.6081 77.9883 94.957C77.819 94.306 77.5781 93.7721 77.2656 93.3555C76.9531 92.9258 76.582 92.6133 76.1523 92.418C75.7227 92.2096 75.2539 92.1055 74.7461 92.1055C74.1862 92.1055 73.6719 92.2227 73.2031 92.457C72.7474 92.6914 72.3503 93.0299 72.0117 93.4727C71.6862 93.9154 71.4323 94.4557 71.25 95.0938C71.0677 95.7318 70.9766 96.4609 70.9766 97.2812H78.2617ZM88.7109 103.531L89.0625 103.336C90.1432 103.922 91.263 104.378 92.4219 104.703C93.5807 105.029 94.6419 105.191 95.6055 105.191C96.1393 105.191 96.6016 105.139 96.9922 105.035C97.3828 104.918 97.7018 104.768 97.9492 104.586C98.2096 104.404 98.3984 104.195 98.5156 103.961C98.6458 103.714 98.7109 103.46 98.7109 103.199C98.7109 102.77 98.5612 102.418 98.2617 102.145C97.9753 101.871 97.5846 101.637 97.0898 101.441C96.6081 101.246 96.0547 101.077 95.4297 100.934C94.8177 100.777 94.1862 100.608 93.5352 100.426C92.8971 100.23 92.2656 100.003 91.6406 99.7422C91.0286 99.4818 90.4753 99.1432 89.9805 98.7266C89.4987 98.3099 89.1081 97.7956 88.8086 97.1836C88.5221 96.5586 88.3789 95.8034 88.3789 94.918C88.3789 93.8893 88.5872 92.9453 89.0039 92.0859C89.4336 91.2266 90.0586 90.4909 90.8789 89.8789C91.7122 89.2539 92.7344 88.7721 93.9453 88.4336C95.1562 88.082 96.556 87.9062 98.1445 87.9062C98.5482 87.9062 99.0039 87.9193 99.5117 87.9453C100.02 87.9714 100.534 88.0104 101.055 88.0625C101.589 88.1146 102.103 88.1862 102.598 88.2773C103.105 88.3685 103.561 88.4727 103.965 88.5898L102.969 92.9844L102.598 93.1992C101.66 92.8086 100.729 92.5286 99.8047 92.3594C98.8932 92.1901 98.112 92.1055 97.4609 92.1055C96.9271 92.1055 96.4714 92.1576 96.0938 92.2617C95.7161 92.3659 95.4102 92.5091 95.1758 92.6914C94.9414 92.8607 94.7656 93.0625 94.6484 93.2969C94.5443 93.5182 94.4922 93.7591 94.4922 94.0195C94.4922 94.4753 94.6419 94.8464 94.9414 95.1328C95.2409 95.4062 95.6315 95.6406 96.1133 95.8359C96.5951 96.0182 97.1484 96.1875 97.7734 96.3438C98.3984 96.487 99.0299 96.6497 99.668 96.832C100.319 97.0013 100.957 97.2161 101.582 97.4766C102.207 97.724 102.76 98.056 103.242 98.4727C103.724 98.8893 104.115 99.4036 104.414 100.016C104.714 100.615 104.863 101.357 104.863 102.242C104.863 103.193 104.668 104.104 104.277 104.977C103.9 105.836 103.32 106.591 102.539 107.242C101.758 107.893 100.768 108.414 99.5703 108.805C98.3854 109.195 96.9857 109.391 95.3711 109.391C94.7591 109.391 94.1211 109.358 93.457 109.293C92.806 109.241 92.1484 109.156 91.4844 109.039C90.8333 108.922 90.1823 108.772 89.5312 108.59C88.8932 108.408 88.2943 108.193 87.7344 107.945L88.7109 103.531ZM111.016 92.4961H106.855L107.285 89.625C107.975 89.3776 108.574 89.1432 109.082 88.9219C109.59 88.7005 110.033 88.4661 110.41 88.2188C110.801 87.9583 111.139 87.6784 111.426 87.3789C111.725 87.0794 112.005 86.7279 112.266 86.3242C112.539 85.9076 112.812 85.4388 113.086 84.918C113.359 84.3971 113.672 83.7852 114.023 83.082H117.383V88.2969H124.707L123.75 92.4961H117.793V101.344C117.793 102.633 118.125 103.538 118.789 104.059C119.466 104.579 120.43 104.84 121.68 104.84C122.174 104.84 122.676 104.801 123.184 104.723C123.704 104.632 124.206 104.488 124.688 104.293V107.203C123.672 107.945 122.552 108.499 121.328 108.863C120.117 109.215 118.906 109.391 117.695 109.391C116.497 109.391 115.475 109.228 114.629 108.902C113.783 108.564 113.092 108.082 112.559 107.457C112.025 106.832 111.634 106.077 111.387 105.191C111.139 104.306 111.016 103.31 111.016 102.203V92.4961ZM131.016 92.4961H126.855L127.285 89.625C127.975 89.3776 128.574 89.1432 129.082 88.9219C129.59 88.7005 130.033 88.4661 130.41 88.2188C130.801 87.9583 131.139 87.6784 131.426 87.3789C131.725 87.0794 132.005 86.7279 132.266 86.3242C132.539 85.9076 132.812 85.4388 133.086 84.918C133.359 84.3971 133.672 83.7852 134.023 83.082H137.383V88.2969H144.707L143.75 92.4961H137.793V101.344C137.793 102.633 138.125 103.538 138.789 104.059C139.466 104.579 140.43 104.84 141.68 104.84C142.174 104.84 142.676 104.801 143.184 104.723C143.704 104.632 144.206 104.488 144.688 104.293V107.203C143.672 107.945 142.552 108.499 141.328 108.863C140.117 109.215 138.906 109.391 137.695 109.391C136.497 109.391 135.475 109.228 134.629 108.902C133.783 108.564 133.092 108.082 132.559 107.457C132.025 106.832 131.634 106.077 131.387 105.191C131.139 104.306 131.016 103.31 131.016 102.203V92.4961ZM158.281 109.391C156.497 109.391 154.935 109.117 153.594 108.57C152.266 108.01 151.159 107.268 150.273 106.344C149.388 105.406 148.724 104.326 148.281 103.102C147.852 101.865 147.637 100.569 147.637 99.2148C147.637 97.6393 147.923 96.1615 148.496 94.7812C149.069 93.401 149.876 92.2031 150.918 91.1875C151.973 90.1719 153.242 89.3711 154.727 88.7852C156.211 88.1992 157.865 87.9062 159.688 87.9062C161.458 87.9062 163.008 88.1797 164.336 88.7266C165.677 89.2734 166.79 90.0091 167.676 90.9336C168.561 91.8581 169.225 92.9453 169.668 94.1953C170.124 95.4323 170.352 96.7409 170.352 98.1211C170.352 99.7357 170.059 101.233 169.473 102.613C168.887 103.98 168.06 105.172 166.992 106.188C165.938 107.19 164.668 107.978 163.184 108.551C161.712 109.111 160.078 109.391 158.281 109.391ZM159.121 105.191C159.733 105.191 160.293 105.061 160.801 104.801C161.322 104.54 161.771 104.15 162.148 103.629C162.526 103.095 162.819 102.438 163.027 101.656C163.249 100.875 163.359 99.9635 163.359 98.9219C163.359 97.9453 163.255 97.0404 163.047 96.207C162.852 95.3737 162.559 94.6576 162.168 94.0586C161.79 93.4466 161.322 92.9714 160.762 92.6328C160.215 92.2812 159.583 92.1055 158.867 92.1055C158.242 92.1055 157.669 92.2487 157.148 92.5352C156.628 92.8086 156.178 93.2122 155.801 93.7461C155.436 94.2799 155.15 94.9375 154.941 95.7188C154.733 96.5 154.629 97.3984 154.629 98.4141C154.629 99.4427 154.733 100.374 154.941 101.207C155.15 102.04 155.449 102.757 155.84 103.355C156.23 103.941 156.699 104.397 157.246 104.723C157.806 105.035 158.431 105.191 159.121 105.191ZM174.98 88.2969H180.703L181.523 94.3711C181.732 93.9935 181.94 93.6094 182.148 93.2188C182.37 92.8281 182.572 92.4701 182.754 92.1445C182.949 91.806 183.118 91.513 183.262 91.2656C183.418 91.0182 183.529 90.8359 183.594 90.7188C183.841 90.3151 184.121 89.944 184.434 89.6055C184.746 89.2539 185.091 88.9544 185.469 88.707C185.846 88.4596 186.27 88.2643 186.738 88.1211C187.207 87.9779 187.728 87.9062 188.301 87.9062C188.678 87.9062 189.089 87.9583 189.531 88.0625C189.987 88.1536 190.404 88.3099 190.781 88.5312L190.039 94.625C189.922 94.599 189.766 94.5794 189.57 94.5664C189.375 94.5404 189.167 94.5208 188.945 94.5078C188.737 94.4948 188.529 94.4883 188.32 94.4883C188.125 94.4753 187.949 94.4688 187.793 94.4688C186.478 94.4688 185.299 94.7227 184.258 95.2305C183.229 95.7383 182.396 96.3893 181.758 97.1836V109H174.98V88.2969Z" fill="#2573EF"/>
<path d="M83.052 54.4444V23.0363L73.8936 29.4196V52.5962C76.6694 53.3894 79.7316 54.0231 83.052 54.4444Z" fill="#2573EF"/>
<path d="M92.6628 55.04C95.0036 55.04 97.3127 54.9337 99.5793 54.725V11.5179L90.4209 17.9013V55.0059C91.1599 55.0248 91.906 55.04 92.6628 55.04Z" fill="#2573EF"/>
<path d="M115.495 51.2223C115.707 51.1426 115.905 51.0553 116.111 50.9718V0L106.952 6.37954V53.6474C110.014 53.0288 112.889 52.2166 115.495 51.2223Z" fill="#2573EF"/>
<path d="M117.656 24.8499V25.4381C125.424 28.7436 130.325 33.5672 130.325 38.9448C130.325 44.6678 124.77 49.7684 116.11 53.0777C113.349 54.1327 110.269 55.0094 106.952 55.6622C102.546 56.5312 97.7228 57.0132 92.6627 57.0132C73.2921 57.0132 57.3444 49.9961 55.244 40.9752C55.0884 41.7835 55 42.6071 55 43.442C55 55.9013 72.9066 66 95 66C117.093 66 135 55.9013 135 43.442C135 35.7228 128.129 28.9182 117.656 24.8499Z" fill="#2573EF"/>
<path d="M78.4688 27.0133V53.0286C79.7594 53.2867 81.0854 53.5144 82.4362 53.7004V24.2467L78.4688 27.0133Z" fill="url(#paint0_linear_64_5)"/>
<path d="M95 15.4954V54.3343C96.3296 54.2926 97.6556 54.2318 98.9675 54.1218V12.7288L95 15.4954Z" fill="url(#paint1_linear_64_5)"/>
<path d="M111.531 3.97352V51.8561C112.843 51.4766 114.098 51.0592 115.29 50.6C115.361 50.5734 115.432 50.5468 115.499 50.5165V1.21069L111.531 3.97352Z" fill="url(#paint2_linear_64_5)"/>
<path d="M127.348 30.9868C128.303 31.9925 129.066 33.04 129.646 34.114C131.344 36.5732 132.256 39.207 132.256 41.9053C132.256 53.9812 114.586 63.8067 92.8712 63.8067C80.8415 63.8067 70.0565 60.7896 62.8252 56.0458C69.9645 61.6625 81.7219 65.3399 95.0034 65.3399C116.722 65.3399 134.392 55.5145 134.392 43.4385C134.388 38.9375 131.87 34.6073 127.348 30.9868Z" fill="url(#paint3_linear_64_5)"/>
<defs>
<linearGradient id="paint0_linear_64_5" x1="80.4545" y1="35.7712" x2="80.4545" y2="51.3231" gradientUnits="userSpaceOnUse">
<stop stop-color="white" stop-opacity="0"/>
<stop offset="1" stop-color="white" stop-opacity="0.4"/>
</linearGradient>
<linearGradient id="paint1_linear_64_5" x1="96.9845" y1="30.4052" x2="96.9845" y2="47.1693" gradientUnits="userSpaceOnUse">
<stop stop-color="white" stop-opacity="0"/>
<stop offset="1" stop-color="white" stop-opacity="0.4"/>
</linearGradient>
<linearGradient id="paint2_linear_64_5" x1="113.515" y1="19.4542" x2="113.515" y2="41.8152" gradientUnits="userSpaceOnUse">
<stop stop-color="white" stop-opacity="0"/>
<stop offset="1" stop-color="white" stop-opacity="0.4"/>
</linearGradient>
<linearGradient id="paint3_linear_64_5" x1="102.941" y1="53.1748" x2="118.296" y2="48.4059" gradientUnits="userSpaceOnUse">
<stop stop-color="white" stop-opacity="0"/>
<stop offset="1" stop-color="white" stop-opacity="0.4"/>
</linearGradient>
</defs>
</svg>
