<svg width="300" height="299" viewBox="0 0 300 299" fill="none" xmlns="http://www.w3.org/2000/svg">
<path d="M165.792 235.078C232.034 235.078 285.733 182.536 285.733 117.722C285.733 52.9082 232.034 0.366211 165.792 0.366211C99.5502 0.366211 45.8506 52.9082 45.8506 117.722C45.8506 182.536 99.5502 235.078 165.792 235.078Z" fill="#131319"/>
<path d="M165.794 235.444C133.659 235.444 103.45 223.199 80.7255 200.967C57.9997 178.731 45.4844 149.167 45.4844 117.722C45.4844 86.2763 57.9997 56.7125 80.7239 34.4767C103.448 12.2443 133.659 0 165.794 0C197.929 0 228.139 12.2443 250.863 34.4767C273.587 56.7109 286.102 86.2747 286.102 117.722C286.102 149.167 273.587 178.731 250.863 200.965C228.139 223.199 197.927 235.444 165.794 235.444ZM165.794 0.730482C99.8603 0.730482 46.2178 53.2125 46.2178 117.722C46.2178 182.231 99.8587 234.712 165.794 234.712C231.728 234.712 285.369 182.23 285.369 117.722C285.369 53.2142 231.728 0.730482 165.794 0.730482Z" fill="#2573EF"/>
<path d="M158.403 39.1163C158.226 39.1163 158.046 39.0997 157.865 39.0649C156.131 38.7353 154.347 36.8636 153.091 34.0543C152.137 31.9225 152.213 27.9471 152.286 24.1025C152.346 20.9884 152.401 18.0466 151.872 16.6966C150.902 14.2319 149.887 14.2518 147.66 14.3015C147.338 14.3081 146.995 14.3164 146.628 14.3164C144.602 14.3164 143.111 13.2032 142.534 12.1001C142.234 11.527 142.2 11.0002 142.443 10.654C146.42 4.94765 159.375 6.39536 166.335 7.17388C174.446 8.07994 178.615 11.5137 178.071 16.8391C177.525 22.1777 166.29 28.3197 165.011 29.0022C163.69 29.7062 163.113 31.7154 162.553 33.6567C162.057 35.3827 161.543 37.165 160.481 38.2053C159.867 38.8066 159.156 39.1163 158.403 39.1163ZM148.445 13.5594C150.267 13.5594 151.54 13.8526 152.554 16.43C153.138 17.9141 153.08 20.9271 153.02 24.1158C152.952 27.7052 152.874 31.7717 153.762 33.7561C154.902 36.307 156.528 38.0661 158.003 38.3461C158.718 38.4819 159.38 38.2583 159.968 37.6835C160.892 36.7791 161.378 35.0895 161.848 33.4563C162.449 31.3676 163.071 29.2076 164.664 28.3578C169.178 25.9494 176.929 20.7963 177.34 16.7646C177.845 11.8334 174.01 8.76735 166.254 7.90104C159.445 7.13909 146.772 5.72285 143.045 11.0714C142.995 11.141 142.99 11.3911 143.185 11.7622C143.661 12.6699 144.909 13.5859 146.629 13.5859C146.99 13.5859 147.328 13.5776 147.645 13.571C147.922 13.566 148.189 13.5594 148.445 13.5594Z" fill="#2573EF"/>
<path d="M135.128 224.354C133.819 224.354 132.251 223.644 131.154 222.683C128.625 220.47 123.939 210.989 121.823 205.435C120.151 201.042 119.274 187.373 118.695 178.327C118.521 175.612 118.372 173.267 118.242 171.912C117.797 167.239 115.828 166.512 110.564 164.569C109.719 164.258 108.764 163.905 107.733 163.504C100.198 160.572 99.509 157.793 99.6583 151.684C99.6716 151.132 99.6202 150.412 99.5604 149.578C99.3016 145.979 98.9116 140.539 102.77 137.164C106.193 134.169 107.999 124.454 107.801 120.372C107.733 118.948 108.564 117.634 109.973 116.947C112.71 115.61 117.335 114.469 123.823 116.616C126.529 117.512 127.764 118.973 128.959 120.384C129.954 121.562 130.985 122.779 132.916 123.73C134.279 124.401 135.958 124.812 137.583 125.208C140.993 126.041 144.519 126.904 143.698 130.319C143.404 131.54 143.641 132.781 144.4 134.008C146.262 137.016 150.951 139.58 157.269 141.043C162.595 142.277 166.535 145.696 166.848 149.358C167.049 151.714 165.657 153.698 163.028 154.801C156.402 157.584 156.51 159.605 157.272 162.934C157.561 164.193 158.088 165.508 158.599 166.782C159.555 169.161 160.38 171.215 159.351 172.295C157.889 173.83 153.107 175.27 151.021 175.725C149.043 176.159 146.673 178.402 146.149 182.306C145.594 186.424 138.696 197.028 134.657 201.507C131.05 205.506 132.563 208.931 135.578 215.757C135.825 216.317 136.084 216.9 136.348 217.508C137.8 220.833 137.888 222.991 136.61 223.924C136.2 224.223 135.688 224.354 135.128 224.354ZM116.891 116.152C114.047 116.152 111.85 116.844 110.294 117.605C109.152 118.161 108.477 119.21 108.531 120.338C108.739 124.653 106.893 134.527 103.251 137.714C99.6666 140.851 100.042 146.072 100.291 149.525C100.352 150.379 100.405 151.114 100.39 151.7C100.246 157.569 100.865 160.047 107.999 162.822C109.022 163.221 109.977 163.572 110.818 163.882C116.082 165.823 118.483 166.711 118.972 171.841C119.102 173.207 119.246 175.445 119.427 178.278C120.005 187.279 120.876 200.883 122.509 205.171C124.598 210.657 129.193 219.991 131.637 222.13C132.965 223.291 135.188 224.053 136.176 223.332C137.112 222.648 136.934 220.684 135.674 217.8C135.409 217.194 135.153 216.612 134.906 216.052C131.863 209.163 130.185 205.368 134.11 201.017C138.091 196.604 144.883 186.205 145.42 182.208C145.994 177.933 148.568 175.513 150.863 175.011C153.354 174.466 157.605 173.067 158.82 171.791C159.525 171.051 158.745 169.109 157.919 167.054C157.396 165.755 156.857 164.412 156.557 163.097C155.654 159.144 155.969 156.971 162.745 154.125C165.096 153.138 166.294 151.467 166.118 149.418C165.884 146.678 162.962 143.11 157.103 141.752C150.598 140.245 145.74 137.561 143.777 134.389C142.911 132.989 142.644 131.562 142.986 130.145C143.606 127.568 141.27 126.859 137.409 125.915C135.746 125.509 134.027 125.088 132.593 124.383C130.525 123.364 129.445 122.087 128.4 120.853C127.218 119.456 126.103 118.138 123.594 117.306C121.058 116.472 118.825 116.152 116.891 116.152Z" fill="#2573EF"/>
<path d="M217.386 189.182C216.636 189.182 215.927 188.804 215.297 188.06C212.114 184.302 211.372 170.408 216.246 163.356C221.87 155.223 218.129 148.876 216.261 146.526C214.814 144.707 214.583 136.748 214.643 130.39L214.646 130.033C214.646 129.955 214.658 129.832 214.674 129.671C214.774 128.701 215.005 126.425 213.169 124.701C210.833 122.506 206.054 121.981 198.961 123.137C192.782 124.144 188.248 123.226 185.485 120.407C182.49 117.353 181.634 112.233 182.943 105.193C183.577 101.781 183.003 99.0327 182.497 96.6077C182.198 95.1749 181.914 93.8216 181.914 92.4964C181.914 88.4084 187.596 85.0243 192.362 82.9041C195.228 81.6303 197.255 80.1147 199.217 78.6504C201.037 77.2905 202.756 76.0068 204.905 75.1421C208.02 73.8882 209.304 76.0183 210.546 78.0806C211.223 79.2053 211.923 80.3698 212.947 81.2046C214.107 82.1504 214.86 81.8108 216.002 81.294C217.563 80.5884 219.507 79.7072 223.136 81.9268C227.528 84.6135 232.41 83.4259 234.325 81.7777C234.798 81.3702 235.532 80.552 235.138 79.6293C234.624 78.4202 233.519 78.0176 232.239 77.5505C230.56 76.9377 228.657 76.2436 227.469 73.6314C226.161 70.7509 228.602 68.8609 230.754 67.1929C232.251 66.0351 233.798 64.8358 234.093 63.3981C234.378 62.0001 233.716 60.1879 232.276 58.4272C230.714 56.5173 228.57 55.0779 227.291 55.0779C226.584 55.0779 226.367 56.2357 226.093 58.1406C225.723 60.7097 225.217 64.2296 222.039 65.3179C219.238 66.2769 216.52 64.8276 213.893 63.4262C211.538 62.169 209.104 60.8704 206.644 61.3292C203.883 61.8427 201.419 65.0015 198.809 68.3458C196.535 71.2578 194.185 74.2692 191.411 75.803C189.37 76.9327 187.566 76.6759 186.466 75.1023C184.763 72.6674 185.22 67.5027 188.182 64.9468C191.902 61.7334 191.743 57.3704 191.657 55.0265C191.645 54.7168 191.635 54.4435 191.635 54.2132C191.635 53.5772 191.794 51.9555 193.261 50.6221C194.954 49.0849 197.723 48.487 201.499 48.8448C204.53 49.1313 206.834 48.694 208.156 47.5776C209.195 46.7014 209.278 45.7224 209.281 45.681C210.32 38.56 209.346 36.203 208.347 35.4758C207.59 34.9242 206.638 35.1975 205.972 35.5238C205.715 35.6646 204.957 36.9285 204.286 38.0432C202.315 41.3263 199.623 45.8185 197.148 45.3033C195.455 44.9472 194.322 42.3102 193.683 37.2415C192.768 29.9864 193.615 25.3517 196.2 23.4684C198.515 21.7805 201.321 22.9682 201.598 23.0924C206.744 24.8614 210.732 24.7637 213.455 22.8009C217.28 20.0429 217.626 14.3432 217.597 12.0192C217.595 11.8933 217.66 11.7757 217.766 11.7061C217.872 11.6382 218.006 11.6299 218.121 11.683C233.807 19.1087 247.946 30.0378 259.007 43.2875C270.187 56.6796 278.333 72.5862 282.566 89.2913C282.58 89.3426 282.581 89.3973 282.571 89.4503C281.917 92.8376 280.54 97.5468 277.693 100.744C275.316 103.412 275.683 106.001 276.008 108.285C276.249 109.978 276.476 111.575 275.388 112.759C275.062 113.114 274.732 113.596 274.414 114.061C273.63 115.206 272.822 116.39 271.754 116.172C270.524 115.923 268.918 113.934 266.321 101.075C263.003 84.6516 255.494 83.6727 252.423 84.0122C252.22 84.0354 252.166 84.1878 252.152 84.2342C252.137 84.2872 252.119 84.423 252.26 84.5274C254.252 85.9933 257.663 88.9765 258.14 92.4782C258.367 94.1528 257.896 95.7513 256.736 97.2255C252.337 102.821 251.162 107.734 253.425 111.057C255.662 114.338 255.984 116.785 254.753 121.121C254.303 122.706 252.946 124.374 251.507 126.14C248.759 129.514 245.646 133.337 248.07 137.607C252.111 144.725 242.508 166.676 235.951 171.61C232.901 173.906 230.134 177.201 227.457 180.386C224.367 184.065 221.448 187.539 218.494 188.915C218.118 189.094 217.748 189.182 217.386 189.182ZM205.42 121.815C209.238 121.815 212.003 122.602 213.67 124.169C215.77 126.142 215.504 128.76 215.403 129.746C215.39 129.874 215.38 129.97 215.38 130.033L215.376 130.397C215.293 139.088 215.824 144.8 216.835 146.07C218.805 148.548 222.751 155.235 216.85 163.771C212.132 170.593 212.803 183.981 215.856 187.587C216.571 188.431 217.331 188.65 218.182 188.254C220.988 186.947 223.856 183.533 226.893 179.917C229.594 176.701 232.389 173.374 235.507 171.027C241.743 166.335 251.238 144.677 247.428 137.968C244.758 133.264 248.039 129.234 250.934 125.68C252.323 123.975 253.634 122.363 254.044 120.922C255.348 116.331 254.686 114.215 252.815 111.469C251.391 109.379 249.93 104.689 256.153 96.775C257.185 95.4614 257.607 94.0501 257.408 92.5776C256.968 89.3409 253.717 86.5134 251.819 85.1154C251.474 84.862 251.328 84.4512 251.437 84.0437C251.548 83.6313 251.9 83.3331 252.335 83.2851C255.607 82.924 263.592 83.9162 267.031 100.931C268.924 110.298 270.559 115.186 271.891 115.456C272.489 115.575 273.182 114.553 273.801 113.651C274.135 113.164 274.48 112.66 274.842 112.267C275.695 111.34 275.51 110.038 275.276 108.391C274.946 106.071 274.536 103.182 277.14 100.26C279.853 97.2122 281.187 92.6853 281.831 89.3939C273.295 55.81 250.168 27.8513 218.325 12.594C218.284 15.3006 217.686 20.6492 213.88 23.3939C210.949 25.5058 206.729 25.635 201.338 23.7781C201.326 23.7748 201.314 23.7699 201.303 23.7649C201.276 23.7533 198.656 22.5756 196.622 24.063C195.007 25.2441 193.311 28.4724 194.405 37.1504C195.135 42.9496 196.378 44.3956 197.294 44.5878C199.247 44.9903 202.006 40.4086 203.654 37.6672C204.703 35.9214 205.226 35.0716 205.645 34.8662C206.844 34.2799 207.954 34.2865 208.775 34.8844C210.464 36.1152 210.879 39.7725 210.005 45.7572C210.005 45.7787 209.915 47.0326 208.647 48.1159C207.152 49.3947 204.721 49.8833 201.424 49.5719C197.916 49.2406 195.261 49.7889 193.749 51.1621C192.498 52.2984 192.362 53.6749 192.362 54.2132C192.362 54.4368 192.372 54.7019 192.382 55C192.473 57.4664 192.641 62.0564 188.655 65.5001C186.01 67.7843 185.56 72.5382 187.06 74.6833C187.948 75.9504 189.327 76.1161 191.051 75.162C193.694 73.701 195.998 70.7493 198.226 67.8953C200.924 64.44 203.472 61.1752 206.507 60.6103C209.22 60.1068 211.77 61.4667 214.236 62.7819C216.84 64.1716 219.298 65.4852 221.8 64.6271C224.553 63.6846 225.004 60.554 225.366 58.0379C225.651 56.0585 225.897 54.3474 227.289 54.3474C228.793 54.3474 231.128 55.868 232.842 57.965C233.771 59.0997 235.261 61.3342 234.808 63.5455C234.46 65.25 232.804 66.532 231.202 67.7727C229.075 69.4192 227.065 70.9762 228.134 73.3316C229.194 75.6639 230.869 76.2751 232.488 76.8664C233.867 77.37 235.172 77.8454 235.81 79.3444C236.23 80.33 235.862 81.4183 234.801 82.3326C232.322 84.4661 227.011 85.1568 222.751 82.5513C219.454 80.5338 217.779 81.2924 216.302 81.9616C215.116 82.4983 213.994 83.0051 212.481 81.7728C211.357 80.8568 210.591 79.583 209.915 78.4583C208.637 76.3347 207.715 74.8009 205.177 75.8229C203.116 76.6528 201.436 77.9083 199.653 79.2384C197.752 80.658 195.598 82.2664 192.657 83.5733C186.2 86.4455 182.644 89.6143 182.644 92.4981C182.644 93.747 182.92 95.0639 183.212 96.4586C183.733 98.9498 184.322 101.772 183.661 105.327C182.399 112.12 183.189 117.021 186.006 119.897C188.593 122.536 192.913 123.382 198.842 122.415C201.301 122.015 203.495 121.815 205.42 121.815Z" fill="#2573EF"/>
<path d="M92.0145 120.296C91.3806 120.296 90.6754 120.096 89.9054 119.693C87.632 118.507 81.9518 112.393 76.7395 104.583C73.1486 99.2033 67.1962 89.0544 67.6691 81.5293C67.7322 80.5255 67.7886 79.5598 67.8434 78.6273C68.4789 67.7512 68.8623 61.1868 76.5719 49.2821C78.6977 46.0007 79.6983 41.3628 79.5456 35.499C79.5423 35.3947 79.5855 35.2936 79.6634 35.2208C84.8923 30.3857 90.6322 25.9133 96.7223 21.9263C96.8036 21.8733 96.9015 21.8551 96.9944 21.8733L97.2931 21.9329C101.614 22.7976 109.656 24.406 118.298 21.3416C124.08 19.291 127.461 17.8184 129.698 16.8444C132.69 15.5408 133.698 15.1019 135.627 15.3868C139.164 15.9085 142.122 18.481 141.834 20.7834C141.392 24.3066 137.393 26.0922 129.946 26.0922C125.419 26.0922 121.418 28.383 119.242 32.2193C117.925 34.5449 117.619 36.9567 118.467 38.3663C119.32 39.7858 120.029 40.4484 120.912 40.6571C122.443 41.0199 124.767 40.0443 129.481 37.0577C138.118 31.5899 142.126 36.3786 142.841 37.394C143.88 38.8665 142.622 41.482 141.291 44.2516C140.7 45.4823 140.088 46.7544 139.67 47.9404C138.935 50.0258 138.946 51.9755 138.956 53.5408C138.965 54.8278 138.97 55.8448 138.571 56.5505C137.99 57.5808 136.032 58.303 133.323 59.3035C131.862 59.8434 130.208 60.453 128.484 61.2183C123.261 63.534 119.667 65.3676 117.402 69.608C115.935 72.3544 113.244 73.9793 111.08 75.2846C109.653 76.1459 108.42 76.8913 108.026 77.6748C107.673 78.3788 107.58 79.6923 107.482 81.0821C107.288 83.8069 107.069 86.8945 104.941 88.0424C102.187 89.5282 96.8501 87.3914 94.7343 85.2811C93.7752 84.3253 92.4742 83.9096 91.2545 84.1746C90.2671 84.3883 89.4889 85.0194 89.1719 85.8625C88.1962 88.4531 88.8218 91.9515 91.0305 96.2565C94.127 102.296 95.6968 107.451 95.6968 111.577C95.6968 116.243 94.9318 118.974 93.3587 119.925C92.9604 120.175 92.509 120.296 92.0145 120.296ZM80.2841 35.6481C80.4168 41.5831 79.3747 46.3039 77.1876 49.6813C69.5825 61.4237 69.224 67.5491 68.5752 78.672C68.5204 79.6045 68.464 80.5719 68.4009 81.5773C67.5878 94.5471 86.0589 116.864 90.2456 119.047C91.374 119.635 92.295 119.723 92.9853 119.306C94.3012 118.509 94.97 115.912 94.97 111.582C94.97 107.572 93.4267 102.529 90.3833 96.5945C88.0767 92.0973 87.4395 88.4018 88.4899 85.6091C88.8948 84.5324 89.8722 83.729 91.1035 83.4624C92.5671 83.1443 94.1203 83.633 95.257 84.7643C97.391 86.8928 102.401 88.5873 104.598 87.3997C106.372 86.4422 106.574 83.5684 106.755 81.0307C106.863 79.5019 106.958 78.1817 107.376 77.3485C107.864 76.3745 109.181 75.5794 110.706 74.6585C112.792 73.3996 115.389 71.831 116.761 69.2619C119.315 64.4814 123.829 62.4821 128.193 60.5474C129.939 59.7739 131.605 59.1593 133.075 58.616C135.543 57.705 137.491 56.9861 137.939 56.1894C138.241 55.6527 138.236 54.7218 138.229 53.5424C138.219 51.9191 138.208 49.9 138.984 47.6953C139.416 46.4712 140.037 45.1808 140.636 43.9319C141.817 41.4754 143.038 38.9344 142.247 37.8114C141.598 36.8921 137.952 32.5605 129.878 37.6723C124.909 40.8178 122.52 41.7835 120.747 41.3661C119.387 41.0447 118.515 39.8587 117.843 38.739C116.863 37.1091 117.163 34.4074 118.608 31.8566C120.915 27.7867 125.155 25.3584 129.951 25.3584C136.968 25.3584 140.724 23.7881 141.112 20.6906C141.346 18.8288 138.578 16.5595 135.525 16.109C133.804 15.8539 132.921 16.2382 129.995 17.5136C127.749 18.4926 124.353 19.9717 118.547 22.0307C109.714 25.1613 101.543 23.5281 97.1521 22.6502L96.9994 22.6204C91.0371 26.5361 85.415 30.9174 80.2841 35.6481Z" fill="#2573EF"/>
<path d="M249.287 202.33C249.252 202.33 249.217 202.325 249.182 202.315C249.056 202.279 248.96 202.178 248.93 202.05C248.289 199.4 248.297 195.997 248.304 193.263L248.306 192.448C248.306 187.669 253.208 184.79 256.137 183.071C259.281 181.225 264.022 176.163 264.211 171.158C264.382 166.632 266.838 164.684 269.005 162.967C269.488 162.584 269.943 162.223 270.373 161.839C272.766 159.692 273.639 153.996 273.074 149.947C272.432 145.337 273.604 144.074 276.143 143.245C277.208 142.898 277.669 141.673 278.077 140.592C278.512 139.439 278.962 138.251 280.16 138.508C280.804 138.649 281.771 139.513 282.724 145.38C282.732 145.429 282.729 145.48 282.717 145.526C277.381 167.088 265.907 186.697 249.539 202.231C249.469 202.295 249.379 202.33 249.287 202.33ZM279.87 139.205C279.432 139.205 279.183 139.737 278.763 140.847C278.32 142.021 277.769 143.482 276.37 143.938C274.126 144.67 273.222 145.697 273.799 149.845C274.404 154.171 273.469 160.043 270.862 162.382C270.418 162.781 269.931 163.165 269.462 163.538C267.318 165.238 265.102 166.995 264.943 171.186C264.741 176.521 259.889 181.717 256.507 183.702C253.712 185.342 249.036 188.088 249.036 192.449L249.034 193.266C249.029 195.746 249.021 198.784 249.502 201.25C265.501 185.902 276.725 166.614 281.984 145.424C281.053 139.73 280.168 139.258 280.001 139.222C279.958 139.21 279.913 139.205 279.87 139.205Z" fill="#2573EF"/>
<path d="M235.134 38.2133C235.134 42.2058 228.497 51.7995 226.907 54.0412C226.743 54.2714 226.391 54.2705 226.228 54.0403C225.089 52.4352 221.363 47.0615 219.339 42.6734C218.536 40.9325 218 39.3463 218 38.2124C218 33.6769 221.836 30 226.567 30C231.299 30.0009 235.134 33.6778 235.134 38.2133Z" fill="#2573EF"/>
<path d="M230.384 40.4595C230.881 38.3579 229.577 36.2518 227.472 35.7556C225.367 35.2593 223.257 36.5607 222.76 38.6624C222.262 40.764 223.566 42.8701 225.672 43.3663C227.777 43.8626 229.887 42.5612 230.384 40.4595Z" fill="#131319"/>
<path d="M110.481 51.1562H3.31738V204.412H110.481V51.1562Z" fill="#131319"/>
<path d="M110.481 204.778H3.31595C3.1135 204.778 2.94922 204.614 2.94922 204.411V51.1561C2.94922 50.954 3.1135 50.79 3.31595 50.79H110.48C110.682 50.79 110.846 50.954 110.846 51.1561V204.411C110.846 204.614 110.684 204.778 110.481 204.778ZM3.68268 204.047H110.115V51.5222H3.68268V204.047Z" fill="#2573EF"/>
<path d="M110.481 148.71H3.31738V204.414H110.481V148.71Z" fill="#131319"/>
<path d="M110.481 204.778H3.31595C3.1135 204.778 2.94922 204.614 2.94922 204.412V148.71C2.94922 148.508 3.1135 148.344 3.31595 148.344H110.48C110.682 148.344 110.846 148.508 110.846 148.71V204.414C110.846 204.614 110.684 204.778 110.481 204.778ZM3.68268 204.048H110.115V149.074H3.68268V204.048Z" fill="#2573EF"/>
<path d="M28.0256 135.536H13.6285C13.426 135.536 13.2617 135.372 13.2617 135.17V112.759C13.2617 108.594 16.6552 105.207 20.827 105.207C24.9988 105.207 28.3923 108.594 28.3923 112.759V135.17C28.3907 135.372 28.228 135.536 28.0256 135.536ZM13.9935 134.804H27.6572V112.759C27.6572 108.999 24.5923 105.939 20.8254 105.939C17.0585 105.939 13.9935 108.999 13.9935 112.759V134.804Z" fill="#2573EF"/>
<path d="M20.8267 132.431C20.6242 132.431 20.46 132.267 20.46 132.065V108.68C20.46 108.477 20.6242 108.313 20.8267 108.313C21.0291 108.313 21.1934 108.477 21.1934 108.68V132.065C21.1934 132.267 21.0291 132.431 20.8267 132.431Z" fill="#2573EF"/>
<path d="M15.2116 127.143C15.1187 127.143 15.0241 127.106 14.9527 127.035C14.81 126.893 14.81 126.661 14.9527 126.518L18.8225 122.656C18.9652 122.513 19.1975 122.513 19.3402 122.656C19.483 122.798 19.483 123.03 19.3402 123.172L15.4705 127.035C15.3991 127.108 15.3062 127.143 15.2116 127.143Z" fill="#2573EF"/>
<path d="M22.613 119.756C22.52 119.756 22.4255 119.719 22.3541 119.648C22.2114 119.506 22.2114 119.274 22.3541 119.131L25.0689 116.421C25.2116 116.279 25.4439 116.279 25.5867 116.421C25.7294 116.564 25.7294 116.796 25.5867 116.938L22.8718 119.648C22.8005 119.721 22.7076 119.756 22.613 119.756Z" fill="#2573EF"/>
<path d="M52.0725 135.536H37.6753C37.4729 135.536 37.3086 135.372 37.3086 135.17V112.759C37.3086 108.594 40.7021 105.207 44.8739 105.207C49.0457 105.207 52.4392 108.594 52.4392 112.759V135.17C52.4392 135.372 52.2749 135.536 52.0725 135.536ZM38.0421 134.804H51.7057V112.759C51.7057 108.999 48.6408 105.939 44.8739 105.939C41.107 105.939 38.0421 108.999 38.0421 112.759V134.804Z" fill="#2573EF"/>
<path d="M44.8736 132.431C44.6711 132.431 44.5068 132.267 44.5068 132.065V108.68C44.5068 108.477 44.6711 108.313 44.8736 108.313C45.076 108.313 45.2403 108.477 45.2403 108.68V132.065C45.2403 132.267 45.076 132.431 44.8736 132.431Z" fill="#2573EF"/>
<path d="M39.2604 127.143C39.1675 127.143 39.0729 127.106 39.0016 127.035C38.8589 126.893 38.8589 126.661 39.0016 126.518L42.8713 122.656C43.014 122.513 43.2464 122.513 43.3891 122.656C43.5318 122.798 43.5318 123.03 43.3891 123.172L39.5193 127.035C39.4479 127.108 39.3534 127.143 39.2604 127.143Z" fill="#131319"/>
<path d="M46.6608 119.756C46.5679 119.756 46.4733 119.719 46.402 119.648C46.2592 119.506 46.2592 119.274 46.402 119.131L49.1168 116.421C49.2595 116.279 49.4918 116.279 49.6345 116.421C49.7772 116.564 49.7772 116.796 49.6345 116.938L46.9197 119.648C46.8483 119.721 46.7538 119.756 46.6608 119.756Z" fill="#2573EF"/>
<path d="M76.1203 135.536H61.7232C61.5207 135.536 61.3564 135.372 61.3564 135.17V112.759C61.3564 108.594 64.75 105.207 68.9218 105.207C73.0935 105.207 76.4871 108.594 76.4871 112.759V135.17C76.4871 135.372 76.3228 135.536 76.1203 135.536ZM62.0899 134.804H75.7536V112.759C75.7536 108.999 72.6886 105.939 68.9218 105.939C65.1549 105.939 62.0899 108.999 62.0899 112.759V134.804Z" fill="#2573EF"/>
<path d="M68.9214 132.431C68.719 132.431 68.5547 132.267 68.5547 132.065V108.68C68.5547 108.477 68.719 108.313 68.9214 108.313C69.1239 108.313 69.2881 108.477 69.2881 108.68V132.065C69.2881 132.267 69.1239 132.431 68.9214 132.431Z" fill="#2573EF"/>
<path d="M63.3063 127.143C63.2134 127.143 63.1188 127.106 63.0475 127.035C62.9048 126.893 62.9048 126.661 63.0475 126.518L66.9172 122.656C67.0599 122.513 67.2923 122.513 67.435 122.656C67.5777 122.798 67.5777 123.03 67.435 123.172L63.5652 127.035C63.4938 127.108 63.4009 127.143 63.3063 127.143Z" fill="#2573EF"/>
<path d="M70.7077 119.756C70.6148 119.756 70.5202 119.719 70.4488 119.648C70.3061 119.506 70.3061 119.274 70.4488 119.131L73.1636 116.421C73.3064 116.279 73.5387 116.279 73.6814 116.421C73.8241 116.564 73.8241 116.796 73.6814 116.938L70.9666 119.648C70.8952 119.721 70.8023 119.756 70.7077 119.756Z" fill="#2573EF"/>
<path d="M100.167 135.536H85.7701C85.5676 135.536 85.4033 135.372 85.4033 135.17V112.759C85.4033 108.594 88.7968 105.207 92.9686 105.207C97.1404 105.207 100.534 108.594 100.534 112.759V135.17C100.534 135.372 100.37 135.536 100.167 135.536ZM86.1368 134.804H99.8005V112.759C99.8005 108.999 96.7355 105.939 92.9686 105.939C89.2017 105.939 86.1368 108.999 86.1368 112.759V134.804Z" fill="#2573EF"/>
<path d="M92.9683 132.431C92.7658 132.431 92.6016 132.267 92.6016 132.065V108.68C92.6016 108.477 92.7658 108.313 92.9683 108.313C93.1707 108.313 93.335 108.477 93.335 108.68V132.065C93.335 132.267 93.1707 132.431 92.9683 132.431Z" fill="#2573EF"/>
<path d="M87.3552 127.143C87.2622 127.143 87.1676 127.106 87.0963 127.035C86.9536 126.893 86.9536 126.661 87.0963 126.518L90.9661 122.656C91.1088 122.513 91.3411 122.513 91.4838 122.656C91.6265 122.798 91.6265 123.03 91.4838 123.172L87.614 127.035C87.5427 127.108 87.4481 127.143 87.3552 127.143Z" fill="#2573EF"/>
<path d="M94.7556 119.756C94.6626 119.756 94.568 119.719 94.4967 119.648C94.354 119.506 94.354 119.274 94.4967 119.131L97.2115 116.421C97.3542 116.279 97.5865 116.279 97.7292 116.421C97.8719 116.564 97.8719 116.796 97.7292 116.938L95.0144 119.648C94.9431 119.721 94.8485 119.756 94.7556 119.756Z" fill="#2573EF"/>
<path d="M28.0256 95.6103H13.6285C13.426 95.6103 13.2617 95.4463 13.2617 95.2443V72.8329C13.2617 68.6686 16.6552 65.2812 20.827 65.2812C24.9988 65.2812 28.3923 68.6686 28.3923 72.8329V95.2443C28.3907 95.4463 28.228 95.6103 28.0256 95.6103ZM13.9935 94.8782H27.6572V72.8329C27.6572 69.0728 24.5923 66.0134 20.8254 66.0134C17.0585 66.0134 13.9935 69.0728 13.9935 72.8329V94.8782Z" fill="#2573EF"/>
<path d="M20.8267 92.5042C20.6242 92.5042 20.46 92.3402 20.46 92.1381V68.7528C20.46 68.5507 20.6242 68.3867 20.8267 68.3867C21.0291 68.3867 21.1934 68.5507 21.1934 68.7528V92.1398C21.1934 92.3402 21.0291 92.5042 20.8267 92.5042Z" fill="#2573EF"/>
<path d="M15.2116 87.2171C15.1187 87.2171 15.0241 87.1807 14.9527 87.1095C14.81 86.967 14.81 86.7351 14.9527 86.5927L18.8225 82.7299C18.9652 82.5874 19.1975 82.5874 19.3402 82.7299C19.483 82.8723 19.483 83.1042 19.3402 83.2467L15.4705 87.1111C15.3991 87.1823 15.3062 87.2171 15.2116 87.2171Z" fill="#2573EF"/>
<path d="M22.613 79.8299C22.52 79.8299 22.4255 79.7934 22.3541 79.7222C22.2114 79.5798 22.2114 79.3479 22.3541 79.2054L25.0689 76.4955C25.2116 76.3531 25.4439 76.3531 25.5867 76.4955C25.7294 76.638 25.7294 76.8699 25.5867 77.0123L22.8718 79.7222C22.8005 79.7951 22.7076 79.8299 22.613 79.8299Z" fill="#2573EF"/>
<path d="M52.0725 95.6103H37.6753C37.4729 95.6103 37.3086 95.4463 37.3086 95.2443V72.8329C37.3086 68.6686 40.7021 65.2812 44.8739 65.2812C49.0457 65.2812 52.4392 68.6686 52.4392 72.8329V95.2443C52.4392 95.4463 52.2749 95.6103 52.0725 95.6103ZM38.0421 94.8782H51.7057V72.8329C51.7057 69.0728 48.6408 66.0134 44.8739 66.0134C41.107 66.0134 38.0421 69.0728 38.0421 72.8329V94.8782Z" fill="#2573EF"/>
<path d="M44.8736 92.5042C44.6711 92.5042 44.5068 92.3402 44.5068 92.1381V68.7528C44.5068 68.5507 44.6711 68.3867 44.8736 68.3867C45.076 68.3867 45.2403 68.5507 45.2403 68.7528V92.1398C45.2403 92.3402 45.076 92.5042 44.8736 92.5042Z" fill="#2573EF"/>
<path d="M39.2604 87.2171C39.1675 87.2171 39.0729 87.1807 39.0016 87.1095C38.8589 86.967 38.8589 86.7351 39.0016 86.5927L42.8713 82.7299C43.014 82.5874 43.2464 82.5874 43.3891 82.7299C43.5318 82.8723 43.5318 83.1042 43.3891 83.2467L39.5193 87.1095C39.4479 87.1823 39.3534 87.2171 39.2604 87.2171Z" fill="#2573EF"/>
<path d="M46.6608 79.8299C46.5679 79.8299 46.4733 79.7934 46.402 79.7222C46.2592 79.5798 46.2592 79.3479 46.402 79.2054L49.1168 76.4955C49.2595 76.3531 49.4918 76.3531 49.6345 76.4955C49.7772 76.638 49.7772 76.8699 49.6345 77.0123L46.9197 79.7222C46.8483 79.7951 46.7538 79.8299 46.6608 79.8299Z" fill="#2573EF"/>
<path d="M76.1203 95.6103H61.7232C61.5207 95.6103 61.3564 95.4463 61.3564 95.2443V72.8329C61.3564 68.6686 64.75 65.2812 68.9218 65.2812C73.0935 65.2812 76.4871 68.6686 76.4871 72.8329V95.2443C76.4871 95.4463 76.3228 95.6103 76.1203 95.6103ZM62.0899 94.8782H75.7536V72.8329C75.7536 69.0728 72.6886 66.0134 68.9218 66.0134C65.1549 66.0134 62.0899 69.0728 62.0899 72.8329V94.8782Z" fill="#2573EF"/>
<path d="M68.9214 92.5042C68.719 92.5042 68.5547 92.3402 68.5547 92.1381V68.7528C68.5547 68.5507 68.719 68.3867 68.9214 68.3867C69.1239 68.3867 69.2881 68.5507 69.2881 68.7528V92.1398C69.2881 92.3402 69.1239 92.5042 68.9214 92.5042Z" fill="#2573EF"/>
<path d="M63.3063 87.2171C63.2134 87.2171 63.1188 87.1807 63.0475 87.1095C62.9048 86.967 62.9048 86.7351 63.0475 86.5927L66.9172 82.7299C67.0599 82.5874 67.2923 82.5874 67.435 82.7299C67.5777 82.8723 67.5777 83.1042 67.435 83.2467L63.5652 87.1095C63.4938 87.1823 63.4009 87.2171 63.3063 87.2171Z" fill="#2573EF"/>
<path d="M70.7077 79.8299C70.6148 79.8299 70.5202 79.7934 70.4488 79.7222C70.3061 79.5798 70.3061 79.3479 70.4488 79.2054L73.1636 76.4955C73.3064 76.3531 73.5387 76.3531 73.6814 76.4955C73.8241 76.638 73.8241 76.8699 73.6814 77.0123L70.9666 79.7222C70.8952 79.7951 70.8023 79.8299 70.7077 79.8299Z" fill="#2573EF"/>
<path d="M100.167 95.6103H85.7701C85.5676 95.6103 85.4033 95.4463 85.4033 95.2443V72.8329C85.4033 68.6686 88.7968 65.2812 92.9686 65.2812C97.1404 65.2812 100.534 68.6686 100.534 72.8329V95.2443C100.534 95.4463 100.37 95.6103 100.167 95.6103ZM86.1368 94.8782H99.8005V72.8329C99.8005 69.0728 96.7355 66.0134 92.9686 66.0134C89.2017 66.0134 86.1368 69.0728 86.1368 72.8329V94.8782Z" fill="#2573EF"/>
<path d="M92.9683 92.5042C92.7658 92.5042 92.6016 92.3402 92.6016 92.1381V68.7528C92.6016 68.5507 92.7658 68.3867 92.9683 68.3867C93.1707 68.3867 93.335 68.5507 93.335 68.7528V92.1398C93.335 92.3402 93.1707 92.5042 92.9683 92.5042Z" fill="#2573EF"/>
<path d="M87.3552 87.2171C87.2622 87.2171 87.1676 87.1807 87.0963 87.1095C86.9536 86.967 86.9536 86.7351 87.0963 86.5927L90.9661 82.7299C91.1088 82.5874 91.3411 82.5874 91.4838 82.7299C91.6265 82.8723 91.6265 83.1042 91.4838 83.2467L87.614 87.1095C87.5427 87.1823 87.4481 87.2171 87.3552 87.2171Z" fill="#2573EF"/>
<path d="M94.7556 79.8299C94.6626 79.8299 94.568 79.7934 94.4967 79.7222C94.354 79.5798 94.354 79.3479 94.4967 79.2054L97.2115 76.4955C97.3542 76.3531 97.5865 76.3531 97.7292 76.4955C97.8719 76.638 97.8719 76.8699 97.7292 77.0123L95.0144 79.7222C94.9431 79.7951 94.8485 79.8299 94.7556 79.8299Z" fill="#2573EF"/>
<path d="M55.4758 204.778H41.1451C40.9426 204.778 40.7783 204.614 40.7783 204.412V159.733C40.7783 159.531 40.9426 159.367 41.1451 159.367H55.4758C55.6783 159.367 55.8426 159.531 55.8426 159.733V204.414C55.8409 204.614 55.6783 204.778 55.4758 204.778ZM41.5101 204.047H55.1074V160.098H41.5101V204.047Z" fill="#2573EF"/>
<path d="M72.6506 204.778H58.3199C58.1174 204.778 57.9531 204.614 57.9531 204.412V159.733C57.9531 159.531 58.1174 159.367 58.3199 159.367H72.6506C72.8531 159.367 73.0174 159.531 73.0174 159.733V204.414C73.0174 204.614 72.8531 204.778 72.6506 204.778ZM58.6866 204.047H72.2839V160.098H58.6866V204.047Z" fill="#2573EF"/>
<path d="M44.3757 177.813C44.2827 177.813 44.1882 177.776 44.1168 177.705C43.9741 177.563 43.9741 177.331 44.1168 177.188L51.9825 169.335C52.1252 169.193 52.3575 169.193 52.5002 169.335C52.6429 169.478 52.6429 169.71 52.5002 169.852L44.6345 177.705C44.5632 177.778 44.4703 177.813 44.3757 177.813Z" fill="#2573EF"/>
<path d="M44.8112 187.456C44.7183 187.456 44.6237 187.42 44.5523 187.349C44.4096 187.206 44.4096 186.974 44.5523 186.832L52.0214 179.376C52.1641 179.234 52.3964 179.234 52.5391 179.376C52.6818 179.519 52.6818 179.751 52.5391 179.893L45.0701 187.349C44.9987 187.422 44.9058 187.456 44.8112 187.456Z" fill="#2573EF"/>
<path d="M61.5339 183.15C61.4409 183.15 61.3464 183.114 61.275 183.042C61.1323 182.9 61.1323 182.668 61.275 182.526L69.1407 174.674C69.2834 174.532 69.5157 174.532 69.6584 174.674C69.8011 174.817 69.8011 175.049 69.6584 175.191L61.7927 183.042C61.7214 183.115 61.6268 183.15 61.5339 183.15Z" fill="#2573EF"/>
<path d="M61.9694 192.793C61.8765 192.793 61.7819 192.757 61.7105 192.686C61.5678 192.543 61.5678 192.311 61.7105 192.169L69.1796 184.713C69.3223 184.571 69.5546 184.571 69.6973 184.713C69.8401 184.856 69.8401 185.088 69.6973 185.23L62.2283 192.686C62.1569 192.759 62.0623 192.793 61.9694 192.793Z" fill="#2573EF"/>
<path d="M31.0613 198.714H10.5923C10.3899 198.714 10.2256 198.55 10.2256 198.348V166.486C10.2256 160.653 14.9815 155.905 20.826 155.905C26.6705 155.905 31.4264 160.653 31.4264 166.486V198.348C31.428 198.55 31.2637 198.714 31.0613 198.714ZM10.9591 197.983H30.6962V166.486C30.6962 161.055 26.2689 156.636 20.8276 156.636C15.3864 156.636 10.9591 161.055 10.9591 166.486V197.983Z" fill="#2573EF"/>
<path d="M20.8277 194.299C20.6252 194.299 20.4609 194.135 20.4609 193.933V160.685C20.4609 160.483 20.6252 160.319 20.8277 160.319C21.0301 160.319 21.1944 160.483 21.1944 160.685V193.935C21.1944 194.135 21.0301 194.299 20.8277 194.299Z" fill="#2573EF"/>
<path d="M12.8444 186.783C12.7515 186.783 12.6569 186.746 12.5855 186.675C12.4428 186.533 12.4428 186.301 12.5855 186.158L18.0865 180.667C18.2292 180.525 18.4616 180.525 18.6043 180.667C18.747 180.81 18.747 181.042 18.6043 181.184L13.1033 186.675C13.0319 186.748 12.939 186.783 12.8444 186.783Z" fill="#2573EF"/>
<path d="M23.3669 176.279C23.274 176.279 23.1794 176.243 23.108 176.172C22.9653 176.029 22.9653 175.797 23.108 175.655L26.9678 171.802C27.1105 171.66 27.3429 171.66 27.4856 171.802C27.6283 171.945 27.6283 172.177 27.4856 172.319L23.6257 176.172C23.5544 176.245 23.4615 176.279 23.3669 176.279Z" fill="#2573EF"/>
<path d="M103.205 198.714H82.7359C82.5334 198.714 82.3691 198.55 82.3691 198.348V166.486C82.3691 160.653 87.125 155.905 92.9695 155.905C98.814 155.905 103.57 160.653 103.57 166.486V198.348C103.572 198.55 103.407 198.714 103.205 198.714ZM83.1026 197.983H102.84V166.486C102.84 161.055 98.4124 156.636 92.9712 156.636C87.5299 156.636 83.1026 161.055 83.1026 166.486V197.983Z" fill="#2573EF"/>
<path d="M92.9693 194.299C92.7652 194.299 92.6025 194.134 92.6025 193.933L92.6756 171.921C92.6756 171.719 92.8398 171.557 93.0423 171.557C93.0423 171.557 93.0423 171.557 93.044 171.557C93.2464 171.557 93.4107 171.722 93.409 171.923L93.336 193.935C93.336 194.137 93.1717 194.299 92.9693 194.299Z" fill="#2573EF"/>
<path d="M84.988 186.783C84.895 186.783 84.8005 186.746 84.7291 186.675C84.5864 186.533 84.5864 186.301 84.7291 186.158L90.2301 180.667C90.3728 180.525 90.6051 180.525 90.7478 180.667C90.8905 180.81 90.8905 181.042 90.7478 181.184L85.2468 186.675C85.1755 186.748 85.0809 186.783 84.988 186.783Z" fill="#131319"/>
<path d="M95.5104 176.279C95.4175 176.279 95.3229 176.243 95.2516 176.172C95.1089 176.029 95.1089 175.797 95.2516 175.655L99.1114 171.802C99.2541 171.66 99.4864 171.66 99.6291 171.802C99.7718 171.945 99.7718 172.177 99.6291 172.319L95.7693 176.172C95.6979 176.245 95.6034 176.279 95.5104 176.279Z" fill="#131319"/>
<path d="M105.473 41.8242H8.32366L0 54.9878H113.797L105.473 41.8242Z" fill="#2573EF"/>
<path d="M112.624 146.926H1.17383V150.492H112.624V146.926Z" fill="#131319"/>
<path d="M112.623 150.858H1.17337C0.970923 150.858 0.806641 150.694 0.806641 150.492V146.926C0.806641 146.724 0.970923 146.56 1.17337 146.56H112.623C112.826 146.56 112.99 146.724 112.99 146.926V150.492C112.99 150.694 112.826 150.858 112.623 150.858ZM1.54011 150.126H112.258V147.292H1.54011V150.126Z" fill="#2573EF"/>
<path d="M29.5464 225.654C29.344 225.654 29.1797 225.49 29.1797 225.288V222.454C29.1797 222.252 29.344 222.088 29.5464 222.088C29.7489 222.088 29.9132 222.252 29.9132 222.454V225.288C29.9132 225.49 29.7489 225.654 29.5464 225.654Z" fill="#2573EF"/>
<path d="M29.5464 232.256C29.344 232.256 29.1797 232.092 29.1797 231.89V229.056C29.1797 228.853 29.344 228.689 29.5464 228.689C29.7489 228.689 29.9132 228.853 29.9132 229.056V231.89C29.9132 232.092 29.7489 232.256 29.5464 232.256Z" fill="#2573EF"/>
<path d="M27.6591 227.537H24.8199C24.6174 227.537 24.4531 227.373 24.4531 227.171C24.4531 226.969 24.6174 226.805 24.8199 226.805H27.6591C27.8616 226.805 28.0259 226.969 28.0259 227.171C28.0259 227.373 27.8616 227.537 27.6591 227.537Z" fill="#2573EF"/>
<path d="M34.2724 227.537H31.4331C31.2307 227.537 31.0664 227.373 31.0664 227.171C31.0664 226.969 31.2307 226.805 31.4331 226.805H34.2724C34.4749 226.805 34.6391 226.969 34.6391 227.171C34.6391 227.373 34.4749 227.537 34.2724 227.537Z" fill="#2573EF"/>
<path d="M39.2068 245.509C38.855 245.509 38.5032 245.444 38.1663 245.313C37.4312 245.028 36.8537 244.468 36.5368 243.738C35.8913 242.245 36.5617 240.496 38.0286 239.839C38.7355 239.522 39.5237 239.501 40.2439 239.781C40.9791 240.065 41.5565 240.625 41.8735 241.356C42.519 242.848 41.8486 244.597 40.3817 245.255C40.005 245.424 39.6067 245.509 39.2068 245.509ZM39.2051 240.316C38.9064 240.316 38.6094 240.379 38.329 240.504C37.2238 241 36.7226 242.32 37.2089 243.446C37.4461 243.996 37.8809 244.417 38.4302 244.631C38.9678 244.839 39.5536 244.824 40.0813 244.588C41.1848 244.092 41.6876 242.772 41.2014 241.646C40.9641 241.096 40.5294 240.675 39.9801 240.461C39.7279 240.364 39.4657 240.316 39.2051 240.316Z" fill="#2573EF"/>
<path d="M69.0386 146.21C67.4157 141.999 65.061 132.932 63.3169 130.098C61.5745 127.264 59.4753 124.767 56.037 122.293C54.2731 121.022 50.6605 118.572 47.8312 117.62C45.0019 116.666 45.9046 122.294 48.4203 123.454C50.9376 124.613 52.8078 126.556 52.0693 127C51.5566 127.308 50.0946 128.695 47.4993 127.895C44.592 126.998 42.8164 124.098 43.0852 121.073C43.1317 120.55 43.218 120.02 43.364 119.51C44.2485 116.391 42.9707 113.008 40.0767 111.541C38.7077 110.847 37.0333 110.434 35.0271 110.635C31.846 110.953 29.9426 128.787 41.5702 135.317C43.978 136.669 54.0673 139.425 55.9856 142.456C57.9039 145.487 59.8421 151.383 59.8421 151.383L69.0386 146.21Z" fill="#131319"/>
<path d="M59.8421 151.749C59.7973 151.749 59.7525 151.741 59.7093 151.724C59.6064 151.684 59.5284 151.602 59.4936 151.497C59.4737 151.439 57.5471 145.61 55.6753 142.652C54.4108 140.653 49.1786 138.695 45.3586 137.264C43.6378 136.619 42.151 136.063 41.3893 135.635C32.7221 130.767 31.4079 119.818 32.6159 114.061C33.0988 111.755 33.9651 110.373 34.9906 110.271C36.8724 110.082 38.6396 110.4 40.2426 111.213C43.2097 112.717 44.67 116.249 43.7175 119.608C43.5897 120.06 43.5001 120.564 43.452 121.104C43.1948 124.012 44.9421 126.721 47.6088 127.542C49.7146 128.19 51.0073 127.287 51.6296 126.853C51.7292 126.783 51.8138 126.724 51.8818 126.684C51.925 126.363 50.5908 124.854 48.2676 123.784C46.3759 122.912 45.2591 119.697 45.8996 118.092C46.2332 117.259 46.9982 116.953 47.949 117.272C50.7949 118.231 54.3726 120.643 56.2511 121.995C59.3691 124.239 61.6459 126.679 63.6289 129.904C64.7473 131.725 66.0682 135.915 67.3443 139.967C68.0828 142.311 68.7797 144.524 69.3788 146.076C69.4435 146.245 69.3755 146.437 69.2162 146.526L60.0196 151.701C59.9665 151.734 59.9035 151.749 59.8421 151.749ZM36.0261 110.95C35.7091 110.95 35.3872 110.966 35.0636 110.998C34.5259 111.051 33.7842 112.065 33.3345 114.21C32.1696 119.765 33.4241 130.322 41.7511 134.998C42.463 135.399 43.9266 135.945 45.6192 136.58C49.7545 138.127 54.902 140.055 56.2976 142.261C57.942 144.858 59.5666 149.432 60.0495 150.848L68.5856 146.046C68.0048 144.496 67.3443 142.4 66.649 140.189C65.4443 136.366 64.0802 132.033 63.0066 130.29C61.0501 127.108 58.9028 124.806 55.8246 122.591C53.9793 121.263 50.4713 118.896 47.7167 117.968C46.9467 117.708 46.7011 118.071 46.5833 118.366C46.1203 119.528 46.9467 122.372 48.5779 123.123C50.707 124.103 52.5506 125.725 52.602 126.663C52.617 126.939 52.4925 127.176 52.2618 127.315C52.2054 127.35 52.1357 127.398 52.0511 127.456C51.3906 127.918 49.8424 129.001 47.3948 128.244C44.3995 127.32 42.4347 124.292 42.7235 121.042C42.7749 120.456 42.8728 119.908 43.0139 119.411C43.8718 116.386 42.5675 113.214 39.9124 111.867C38.7093 111.258 37.4067 110.95 36.0261 110.95Z" fill="#2573EF"/>
<path d="M53.541 152.58L72.7488 140.422C72.7488 140.422 106.027 185.362 116.951 188.544C127.875 191.726 146.367 193.126 146.367 193.126C146.367 193.126 157.963 221.929 133.085 234.565C93.4302 254.705 53.541 152.58 53.541 152.58Z" fill="#E2EDFF"/>
<path d="M147.327 252.326L247.229 265.658C242.714 251.254 241.34 228.884 245.12 214.259C254.31 178.721 257.648 147.621 238.416 140.154C233.489 138.241 227.935 136.479 221.704 134.812C201.824 129.495 164.84 129.757 144.778 143.114C112.922 164.323 104.894 210.344 104.894 210.344L146.061 217.522L147.327 252.326Z" fill="#E2EDFF"/>
<path d="M77.3428 254.99L77.6199 259.666C77.6564 260.296 78.0895 260.832 78.6985 261.003L212.343 298.458C213.819 298.872 215.402 298.552 216.6 297.598L245.085 273.754L235.112 263.088L77.3428 254.99Z" fill="#131319"/>
<path d="M213.624 298.999C213.161 298.999 212.698 298.936 212.243 298.81L78.5986 261.355C77.8402 261.143 77.3009 260.472 77.2544 259.689L76.9773 255.013C76.9707 254.908 77.0088 254.807 77.0835 254.733C77.1565 254.658 77.2544 254.617 77.3623 254.625L235.132 262.723C235.226 262.728 235.316 262.77 235.381 262.839L245.354 273.505C245.422 273.578 245.458 273.677 245.452 273.777C245.445 273.878 245.399 273.97 245.322 274.035L216.837 297.879C215.911 298.613 214.774 298.999 213.624 298.999ZM77.7323 255.375L77.9846 259.644C78.0128 260.118 78.338 260.522 78.796 260.649L212.441 298.104C213.798 298.485 215.267 298.189 216.37 297.311L244.552 273.72L234.944 263.444L77.7323 255.375Z" fill="#2573EF"/>
<path d="M77.3428 254.99L213.045 291.668C214.376 292.028 215.798 291.718 216.859 290.84L247.231 265.656L119.014 232.594L77.3428 254.99Z" fill="#131319"/>
<path d="M214.148 292.182C213.747 292.182 213.344 292.13 212.949 292.023L77.246 255.343C77.1016 255.305 76.9954 255.18 76.9789 255.031C76.9623 254.882 77.0369 254.738 77.1697 254.667L118.841 232.269C118.922 232.226 119.019 232.214 119.107 232.237L247.324 265.299C247.456 265.334 247.559 265.44 247.589 265.573C247.619 265.707 247.571 265.846 247.466 265.934L217.094 291.118C216.256 291.814 215.21 292.182 214.148 292.182ZM78.3246 254.877L213.139 291.317C214.352 291.645 215.655 291.362 216.623 290.56L246.444 265.833L119.058 232.984L78.3246 254.877Z" fill="#2573EF"/>
<path d="M260.785 236.112L248.364 258.625C247.231 260.68 244.66 261.424 242.616 260.289L234.795 256.183C233.909 255.691 232.729 255.274 231.51 255.025C229.449 254.606 227.31 255.153 225.677 256.488L213.594 266.36C207.523 272.893 220.846 274.311 223.514 274.024C228.098 273.533 228.098 273.533 228.098 273.533C228.098 273.533 233.151 273.743 237.196 275.186C241.242 276.628 246.955 277.541 252.81 275.466L253.268 275.303C256.769 274.063 259.771 271.702 261.816 268.583L276.719 245.864L260.785 236.112Z" fill="#131319"/>
<path d="M245.644 277.041C242.04 277.041 238.975 276.211 237.072 275.532C233.275 274.179 228.506 273.92 228.106 273.9L223.551 274.389C221.656 274.591 213.583 273.922 211.951 270.679C211.283 269.347 211.744 267.811 213.324 266.112C213.335 266.099 213.347 266.089 213.36 266.077L225.443 256.205C227.178 254.785 229.417 254.227 231.581 254.668C232.837 254.923 234.042 255.348 234.971 255.864L242.783 259.967C243.691 260.47 244.73 260.589 245.717 260.304C246.713 260.02 247.538 259.359 248.041 258.448L260.461 235.935C260.509 235.847 260.592 235.784 260.689 235.758C260.785 235.731 260.889 235.746 260.974 235.799L276.905 245.554C276.989 245.605 277.049 245.69 277.07 245.786C277.092 245.882 277.074 245.983 277.019 246.066L262.116 268.785C260.038 271.952 256.937 274.389 253.384 275.65L252.926 275.812C250.39 276.713 247.911 277.041 245.644 277.041ZM228.094 273.168C228.099 273.168 228.104 273.168 228.109 273.168C228.318 273.177 233.263 273.398 237.316 274.843C240.324 275.915 246.32 277.377 252.682 275.123L253.14 274.96C256.545 273.753 259.515 271.419 261.505 268.384L276.201 245.98L260.918 236.623L248.681 258.8C248.084 259.884 247.103 260.667 245.918 261.007C244.742 261.345 243.505 261.204 242.433 260.609L234.621 256.506C233.76 256.029 232.601 255.622 231.433 255.383C229.483 254.986 227.469 255.493 225.905 256.77L213.841 266.627C212.506 268.071 212.089 269.324 212.605 270.351C213.959 273.046 221.362 273.887 223.471 273.662L228.054 273.17C228.069 273.17 228.081 273.168 228.094 273.168Z" fill="#2573EF"/>
<path d="M235.306 196.649C256.88 200.012 253.222 219.809 253.222 219.809L248.712 249.761L270.363 263.82C270.363 263.82 313.746 217.245 295.534 179.822C280.452 148.828 227.873 136.612 227.873 136.612L235.306 196.649Z" fill="#E2EDFF"/>
<path d="M171.448 102.804C169.055 101.709 167.815 103.533 164.251 103.037C160.464 102.512 156.296 99.683 154.733 95.5452C152.844 90.5478 155.566 85.7856 157.281 82.7825C158.989 79.796 161.159 76.4683 164.928 75.0321C169.842 73.1587 171.896 76.0343 177.52 74.2702C182.093 72.8357 181.76 70.6111 185.83 69.445C189.224 68.4711 199.004 69.0276 201.193 74.2702C202.582 77.5979 199.587 79.6221 201.08 84.5516C201.976 87.5116 203.387 87.8744 204.414 90.1586C206.964 95.8285 203.767 105.787 197.682 109.123C189.423 113.653 175.575 104.694 171.448 102.804Z" fill="#2573EF"/>
<path d="M179.043 112.316L177.121 128.221C176.756 131.251 174.591 133.745 171.664 134.516L166.128 136.298C165.049 136.646 164.833 138.11 165.779 138.736C179.765 147.976 199.061 147.813 212.449 137.57L214.015 136.371C215.056 135.574 214.697 133.914 213.423 133.628L206.575 132.086C203.679 131.433 201.454 129.094 200.927 126.151L196.739 102.721L179.043 112.316Z" fill="#131319"/>
<path d="M188.467 145.852C180.502 145.852 172.47 143.591 165.579 139.037C165.026 138.673 164.739 138.033 164.83 137.369C164.921 136.697 165.376 136.152 166.015 135.946L171.551 134.164C174.37 133.422 176.406 131.073 176.756 128.174L178.678 112.27C178.693 112.152 178.763 112.049 178.867 111.991L196.565 102.392C196.668 102.336 196.792 102.333 196.899 102.384C197.005 102.435 197.079 102.533 197.101 102.649L201.289 126.079C201.791 128.887 203.898 131.101 206.656 131.723L213.504 133.265C214.233 133.429 214.784 133.985 214.945 134.719C215.107 135.456 214.837 136.198 214.239 136.655L212.673 137.855C205.723 143.173 197.136 145.852 188.467 145.852ZM179.385 112.546L177.487 128.264C177.1 131.462 174.851 134.055 171.758 134.868L166.242 136.644C165.803 136.786 165.6 137.164 165.559 137.47C165.506 137.86 165.665 138.217 165.985 138.429C180.122 147.768 199.137 147.295 212.23 137.278L213.796 136.079C214.171 135.792 214.334 135.343 214.231 134.88C214.13 134.421 213.8 134.085 213.345 133.984L206.497 132.441C203.45 131.756 201.123 129.311 200.569 126.213L196.47 103.282L179.385 112.546Z" fill="#2573EF"/>
<path d="M194.728 105.948C194.728 105.948 200.962 102.894 198.77 97.0647C196.765 91.736 192.471 97.0365 192.471 97.0365C192.471 97.0365 188.935 84.2556 181.502 89.2961C174.07 94.3366 167.03 96.1686 167.03 96.1686C167.03 96.1686 169.647 109.031 174.348 117.589C177.183 122.751 180.777 126.347 185.01 124.613C196.6 119.864 194.728 105.948 194.728 105.948Z" fill="#131319"/>
<path d="M182.846 125.426C179.781 125.426 176.824 122.862 174.025 117.765C169.352 109.256 166.695 96.3704 166.668 96.2412C166.63 96.0507 166.746 95.8636 166.936 95.8139C167.005 95.7957 174.005 93.9371 181.295 88.9927C183.11 87.7604 184.869 87.4456 186.522 88.0502C190.063 89.3489 192.034 94.497 192.63 96.3108C193.395 95.5207 195.03 94.0945 196.629 94.3529C197.698 94.5252 198.533 95.3948 199.112 96.9353C201.146 102.343 196.251 105.506 195.116 106.152C195.295 108.085 195.994 120.506 185.146 124.95C184.374 125.267 183.608 125.426 182.846 125.426ZM167.458 96.4267C167.906 98.4956 170.467 109.763 174.668 117.414C177.952 123.393 181.386 125.702 184.869 124.274C196.068 119.686 194.382 106.133 194.364 105.996C194.344 105.84 194.424 105.689 194.565 105.62C194.807 105.501 200.474 102.637 198.426 97.1937C197.947 95.9166 197.303 95.2043 196.511 95.0768C195.081 94.8498 193.312 96.5775 192.754 97.2666C192.668 97.3726 192.53 97.4239 192.394 97.3941C192.26 97.3659 192.152 97.2666 192.116 97.134C192.096 97.0645 190.143 90.1589 186.268 88.7393C184.851 88.2192 183.316 88.5091 181.706 89.599C175.223 93.9951 168.957 95.9878 167.458 96.4267Z" fill="#2573EF"/>
<path d="M184.106 117.856C183.96 117.856 183.821 117.768 183.764 117.622C183.691 117.433 183.784 117.223 183.972 117.148L193.98 113.251C198.516 111.483 201.087 106.748 200.091 101.989L199.099 97.2448C199.057 97.0477 199.185 96.8539 199.383 96.8125C199.578 96.7711 199.774 96.8986 199.816 97.0957L200.808 101.84C201.877 106.95 199.117 112.035 194.245 113.932L184.237 117.829C184.196 117.847 184.151 117.856 184.106 117.856Z" fill="#2573EF"/>
<path d="M197.758 92.6299C197.599 92.6299 197.455 92.5272 197.406 92.3682C197.37 92.244 193.615 79.7993 185.246 75.3965C181.899 73.6357 178.232 73.3823 174.344 74.6445C174.15 74.7074 173.944 74.6014 173.882 74.4093C173.819 74.2171 173.926 74.0101 174.118 73.9488C178.202 72.6237 182.062 72.892 185.591 74.7505C194.235 79.299 197.957 91.6377 198.112 92.1611C198.168 92.3549 198.059 92.5587 197.864 92.615C197.826 92.6249 197.791 92.6299 197.758 92.6299Z" fill="#131319"/>
<path d="M184.984 119.802C186.108 118.692 186.134 116.9 185.042 115.798C183.95 114.697 182.153 114.703 181.03 115.813C179.906 116.923 179.88 118.716 180.972 119.818C182.064 120.919 183.861 120.912 184.984 119.802Z" fill="#2573EF"/>
<path d="M192.409 101.033C190.75 97.0126 192.399 92.5237 196.092 91.0047C196.497 90.8374 198.04 90.3786 198.456 90.2941C201.835 89.6183 204.304 91.9539 205.781 95.5334C207.374 99.3928 206.863 103.541 203.476 105.22C203.335 105.29 202.298 105.661 202.145 105.704C197.958 106.855 194.069 105.053 192.409 101.033Z" fill="#2573EF"/>
<path d="M199.716 106.408C196.351 106.408 193.44 104.49 192.071 101.173C190.339 96.9745 192.079 92.262 195.952 90.6685C196.364 90.4995 197.932 90.0291 198.383 89.938C201.647 89.2837 204.397 91.2234 206.12 95.3959C207.948 99.8268 206.951 103.907 203.639 105.55C203.466 105.636 202.404 106.014 202.242 106.058C201.384 106.293 200.536 106.408 199.716 106.408ZM192.748 100.894C194.326 104.718 197.979 106.469 202.047 105.353C202.185 105.315 203.186 104.955 203.314 104.894C206.715 103.206 206.833 99.0466 205.443 95.6742C204.532 93.4645 202.421 89.8717 198.528 90.6552C198.123 90.7364 196.598 91.1936 196.231 91.3443C192.731 92.7837 191.168 97.0672 192.748 100.894Z" fill="#131319"/>
<path d="M203.624 105.169C207.345 103.723 209.081 99.2674 207.502 95.2163C205.922 91.1651 201.625 89.0529 197.904 90.4986C194.183 91.9443 192.447 96.4003 194.026 100.451C195.606 104.503 199.903 106.615 203.624 105.169Z" fill="#131319"/>
<path d="M201.202 105.987C198.052 105.987 194.982 103.91 193.685 100.582C192.886 98.5366 192.87 96.3286 193.635 94.3641C194.405 92.388 195.873 90.8939 197.77 90.1568C199.667 89.4197 201.761 89.529 203.668 90.4665C205.563 91.3974 207.046 93.0373 207.843 95.083C208.641 97.127 208.658 99.3367 207.893 101.301C207.123 103.277 205.654 104.771 203.757 105.508C202.924 105.833 202.06 105.987 201.202 105.987ZM194.368 100.317C195.873 104.173 199.964 106.198 203.493 104.826C205.196 104.163 206.517 102.818 207.212 101.034C207.911 99.2406 207.894 97.2198 207.162 95.3463C206.432 93.4729 205.077 91.9722 203.346 91.1225C201.627 90.2777 199.741 90.1766 198.039 90.8376C196.336 91.5001 195.015 92.8451 194.32 94.6291C193.62 96.423 193.638 98.4439 194.368 100.317Z" fill="#2573EF"/>
<path d="M172.975 273.146L67.3581 242.509C65.7185 242.033 64.5918 240.534 64.5918 238.83V166.583C64.5918 164.031 67.0461 162.192 69.5004 162.905L175.118 193.542C176.757 194.017 177.643 195.539 177.643 197.244L177.482 269.012C177.482 271.564 175.431 273.858 172.975 273.146Z" fill="#131319"/>
<path d="M173.876 273.643C173.544 273.643 173.207 273.595 172.872 273.497L67.2564 242.86C65.4725 242.343 64.2246 240.685 64.2246 238.83V166.583C64.2246 165.25 64.8369 164.027 65.9039 163.227C66.971 162.427 68.3184 162.182 69.6011 162.553L175.218 193.19C176.913 193.681 178.008 195.272 178.008 197.243L177.847 269.013C177.847 270.565 177.137 272.062 175.993 272.919C175.356 273.397 174.628 273.643 173.876 273.643ZM173.078 272.795C174.185 273.114 175.036 272.722 175.554 272.334C176.516 271.612 177.115 270.34 177.115 269.013L177.276 197.243C177.276 195.582 176.41 194.298 175.016 193.893L69.397 163.255C68.3383 162.949 67.2248 163.153 66.3437 163.812C65.4625 164.473 64.9564 165.483 64.9564 166.583V238.83C64.9564 240.362 65.9853 241.73 67.4588 242.157L173.078 272.795Z" fill="#2573EF"/>
<path d="M175.117 193.541L174.131 193.255V273.27C176.145 273.227 177.883 271.614 177.883 269.465V197.219C177.884 195.516 176.756 194.017 175.117 193.541Z" fill="#2573EF"/>
<path d="M174.133 273.636C174.036 273.636 173.945 273.598 173.877 273.532C173.807 273.462 173.768 273.368 173.768 273.27V193.255C173.768 193.141 173.822 193.031 173.914 192.962C174.007 192.892 174.126 192.869 174.236 192.904L175.221 193.19C177.005 193.707 178.253 195.365 178.253 197.22V269.467C178.253 271.756 176.448 273.588 174.143 273.636C174.138 273.636 174.134 273.636 174.133 273.636ZM174.498 193.743V272.879C176.219 272.664 177.518 271.231 177.518 269.468V197.222C177.518 195.69 176.489 194.322 175.015 193.894L174.498 193.743Z" fill="#131319"/>
<path d="M127.249 277.546V219.707C127.249 216.822 125.351 214.278 122.58 213.451L107.125 208.844C104.425 208.039 101.709 210.059 101.709 212.873V284.647C101.709 286.315 102.806 287.785 104.407 288.262L125.947 294.682C126.788 294.934 127.692 294.882 128.5 294.541L147.204 286.635C148.496 286.088 148.408 284.232 147.071 283.809L127.249 277.546Z" fill="#2573EF"/>
<path d="M131.365 194.973L104.029 186.798C103.659 186.688 103.403 186.346 103.403 185.96V183.578C103.403 182.982 103.979 182.555 104.552 182.725L131.119 190.671C131.696 190.843 132.091 191.374 132.091 191.975V194.433C132.091 194.811 131.726 195.081 131.365 194.973Z" fill="#2573EF"/>
<path d="M127.24 282.759C127.037 282.759 126.873 282.595 126.873 282.392L126.876 262.891C126.876 262.689 127.041 262.525 127.243 262.525C127.446 262.525 127.61 262.689 127.61 262.891L127.607 282.392C127.607 282.595 127.442 282.759 127.24 282.759Z" fill="#131319"/>
</svg>
