<svg width="300" height="299" viewBox="0 0 300 299" fill="none" xmlns="http://www.w3.org/2000/svg">
<g clip-path="url(#clip0_64_455)">
<path d="M2.08214 53.0647L6.52165 53.8375C7.2387 53.9617 7.82508 54.4813 8.01292 55.1789C8.21219 55.9158 8.44087 56.6396 8.6973 57.3487C8.94231 58.0251 8.76264 58.7849 8.25139 59.2979L5.07612 62.4889C4.45053 63.1179 4.34437 64.0901 4.82131 64.8302L6.76176 67.8448C7.2387 68.5849 8.16973 68.897 9.00438 68.5947L13.2544 67.0556C13.9421 66.8072 14.7114 66.969 15.2292 67.4788C15.7649 68.0049 16.3219 68.5097 16.8985 68.9901C17.4571 69.4558 17.6907 70.2008 17.5045 70.9034L16.3497 75.2462C16.1226 76.0991 16.5212 76.9912 17.3084 77.3948L20.5115 79.0352C21.2988 79.4388 22.2641 79.2443 22.8374 78.5695L25.7481 75.1384C26.2201 74.5829 26.9682 74.3411 27.6738 74.5224C28.4023 74.7087 29.1422 74.8672 29.892 74.9946C30.6123 75.1172 31.1938 75.6465 31.3849 76.3458L32.5674 80.6642C32.7994 81.5138 33.5948 82.0856 34.4817 82.0432L38.0899 81.87C38.9768 81.8275 39.7183 81.1805 39.8751 80.3129L40.6755 75.8998C40.8045 75.1874 41.3305 74.6025 42.0345 74.4129C42.7776 74.212 43.5078 73.9816 44.2232 73.7218C44.9059 73.4751 45.6703 73.6499 46.1849 74.1548L49.3814 77.2918C50.0102 77.9095 50.9902 78.0091 51.7383 77.532L54.7846 75.591C55.5326 75.1139 55.8512 74.1875 55.5506 73.3591L54.0234 69.147C53.7784 68.4689 53.9385 67.7042 54.4514 67.1912C54.9904 66.652 55.5049 66.09 55.9982 65.5083C56.4669 64.9544 57.2183 64.7257 57.9206 64.9054L62.2866 66.0295C63.1442 66.2501 64.0458 65.8498 64.4558 65.0672L66.1251 61.8778C66.535 61.0936 66.3456 60.1361 65.6677 59.5708L62.2311 56.6968C61.6741 56.2311 61.434 55.4894 61.6202 54.7868C61.813 54.063 61.9747 53.3277 62.107 52.5827C62.2344 51.867 62.7701 51.287 63.4757 51.0926L67.8303 49.8966C68.6862 49.6613 69.2677 48.8689 69.2285 47.9898L69.0717 44.4084C69.0325 43.5277 68.3857 42.7957 67.5118 42.6438L63.0723 41.871C62.3552 41.7468 61.7689 41.2272 61.581 40.5296C61.3818 39.7927 61.1531 39.0689 60.8966 38.3598C60.6516 37.6833 60.8313 36.9236 61.3426 36.4105L64.5178 33.2196C65.1434 32.5905 65.2496 31.6184 64.7726 30.8782L62.8322 27.8637C62.3552 27.1236 61.4242 26.8115 60.5896 27.1138L56.3395 28.6529C55.6551 28.8996 54.8875 28.7444 54.3713 28.2379C53.8307 27.7069 53.2672 27.1971 52.684 26.7102C52.1287 26.2478 51.9017 25.5028 52.0879 24.8035L53.2427 20.4622C53.4697 19.6094 53.0712 18.7173 52.2839 18.3137L49.0808 16.6733C48.2935 16.2697 47.3282 16.4641 46.7549 17.1389L43.8442 20.5701C43.3722 21.1256 42.6241 21.3674 41.9185 21.1861C41.19 20.9982 40.4501 20.8413 39.7004 20.7139C38.98 20.5913 38.3986 20.0619 38.2075 19.3626L37.0249 15.0443C36.793 14.1947 35.9975 13.6228 35.1106 13.6653L31.5025 13.8385C30.6155 13.881 29.874 14.528 29.7172 15.3956L28.9152 19.8087C28.7862 20.5211 28.2602 21.106 27.5579 21.2955C26.8147 21.4965 26.0846 21.7269 25.3691 21.9867C24.6864 22.2334 23.922 22.0585 23.4075 21.5537L20.211 18.4166C19.5821 17.799 18.6021 17.6994 17.854 18.1764L14.8078 20.1175C14.0597 20.5946 13.7412 21.521 14.0417 22.3494L15.5689 26.5615C15.8155 27.2428 15.6473 28.0075 15.1328 28.5238C14.6003 29.0581 14.0891 29.6136 13.6023 30.1904C13.1303 30.7475 12.3789 30.9828 11.6733 30.8014L7.30567 29.6773C6.44815 29.4568 5.54653 29.8571 5.13655 30.6397L3.46724 33.829C3.05727 34.6133 3.24674 35.5707 3.92459 36.136L7.36611 39.0084C7.92309 39.4741 8.16319 40.2158 7.97699 40.9184C7.78425 41.6422 7.62255 42.3775 7.48861 43.1225C7.36121 43.8382 6.82546 44.4182 6.11984 44.6126L1.76527 45.8086C0.909382 46.0439 0.327901 46.8363 0.367102 47.7154L0.523906 51.2968C0.561474 52.1807 1.20829 52.9127 2.08214 53.0647ZM31.0451 35.8518C37.7321 33.7588 44.834 37.4366 46.9068 44.0653C48.9795 50.6939 45.2391 57.7637 38.5521 59.8567C31.8651 61.9497 24.7632 58.2719 22.6904 51.6432C20.6177 45.0129 24.3581 37.9431 31.0451 35.8518Z" fill="#131319"/>
<path d="M34.3886 82.4094C33.371 82.4094 32.489 81.7444 32.2178 80.7608L31.0353 76.4424C30.8817 75.8804 30.4097 75.4523 29.8331 75.3543C29.0736 75.2252 28.3173 75.0634 27.5856 74.8756C27.0204 74.7301 26.4079 74.9262 26.0274 75.3739L23.1167 78.805C22.429 79.6154 21.2906 79.8442 20.3465 79.3589L17.1434 77.7185C16.1961 77.2332 15.7257 76.1794 15.9984 75.1517L17.1532 70.8105C17.3035 70.2468 17.1124 69.6422 16.6665 69.2713C16.085 68.7861 15.5166 68.2714 14.9743 67.7404C14.5594 67.3336 13.9339 67.1996 13.3785 67.4006L9.12847 68.9397C8.12558 69.3024 7.02632 68.9348 6.45464 68.0443L4.51583 65.0282C3.94251 64.1377 4.06665 62.9874 4.818 62.2326L7.99328 59.0416C8.40652 58.625 8.54863 58.0106 8.35425 57.4731C8.09455 56.7591 7.86098 56.0189 7.66007 55.2739C7.51143 54.72 7.03939 54.2985 6.45791 54.1972L2.0184 53.4243C0.968141 53.2414 0.203722 52.3754 0.157988 51.3166L0.00118408 47.7352C-0.0445504 46.6781 0.639833 45.7418 1.66722 45.4592L6.0218 44.2632C6.59184 44.1063 7.02632 43.6341 7.12922 43.0606C7.26316 42.3058 7.42977 41.5542 7.62414 40.8271C7.77277 40.2683 7.58004 39.6654 7.13249 39.2913L3.69261 36.4189C2.87755 35.7392 2.65215 34.6053 3.14543 33.6626L4.81473 30.4732C5.30638 29.5337 6.36807 29.0616 7.3971 29.3262L11.7647 30.4504C12.3348 30.599 12.9473 30.403 13.3246 29.9569C13.8146 29.3785 14.3373 28.8099 14.8763 28.2691C15.2879 27.8558 15.4268 27.2349 15.2275 26.6892L13.7003 22.477C13.3393 21.482 13.715 20.3873 14.6133 19.8138L17.6596 17.8727C18.5579 17.3025 19.7127 17.4202 20.4674 18.1603L23.6639 21.2974C24.082 21.7075 24.7027 21.8447 25.2466 21.647C25.9653 21.3872 26.7117 21.1519 27.4647 20.9477C28.025 20.7958 28.4545 20.3252 28.5591 19.7468L29.3611 15.3337C29.5505 14.2913 30.426 13.5283 31.4877 13.4776L35.0958 13.3044C36.1641 13.2538 37.1 13.9302 37.3793 14.9514L38.5619 19.2697C38.7154 19.8334 39.1874 20.2598 39.764 20.3579C40.5252 20.4886 41.2814 20.6487 42.0115 20.8366C42.5783 20.982 43.1892 20.786 43.5681 20.3383L46.4788 16.9071C47.1665 16.0967 48.3049 15.868 49.249 16.3532L52.4521 17.9937C53.3994 18.4789 53.8698 19.5344 53.5971 20.5605L52.4423 24.9017C52.292 25.4654 52.4798 26.0667 52.9192 26.4343C53.5072 26.9244 54.0822 27.4457 54.6277 27.9816C55.0377 28.3835 55.66 28.5142 56.2154 28.3132L60.4654 26.7741C61.4667 26.4114 62.5675 26.779 63.1392 27.6695L65.0797 30.684C65.653 31.5745 65.5289 32.7247 64.7775 33.4796L61.6022 36.6705C61.189 37.0872 61.0469 37.7015 61.2412 38.2391C61.501 38.9531 61.7345 39.6932 61.9354 40.4383C62.0857 40.9922 62.5561 41.4137 63.1376 41.515L67.5771 42.2878C68.6274 42.4708 69.3918 43.3368 69.4375 44.3955L69.5943 47.977C69.6401 49.0341 68.9557 49.9703 67.9283 50.2514L63.5737 51.4473C63.0037 51.6042 62.5692 52.0764 62.4663 52.6499C62.3323 53.4031 62.1657 54.1547 61.9714 54.8834C61.8227 55.4422 62.0155 56.0451 62.463 56.4192L65.9045 59.2916C66.7196 59.9729 66.945 61.1052 66.4517 62.048L64.7824 65.2373C64.2908 66.1768 63.2307 66.649 62.2 66.3843L57.834 65.2602C57.2623 65.1115 56.6531 65.3043 56.2807 65.7454C55.7858 66.3304 55.2598 66.9039 54.7143 67.4496C54.3076 67.858 54.172 68.4757 54.3713 69.023L55.8985 73.2351C56.2595 74.2302 55.8838 75.3249 54.9854 75.8984L51.9392 77.8394C51.0425 78.4113 49.886 78.2936 49.1314 77.5518L45.9349 74.4148C45.5184 74.0063 44.8961 73.8675 44.3522 74.0652C43.6319 74.3266 42.8854 74.5619 42.134 74.7645C41.5738 74.9164 41.1442 75.387 41.0397 75.9654L40.2393 80.3768C40.0499 81.4192 39.176 82.1823 38.1127 82.2329L34.5046 82.4061C34.4637 82.4094 34.4262 82.4094 34.3886 82.4094ZM27.2115 74.0978C27.3961 74.0978 27.584 74.1207 27.7669 74.1681C28.479 74.3511 29.2157 74.5079 29.9556 74.6354C30.8099 74.7808 31.5106 75.4147 31.7393 76.2496L32.9218 80.568C33.1113 81.2559 33.7434 81.7215 34.467 81.679L38.0751 81.5058C38.7971 81.4715 39.3916 80.9536 39.519 80.2477L40.3194 75.8363C40.4745 74.9834 41.1116 74.2857 41.9413 74.0619C42.6731 73.8642 43.3999 73.6338 44.1023 73.3806C44.9075 73.0881 45.8271 73.2907 46.4429 73.8952L49.6394 77.0323C50.1506 77.5355 50.9347 77.6139 51.5439 77.2251L54.5902 75.284C55.1994 74.8968 55.4542 74.1567 55.2108 73.4851L53.6836 69.273C53.3896 68.4609 53.5905 67.5427 54.1965 66.9349C54.7274 66.4023 55.2402 65.8435 55.7221 65.2749C56.2758 64.6213 57.1758 64.3403 58.0153 64.5543L62.3813 65.6784C63.0821 65.8598 63.8024 65.5379 64.1356 64.9007L65.8049 61.7114C66.1381 61.0758 65.9862 60.3128 65.4374 59.8537L61.9959 56.9813C61.3327 56.4274 61.0452 55.5304 61.2674 54.6988C61.4552 53.9897 61.6169 53.2577 61.7476 52.5241C61.8995 51.6745 62.5398 50.9768 63.3793 50.7464L67.7339 49.5504C68.4314 49.3592 68.8969 48.7253 68.8658 48.0113L68.709 44.4298C68.678 43.7158 68.1602 43.1325 67.4513 43.0084L63.0118 42.2355C62.1527 42.0852 61.4536 41.4562 61.2314 40.6294C61.0354 39.904 60.8084 39.1834 60.5569 38.489C60.2661 37.6868 60.4752 36.7718 61.0877 36.1575L64.263 32.9665C64.771 32.4568 64.8559 31.6807 64.4688 31.0794L62.5283 28.0649C62.1412 27.4636 61.3948 27.2153 60.7153 27.4604L56.4653 28.9995C55.6486 29.2952 54.7257 29.1008 54.1181 28.5011C53.5873 27.9783 53.027 27.4718 52.4537 26.9947C51.7955 26.4474 51.5145 25.552 51.7383 24.7138L52.8931 20.3726C53.0776 19.6815 52.7591 18.9707 52.1205 18.6423L48.9174 17.0019C48.2772 16.6735 47.5029 16.8287 47.0358 17.3793L44.1251 20.8105C43.5649 21.4706 42.6649 21.7581 41.8302 21.5424C41.1197 21.3594 40.3831 21.2026 39.6415 21.0752C38.7873 20.9297 38.0865 20.2958 37.8579 19.4609L36.6753 15.1425C36.4858 14.453 35.8472 13.9906 35.1301 14.0315L31.522 14.2047C30.8001 14.239 30.2055 14.7569 30.0781 15.4628L29.2761 19.8759C29.121 20.7288 28.4839 21.4248 27.6542 21.6503C26.9208 21.8496 26.194 22.0784 25.4949 22.3316C24.688 22.6224 23.77 22.4215 23.1542 21.8169L19.9577 18.6799C19.4449 18.1767 18.6625 18.0982 18.0516 18.4871L15.0054 20.4281C14.3961 20.8154 14.1413 21.5555 14.3847 22.227L15.9119 26.4392C16.2059 27.2512 16.0017 28.1711 15.3908 28.7838C14.8649 29.3115 14.3569 29.8638 13.88 30.4275C13.323 31.0859 12.4197 31.3719 11.5818 31.1562L7.21416 30.0321C6.51508 29.8524 5.79313 30.1726 5.45992 30.8098L3.79061 34.0008C3.4574 34.6364 3.60931 35.3994 4.15812 35.8585L7.59964 38.7309C8.26278 39.2847 8.55026 40.1817 8.32812 41.0134C8.14028 41.7209 7.97858 42.4528 7.84791 43.1881C7.696 44.0377 7.05572 44.7354 6.21617 44.9657L1.8616 46.1617C1.16415 46.3529 0.698634 46.9869 0.731302 47.7009L0.888106 51.2823C0.91914 51.9963 1.43692 52.5796 2.1458 52.7038L6.58531 53.4766C7.44447 53.6269 8.14355 54.256 8.36569 55.0827C8.56169 55.8082 8.78873 56.5287 9.04027 57.2231C9.33101 58.0237 9.12357 58.9387 8.50943 59.5547L5.33415 62.7456C4.82617 63.2554 4.74123 64.0315 5.12834 64.6328L7.06879 67.6473C7.4559 68.2485 8.20235 68.4969 8.8802 68.2518L13.1302 66.7127C13.9469 66.417 14.8714 66.6147 15.4856 67.2192C16.0131 67.7371 16.5669 68.2387 17.1336 68.7109C17.7968 69.2632 18.081 70.1618 17.8589 70.9984L16.7041 75.3396C16.5211 76.0307 16.838 76.7431 17.4766 77.0699L20.6797 78.7103C21.3216 79.0387 22.0942 78.8835 22.5613 78.3328L25.472 74.9017C25.9081 74.3854 26.5533 74.0978 27.2115 74.0978ZM34.7169 60.8128C32.6507 60.8128 30.6024 60.3193 28.7224 59.3455C25.6402 57.7492 23.3731 55.0533 22.3408 51.7529C21.3085 48.4524 21.6352 44.9461 23.2588 41.8761C24.8824 38.8077 27.6085 36.5447 30.9356 35.504C37.804 33.3538 45.1248 37.1476 47.2547 43.9576C48.287 47.2581 47.9603 50.7644 46.3367 53.8344C44.7131 56.9029 41.987 59.1658 38.6599 60.2066C37.3646 60.6101 36.0367 60.8128 34.7169 60.8128ZM34.8557 35.6314C33.6307 35.6314 32.3844 35.8144 31.1545 36.2C28.0135 37.1836 25.4377 39.3207 23.9056 42.2176C22.3735 45.1128 22.0648 48.423 23.0383 51.5339C24.0118 54.6465 26.1499 57.1904 29.0589 58.6969C31.9679 60.2033 35.3016 60.4909 38.4443 59.5089C41.5852 58.5253 44.1611 56.3898 45.6932 53.493C47.2253 50.5977 47.534 47.2875 46.5605 44.1766C44.9304 38.9678 40.0858 35.6314 34.8557 35.6314Z" fill="#2573EF"/>
<path d="M275.184 244.371L23.7473 227.264L22.9747 55.6723C22.9567 51.532 26.408 48.2283 30.5241 48.4489L275.612 61.5967C278.132 61.7324 280.107 63.8205 280.113 66.3562L280.489 239.378C280.496 242.273 278.059 244.567 275.184 244.371Z" fill="#2573EF"/>
<path d="M272.085 240.106C272.1 243.593 269.152 246.359 265.673 246.12L25.3381 229.646C22.1906 229.43 19.7471 226.813 19.7471 223.656V59.4903C19.7471 56.0445 22.6398 53.3061 26.0797 53.4956L267.842 66.8199C269.831 66.9294 271.389 68.5698 271.398 70.5631L272.085 240.106Z" fill="#131319"/>
<path d="M266.097 246.5C265.949 246.5 265.798 246.495 265.648 246.485L25.3136 230.01C21.988 229.782 19.3828 226.993 19.3828 223.656V59.4906C19.3828 57.7227 20.0901 56.0807 21.3723 54.8651C22.6561 53.6495 24.3319 53.0319 26.0992 53.1315L267.861 66.4558C270.04 66.5751 271.754 68.3789 271.762 70.5617L272.451 240.105C272.458 241.894 271.744 243.552 270.439 244.776C269.243 245.897 267.716 246.5 266.097 246.5ZM25.7383 53.8521C24.2944 53.8521 22.9321 54.3945 21.8737 55.3961C20.7369 56.4712 20.1113 57.927 20.1113 59.4906V223.656C20.1113 226.609 22.4176 229.079 25.3626 229.282L265.697 245.756C267.277 245.869 268.783 245.328 269.937 244.245C271.092 243.162 271.726 241.693 271.719 240.108L271.03 70.565C271.022 68.7678 269.612 67.2842 267.819 67.1845L26.0584 53.8602C25.9506 53.8553 25.8444 53.8521 25.7383 53.8521Z" fill="#2573EF"/>
<path d="M244.481 228.128C244.454 228.128 244.427 228.128 244.4 228.127L232.528 227.625C231.267 227.573 230.276 226.318 230.274 224.767L230.153 104.006C230.152 103.125 230.472 102.305 231.034 101.759C231.458 101.346 231.986 101.127 232.54 101.138L244.532 101.449C245.814 101.483 246.817 102.739 246.817 104.311V225.262C246.817 226.151 246.49 226.975 245.922 227.52C245.512 227.914 245.004 228.128 244.481 228.128ZM232.487 101.868C232.146 101.868 231.821 102.011 231.543 102.282C231.13 102.685 230.883 103.331 230.883 104.006L231.004 224.767C231.006 225.904 231.703 226.86 232.559 226.896L244.431 227.398C244.891 227.416 245.215 227.19 245.416 226.996C245.835 226.594 246.085 225.947 246.085 225.266V104.313C246.085 103.159 245.378 102.202 244.511 102.179L232.518 101.868C232.509 101.868 232.499 101.868 232.487 101.868Z" fill="#2573EF"/>
<path d="M221.862 226.667C221.838 226.667 221.812 226.667 221.785 226.665L209.914 226.293C208.65 226.254 207.658 225.278 207.655 224.074L207.534 126.718C207.533 126.136 207.766 125.586 208.191 125.169C208.64 124.726 209.266 124.471 209.917 124.492L221.91 124.724C223.17 124.749 224.198 125.746 224.198 126.947V224.445C224.198 225.032 223.961 225.584 223.53 226.002C223.09 226.427 222.486 226.667 221.862 226.667ZM221.808 225.937C222.267 225.953 222.705 225.783 223.022 225.478C223.309 225.198 223.469 224.832 223.469 224.445V126.947C223.469 126.141 222.764 125.471 221.896 125.455L209.904 125.223C209.453 125.2 209.016 125.385 208.704 125.69C208.419 125.969 208.264 126.334 208.266 126.718L208.387 224.074C208.388 224.881 209.07 225.536 209.939 225.564L221.808 225.937Z" fill="#2573EF"/>
<path d="M199.672 224.884C199.648 224.884 199.623 224.884 199.599 224.884L187.727 224.599C186.461 224.568 185.468 223.787 185.467 222.82L185.346 141.526C185.344 141.125 185.512 140.744 185.831 140.43C186.278 139.987 186.989 139.718 187.727 139.741L199.719 139.917C201.003 139.937 202.009 140.719 202.009 141.7V223.101C202.009 223.506 201.84 223.889 201.516 224.202C201.075 224.63 200.391 224.884 199.672 224.884ZM187.68 140.468C187.144 140.468 186.646 140.646 186.342 140.946C186.22 141.067 186.074 141.265 186.074 141.522L186.195 222.815C186.197 223.374 186.891 223.846 187.744 223.866L199.615 224.15C200.156 224.17 200.686 223.987 201.003 223.676C201.127 223.555 201.276 223.354 201.276 223.096V141.698C201.276 141.129 200.572 140.657 199.705 140.644L187.712 140.468C187.703 140.468 187.691 140.468 187.68 140.468Z" fill="#2573EF"/>
<path d="M177.297 223.787C177.271 223.787 177.247 223.787 177.221 223.785L165.349 223.462C164.083 223.427 163.092 222.56 163.089 221.488L162.968 133.08C162.966 132.605 163.167 132.146 163.53 131.788C163.985 131.339 164.649 131.089 165.349 131.1L177.341 131.301C178.625 131.322 179.63 132.191 179.63 133.278V221.808C179.63 222.287 179.427 222.748 179.058 223.107C178.614 223.542 177.975 223.787 177.297 223.787ZM165.302 131.83C164.809 131.83 164.351 132.004 164.043 132.309C163.884 132.464 163.696 132.724 163.698 133.08L163.819 221.488C163.82 222.151 164.516 222.71 165.369 222.733L177.24 223.056C177.758 223.073 178.228 222.898 178.55 222.586C178.71 222.431 178.901 222.169 178.901 221.81V133.28C178.901 132.606 178.196 132.046 177.33 132.031L165.338 131.83C165.326 131.83 165.315 131.83 165.302 131.83Z" fill="#2573EF"/>
<path d="M155.166 222.692C155.141 222.692 155.115 222.692 155.09 222.692L143.219 222.454C141.932 222.427 140.958 221.762 140.957 220.906L140.836 148.102C140.834 147.785 140.972 147.481 141.23 147.226C141.667 146.793 142.409 146.542 143.216 146.55L155.208 146.697C156.492 146.713 157.498 147.395 157.498 148.248V221.142C157.498 221.462 157.359 221.766 157.098 222.022C156.67 222.444 155.951 222.692 155.166 222.692ZM143.172 147.279C142.579 147.279 142.035 147.455 141.744 147.744C141.627 147.86 141.566 147.981 141.568 148.101L141.689 220.905C141.69 221.277 142.326 221.705 143.235 221.723L155.107 221.962C155.708 221.976 156.293 221.793 156.59 221.501C156.709 221.383 156.77 221.262 156.77 221.142V148.248C156.77 147.869 156.124 147.439 155.2 147.427L143.208 147.28C143.195 147.279 143.183 147.279 143.172 147.279Z" fill="#2573EF"/>
<path d="M133.639 220.867C133.616 220.867 133.593 220.867 133.572 220.867L121.701 220.745C121.324 220.741 119.44 220.676 119.435 219.771L119.314 182.196C119.314 182.085 119.347 181.917 119.51 181.755C119.914 181.352 120.904 181.228 121.693 181.218L133.685 181.295C134.742 181.301 135.978 181.561 135.978 182.272V219.892C135.978 220.004 135.944 220.173 135.78 220.334C135.379 220.727 134.425 220.867 133.639 220.867ZM133.579 220.137C134.506 220.147 135.101 219.951 135.246 219.831V182.329C135.109 182.218 134.551 182.028 133.678 182.023L121.686 181.946C121.673 181.946 121.66 181.946 121.647 181.946C120.755 181.946 120.183 182.136 120.043 182.252L120.164 219.709C120.299 219.82 120.848 220.006 121.707 220.014L133.579 220.137Z" fill="#2573EF"/>
<path d="M112.476 219.042C112.453 219.042 112.434 219.042 112.416 219.042L100.544 218.97C98.2837 218.957 98.2788 218.442 98.2772 218.249L98.1563 196.177C98.1547 196.058 98.2037 195.944 98.2935 195.852C98.6708 195.471 100.103 195.452 100.533 195.45L112.525 195.494C114.818 195.502 114.818 196.022 114.818 196.218V218.318C114.818 218.437 114.769 218.553 114.678 218.641C114.31 219.007 112.969 219.042 112.476 219.042ZM99.004 218.075C99.2131 218.142 99.726 218.235 100.548 218.24L112.419 218.311C113.275 218.307 113.856 218.222 114.088 218.148V196.388C113.878 196.321 113.355 196.226 112.522 196.223L100.53 196.179C99.7064 196.174 99.1167 196.27 98.8864 196.344L99.004 218.075ZM98.8848 196.171V196.172C98.8848 196.172 98.8848 196.172 98.8848 196.171Z" fill="#2573EF"/>
<path d="M91.6223 216.854L79.751 216.782C78.6909 216.776 77.8481 216.617 77.8465 216.423L77.7256 194.351C77.724 194.15 78.6305 193.986 79.7363 193.991L91.7285 194.035C92.8016 194.039 93.6591 194.199 93.6591 194.395V216.495C93.6591 216.697 92.7363 216.861 91.6223 216.854Z" fill="white"/>
<path d="M152.517 227.58C152.509 227.58 152.501 227.58 152.494 227.58L33.0523 220.012C32.0886 219.948 31.3258 219.142 31.3176 218.177L30.6006 145.985C30.599 145.785 30.7607 145.619 30.9616 145.616C30.9632 145.616 30.9632 145.616 30.9648 145.616C31.1641 145.616 31.3274 145.778 31.3291 145.977L32.0461 218.169C32.051 218.755 32.5133 219.244 33.098 219.283L152.538 226.851C152.739 226.864 152.893 227.037 152.88 227.238C152.868 227.431 152.708 227.58 152.517 227.58Z" fill="#2573EF"/>
<path d="M258.066 156.96C257.865 156.96 257.702 156.797 257.702 156.596V85.2457C257.702 83.4027 256.261 81.8832 254.42 81.7868L118.388 74.5242C118.187 74.5128 118.032 74.3412 118.044 74.1403C118.055 73.9393 118.231 73.7841 118.427 73.7955L254.46 81.0581C256.686 81.1757 258.432 83.0155 258.432 85.2457V156.594C258.43 156.797 258.267 156.96 258.066 156.96Z" fill="#2573EF"/>
<path d="M99.1663 73.4966C99.1597 73.4966 99.1532 73.4966 99.1467 73.4966L91.2183 73.0734C91.0174 73.062 90.8622 72.8904 90.8736 72.6894C90.8851 72.4885 91.0615 72.33 91.2575 72.3447L99.1859 72.7679C99.3868 72.7793 99.542 72.9509 99.5305 73.1518C99.5191 73.3463 99.359 73.4966 99.1663 73.4966Z" fill="#2573EF"/>
<path d="M30.9648 136.643C30.7623 136.643 30.599 136.478 30.6006 136.277L30.826 73.1241C30.826 73.1111 30.826 73.0996 30.8276 73.0866C31.0661 70.8678 32.9968 69.2306 35.223 69.3466L41.3074 69.6783L59.8233 70.6668C60.0242 70.6782 60.1793 70.8498 60.1679 71.0508C60.1565 71.2517 59.985 71.4053 59.7841 71.3955L35.1822 70.0753C33.3496 69.9773 31.7587 71.3236 31.5529 73.147L31.3274 136.28C31.3291 136.479 31.1657 136.643 30.9648 136.643Z" fill="#2573EF"/>
<path d="M263.557 164.423H235.762V253.43H263.557V164.423Z" fill="#131319"/>
<path d="M263.557 253.796H235.762C235.561 253.796 235.397 253.633 235.397 253.432V164.425C235.397 164.224 235.561 164.061 235.762 164.061H263.557C263.758 164.061 263.921 164.224 263.921 164.425V253.432C263.921 253.633 263.758 253.796 263.557 253.796ZM236.126 253.066H263.191V164.789H236.126V253.066Z" fill="#2573EF"/>
<path d="M235.783 253.43H223.388V172.426L235.783 164.423V253.43Z" fill="#131319"/>
<path d="M235.783 253.796H223.388C223.187 253.796 223.023 253.633 223.023 253.432V172.428C223.023 172.303 223.087 172.187 223.19 172.12L235.586 164.118C235.697 164.044 235.841 164.039 235.958 164.103C236.076 164.167 236.148 164.289 236.148 164.423V253.43C236.148 253.633 235.984 253.796 235.783 253.796ZM223.754 253.066H235.419V165.093L223.754 172.625V253.066Z" fill="#2573EF"/>
<path d="M243.896 246.707H239.074C238.873 246.707 238.71 246.544 238.71 246.343V170.619C238.71 170.418 238.873 170.255 239.074 170.255H243.896C244.097 170.255 244.26 170.418 244.26 170.619V246.343C244.26 246.544 244.098 246.707 243.896 246.707ZM239.44 245.979H243.532V170.985H239.44V245.979Z" fill="#2573EF"/>
<path d="M252.07 246.707H247.248C247.047 246.707 246.884 246.544 246.884 246.343V170.619C246.884 170.418 247.047 170.255 247.248 170.255H252.07C252.271 170.255 252.434 170.418 252.434 170.619V246.343C252.436 246.544 252.272 246.707 252.07 246.707ZM247.614 245.979H251.706V170.985H247.614V245.979Z" fill="#2573EF"/>
<path d="M260.243 246.707H255.421C255.22 246.707 255.057 246.544 255.057 246.343V170.619C255.057 170.418 255.22 170.255 255.421 170.255H260.243C260.444 170.255 260.607 170.418 260.607 170.619V246.343C260.608 246.544 260.445 246.707 260.243 246.707ZM255.787 245.979H259.878V170.985H255.787V245.979Z" fill="#2573EF"/>
<path d="M223.885 138.197H206.511V203.44H223.885V138.197Z" fill="#131319"/>
<path d="M223.885 203.804H206.511C206.31 203.804 206.146 203.641 206.146 203.44V138.197C206.146 137.996 206.31 137.833 206.511 137.833H223.885C224.086 137.833 224.249 137.996 224.249 138.197V203.44C224.251 203.641 224.087 203.804 223.885 203.804ZM206.875 203.075H223.519V138.562H206.875V203.075Z" fill="#2573EF"/>
<path d="M220.555 146.345H210.162C209.961 146.345 209.798 146.182 209.798 145.981V141.511C209.798 141.31 209.961 141.146 210.162 141.146H220.555C220.756 141.146 220.92 141.31 220.92 141.511V145.981C220.921 146.182 220.758 146.345 220.555 146.345ZM210.528 145.615H220.191V141.875H210.528V145.615Z" fill="#2573EF"/>
<path d="M206.524 203.44H198.775V143.2L206.524 138.197V203.44Z" fill="#131319"/>
<path d="M206.524 203.805H198.775C198.574 203.805 198.411 203.641 198.411 203.44V143.201C198.411 143.076 198.475 142.96 198.578 142.893L206.326 137.891C206.438 137.819 206.581 137.812 206.699 137.876C206.816 137.94 206.888 138.062 206.888 138.196V203.439C206.89 203.641 206.727 203.805 206.524 203.805ZM199.141 203.076H206.16V138.868L199.141 143.398V203.076Z" fill="#2573EF"/>
<path d="M231.414 149.06H203.619V253.432H231.414V149.06Z" fill="#131319"/>
<path d="M231.414 253.796H203.619C203.418 253.796 203.255 253.633 203.255 253.432V149.058C203.255 148.857 203.418 148.693 203.619 148.693H231.414C231.615 148.693 231.778 148.857 231.778 149.058V253.43C231.78 253.633 231.617 253.796 231.414 253.796ZM203.985 253.066H231.05V149.424H203.985V253.066Z" fill="#2573EF"/>
<path d="M203.641 253.43H191.245V157.062L203.641 149.06V253.43Z" fill="#131319"/>
<path d="M203.641 253.797H191.245C191.044 253.797 190.881 253.633 190.881 253.432V157.063C190.881 156.939 190.943 156.823 191.047 156.756L203.443 148.753C203.554 148.681 203.698 148.674 203.816 148.738C203.933 148.802 204.005 148.924 204.005 149.058V253.431C204.007 253.633 203.843 253.797 203.641 253.797ZM191.611 253.066H203.277V149.73L191.611 157.262V253.066Z" fill="#2573EF"/>
<path d="M227.103 159.231H207.275C207.074 159.231 206.911 159.067 206.911 158.866V154.322C206.911 154.121 207.074 153.958 207.275 153.958H227.103C227.304 153.958 227.467 154.121 227.467 154.322V158.866C227.467 159.067 227.304 159.231 227.103 159.231ZM207.64 158.5H226.739V154.687H207.64V158.5Z" fill="#2573EF"/>
<path d="M227.103 168.666H207.275C207.074 168.666 206.911 168.503 206.911 168.302V163.758C206.911 163.557 207.074 163.394 207.275 163.394H227.103C227.304 163.394 227.467 163.557 227.467 163.758V168.302C227.467 168.503 227.304 168.666 227.103 168.666ZM207.64 167.936H226.739V164.122H207.64V167.936Z" fill="#2573EF"/>
<path d="M227.103 178.102H207.275C207.074 178.102 206.911 177.938 206.911 177.737V173.193C206.911 172.992 207.074 172.829 207.275 172.829H227.103C227.304 172.829 227.467 172.992 227.467 173.193V177.737C227.467 177.938 227.304 178.102 227.103 178.102ZM207.64 177.371H226.739V173.558H207.64V177.371Z" fill="#2573EF"/>
<path d="M227.103 187.537H207.275C207.074 187.537 206.911 187.374 206.911 187.173V182.629C206.911 182.428 207.074 182.265 207.275 182.265H227.103C227.304 182.265 227.467 182.428 227.467 182.629V187.173C227.467 187.374 227.304 187.537 227.103 187.537ZM207.64 186.807H226.739V182.993H207.64V186.807Z" fill="#2573EF"/>
<path d="M227.103 196.973H207.275C207.074 196.973 206.911 196.809 206.911 196.608V192.065C206.911 191.864 207.074 191.7 207.275 191.7H227.103C227.304 191.7 227.467 191.864 227.467 192.065V196.608C227.467 196.809 227.304 196.973 227.103 196.973ZM207.64 196.242H226.739V192.429H207.64V196.242Z" fill="#2573EF"/>
<path d="M227.103 206.409H207.275C207.074 206.409 206.911 206.246 206.911 206.045V201.501C206.911 201.3 207.074 201.137 207.275 201.137H227.103C227.304 201.137 227.467 201.3 227.467 201.501V206.045C227.467 206.246 227.304 206.409 227.103 206.409ZM207.64 205.679H226.739V201.865H207.64V205.679Z" fill="#2573EF"/>
<path d="M227.103 215.845H207.275C207.074 215.845 206.911 215.681 206.911 215.48V210.937C206.911 210.736 207.074 210.572 207.275 210.572H227.103C227.304 210.572 227.467 210.736 227.467 210.937V215.48C227.467 215.681 227.304 215.845 227.103 215.845ZM207.64 215.114H226.739V211.301H207.64V215.114Z" fill="#2573EF"/>
<path d="M227.103 225.28H207.275C207.074 225.28 206.911 225.117 206.911 224.916V220.372C206.911 220.171 207.074 220.008 207.275 220.008H227.103C227.304 220.008 227.467 220.171 227.467 220.372V224.916C227.467 225.117 227.304 225.28 227.103 225.28ZM207.64 224.55H226.739V220.737H207.64V224.55Z" fill="#2573EF"/>
<path d="M227.103 234.716H207.275C207.074 234.716 206.911 234.552 206.911 234.352V229.808C206.911 229.607 207.074 229.443 207.275 229.443H227.103C227.304 229.443 227.467 229.607 227.467 229.808V234.352C227.467 234.552 227.304 234.716 227.103 234.716ZM207.64 233.986H226.739V230.172H207.64V233.986Z" fill="#2573EF"/>
<path d="M227.103 244.151H207.275C207.074 244.151 206.911 243.988 206.911 243.787V239.243C206.911 239.042 207.074 238.879 207.275 238.879H227.103C227.304 238.879 227.467 239.042 227.467 239.243V243.787C227.467 243.988 227.304 244.151 227.103 244.151ZM207.64 243.421H226.739V239.608H207.64V243.421Z" fill="#2573EF"/>
<path d="M197.646 179.007H169.851V253.432H197.646V179.007Z" fill="#131319"/>
<path d="M197.646 253.796H169.851C169.65 253.796 169.486 253.633 169.486 253.432V179.007C169.486 178.806 169.65 178.643 169.851 178.643H197.646C197.847 178.643 198.01 178.806 198.01 179.007V253.432C198.01 253.633 197.847 253.796 197.646 253.796ZM170.215 253.066H197.28V179.371H170.215V253.066Z" fill="#2573EF"/>
<path d="M169.872 253.43H157.477V187.01L169.872 179.007V253.43Z" fill="#131319"/>
<path d="M169.872 253.796H157.477C157.276 253.796 157.112 253.633 157.112 253.432V187.01C157.112 186.885 157.176 186.769 157.279 186.702L169.675 178.7C169.786 178.626 169.929 178.621 170.047 178.685C170.165 178.749 170.236 178.871 170.236 179.005V253.43C170.236 253.633 170.073 253.796 169.872 253.796ZM157.841 253.066H169.506V179.677L157.841 187.209V253.066Z" fill="#2573EF"/>
<path d="M177.985 195.211H173.163C172.962 195.211 172.799 195.048 172.799 194.847V185.202C172.799 185.001 172.962 184.838 173.163 184.838H177.985C178.186 184.838 178.349 185.001 178.349 185.202V194.847C178.349 195.048 178.186 195.211 177.985 195.211ZM173.529 194.481H177.621V185.567H173.529V194.481Z" fill="#2573EF"/>
<path d="M186.159 195.211H181.337C181.136 195.211 180.973 195.048 180.973 194.847V185.202C180.973 185.001 181.136 184.838 181.337 184.838H186.159C186.36 184.838 186.523 185.001 186.523 185.202V194.847C186.523 195.048 186.36 195.211 186.159 195.211ZM181.703 194.481H185.794V185.567H181.703V194.481Z" fill="#2573EF"/>
<path d="M194.331 195.211H189.51C189.309 195.211 189.146 195.048 189.146 194.847V185.202C189.146 185.001 189.309 184.838 189.51 184.838H194.331C194.532 184.838 194.696 185.001 194.696 185.202V194.847C194.697 195.048 194.534 195.211 194.331 195.211ZM189.876 194.481H193.967V185.567H189.876V194.481Z" fill="#2573EF"/>
<path d="M177.985 211.106H173.163C172.962 211.106 172.799 210.943 172.799 210.742V201.097C172.799 200.896 172.962 200.732 173.163 200.732H177.985C178.186 200.732 178.349 200.896 178.349 201.097V210.742C178.349 210.943 178.186 211.106 177.985 211.106ZM173.529 210.376H177.621V201.461H173.529V210.376Z" fill="#2573EF"/>
<path d="M186.159 211.106H181.337C181.136 211.106 180.973 210.943 180.973 210.742V201.097C180.973 200.896 181.136 200.732 181.337 200.732H186.159C186.36 200.732 186.523 200.896 186.523 201.097V210.742C186.523 210.943 186.36 211.106 186.159 211.106ZM181.703 210.376H185.794V201.461H181.703V210.376Z" fill="#2573EF"/>
<path d="M194.331 211.106H189.51C189.309 211.106 189.146 210.943 189.146 210.742V201.097C189.146 200.896 189.309 200.732 189.51 200.732H194.331C194.532 200.732 194.696 200.896 194.696 201.097V210.742C194.697 210.943 194.534 211.106 194.331 211.106ZM189.876 210.376H193.967V201.461H189.876V210.376Z" fill="#2573EF"/>
<path d="M177.985 227H173.163C172.962 227 172.799 226.837 172.799 226.636V216.991C172.799 216.79 172.962 216.627 173.163 216.627H177.985C178.186 216.627 178.349 216.79 178.349 216.991V226.636C178.349 226.837 178.186 227 177.985 227ZM173.529 226.27H177.621V217.356H173.529V226.27Z" fill="#2573EF"/>
<path d="M186.159 227H181.337C181.136 227 180.973 226.837 180.973 226.636V216.991C180.973 216.79 181.136 216.627 181.337 216.627H186.159C186.36 216.627 186.523 216.79 186.523 216.991V226.636C186.523 226.837 186.36 227 186.159 227ZM181.703 226.27H185.794V217.356H181.703V226.27Z" fill="#2573EF"/>
<path d="M194.331 227H189.51C189.309 227 189.146 226.837 189.146 226.636V216.991C189.146 216.79 189.309 216.627 189.51 216.627H194.331C194.532 216.627 194.696 216.79 194.696 216.991V226.636C194.697 226.837 194.534 227 194.331 227ZM189.876 226.27H193.967V217.356H189.876V226.27Z" fill="#2573EF"/>
<path d="M177.985 242.895H173.163C172.962 242.895 172.799 242.732 172.799 242.531V232.886C172.799 232.685 172.962 232.521 173.163 232.521H177.985C178.186 232.521 178.349 232.685 178.349 232.886V242.531C178.349 242.732 178.186 242.895 177.985 242.895ZM173.529 242.165H177.621V233.25H173.529V242.165Z" fill="#2573EF"/>
<path d="M186.159 242.895H181.337C181.136 242.895 180.973 242.732 180.973 242.531V232.886C180.973 232.685 181.136 232.521 181.337 232.521H186.159C186.36 232.521 186.523 232.685 186.523 232.886V242.531C186.523 242.732 186.36 242.895 186.159 242.895ZM181.703 242.165H185.794V233.25H181.703V242.165Z" fill="#2573EF"/>
<path d="M194.331 242.895H189.51C189.309 242.895 189.146 242.732 189.146 242.531V232.886C189.146 232.685 189.309 232.521 189.51 232.521H194.331C194.532 232.521 194.696 232.685 194.696 232.886V242.531C194.697 242.732 194.534 242.895 194.331 242.895ZM189.876 242.165H193.967V233.25H189.876V242.165Z" fill="#2573EF"/>
<path d="M282.547 277.209L282.553 284.767C282.557 287.058 279.906 289.354 274.577 291.131C263.923 294.683 246.537 294.834 235.399 291.512C235.216 291.458 235.037 291.403 234.857 291.345C229.214 289.571 226.38 287.212 226.377 284.846L226.37 277.287C226.373 279.653 229.207 282.013 234.851 283.787C235.03 283.844 235.21 283.898 235.393 283.954C246.531 287.275 263.916 287.125 274.571 283.573C279.899 281.795 282.55 279.5 282.547 277.209Z" fill="#2573EF"/>
<path d="M273.521 270.543C273.706 270.598 273.885 270.652 274.065 270.709C285.173 274.202 285.4 279.96 274.571 283.571C263.917 287.123 246.531 287.273 235.393 283.952C235.21 283.898 235.031 283.842 234.851 283.785C223.744 280.292 223.517 274.534 234.346 270.923C244.999 267.371 262.383 267.221 273.521 270.543Z" fill="white"/>
<path d="M254.352 286.728C247.54 286.728 240.726 285.924 235.29 284.301C235.106 284.246 234.924 284.19 234.743 284.133C229.132 282.369 226.029 279.946 226.006 277.31C225.983 274.743 228.905 272.353 234.23 270.577C245.002 266.986 262.306 266.816 273.625 270.193C273.812 270.248 273.993 270.304 274.174 270.361C279.786 272.126 282.888 274.549 282.911 277.184C282.934 279.751 280.012 282.141 274.687 283.917C269.088 285.785 261.721 286.728 254.352 286.728ZM254.592 268.536C247.25 268.536 239.909 269.453 234.462 271.27C229.532 272.913 226.717 275.113 226.736 277.305C226.756 279.565 229.753 281.8 234.962 283.439C235.14 283.494 235.318 283.55 235.499 283.604C246.51 286.888 263.985 286.718 274.458 283.226C279.388 281.583 282.202 279.383 282.184 277.191C282.165 274.931 279.166 272.696 273.957 271.057C273.779 271.002 273.599 270.946 273.418 270.892C268.134 269.317 261.362 268.536 254.592 268.536Z" fill="#2573EF"/>
<path d="M284.102 266.726L284.109 274.284C284.112 276.575 281.461 278.87 276.133 280.648C265.479 284.2 248.093 284.35 236.955 281.029C236.772 280.975 236.592 280.919 236.413 280.862C230.769 279.088 227.936 276.728 227.932 274.362L227.926 266.804C227.929 269.17 230.763 271.529 236.406 273.304C236.586 273.361 236.766 273.415 236.949 273.47C248.087 276.792 265.472 276.642 276.127 273.09C281.453 271.314 284.106 269.016 284.102 266.726Z" fill="#2573EF"/>
<path d="M275.075 260.06C275.259 260.115 275.439 260.169 275.619 260.226C286.727 263.719 286.954 269.477 276.125 273.088C265.47 276.64 248.085 276.79 236.947 273.469C236.764 273.415 236.584 273.359 236.405 273.302C225.298 269.809 225.071 264.051 235.9 260.44C246.553 256.89 263.938 256.738 275.075 260.06Z" fill="white"/>
<path d="M255.905 276.245C249.094 276.245 242.281 275.441 236.844 273.819C236.659 273.763 236.476 273.708 236.295 273.65C230.684 271.886 227.583 269.463 227.56 266.827C227.537 264.261 230.459 261.87 235.784 260.092C246.554 256.501 263.858 256.331 275.179 259.709C275.365 259.764 275.547 259.82 275.728 259.877C281.34 261.641 284.444 264.064 284.466 266.7C284.489 269.267 281.567 271.657 276.242 273.435C270.643 275.302 263.277 276.245 255.905 276.245ZM256.145 258.055C248.803 258.055 241.463 258.972 236.016 260.789C231.086 262.432 228.27 264.633 228.29 266.824C228.309 269.084 231.307 271.319 236.516 272.956C236.694 273.012 236.873 273.067 237.053 273.121C248.062 276.405 265.541 276.235 276.012 272.744C280.942 271.1 283.758 268.899 283.738 266.708C283.718 264.448 280.719 262.213 275.511 260.574C275.333 260.519 275.153 260.463 274.972 260.409C269.689 258.834 262.916 258.055 256.145 258.055Z" fill="#2573EF"/>
<path d="M279.65 256.162L279.657 263.72C279.66 266.011 277.009 268.307 271.681 270.084C261.027 273.636 243.641 273.787 232.503 270.465C232.32 270.411 232.14 270.356 231.961 270.298C226.317 268.524 223.483 266.165 223.48 263.799L223.474 256.241C223.477 258.606 226.311 260.966 231.954 262.74C232.134 262.797 232.313 262.851 232.496 262.907C243.634 266.228 261.02 266.078 271.674 262.526C277.003 260.748 279.653 258.453 279.65 256.162Z" fill="#2573EF"/>
<path d="M270.624 249.497C270.809 249.552 270.989 249.606 271.168 249.663C282.277 253.157 282.504 258.914 271.675 262.525C261.02 266.077 243.635 266.228 232.497 262.906C232.314 262.852 232.134 262.796 231.954 262.739C220.847 259.246 220.62 253.488 231.45 249.877C242.101 246.325 259.486 246.175 270.624 249.497Z" fill="white"/>
<path d="M251.453 265.682C244.642 265.682 237.829 264.878 232.392 263.255C232.207 263.2 232.024 263.144 231.843 263.087C226.232 261.322 223.13 258.899 223.108 256.264C223.085 253.697 226.007 251.307 231.332 249.529C242.102 245.938 259.406 245.768 270.727 249.145C270.913 249.201 271.094 249.256 271.276 249.313C276.888 251.078 279.99 253.501 280.013 256.136C280.035 258.703 277.113 261.094 271.789 262.87C266.191 264.739 258.825 265.682 251.453 265.682ZM251.693 247.49C244.351 247.49 237.011 248.407 231.564 250.223C226.634 251.867 223.818 254.068 223.838 256.259C223.857 258.519 226.855 260.754 232.063 262.391C232.241 262.446 232.419 262.502 232.601 262.556C243.611 265.84 261.087 265.672 271.56 262.179C276.489 260.535 279.304 258.336 279.286 256.143C279.266 253.883 276.267 251.648 271.058 250.009C270.88 249.954 270.701 249.898 270.519 249.844C265.237 248.271 258.465 247.49 251.693 247.49Z" fill="#2573EF"/>
<path d="M285.169 247.459L285.175 255.017C285.179 257.308 282.528 259.604 277.2 261.381C266.545 264.933 249.159 265.084 238.021 261.762C237.839 261.708 237.659 261.652 237.479 261.595C231.836 259.821 229.002 257.462 228.999 255.096L228.992 247.537C228.995 249.903 231.829 252.263 237.473 254.037C237.652 254.094 237.832 254.148 238.015 254.204C249.153 257.525 266.539 257.375 277.193 253.823C282.519 252.047 285.172 249.75 285.169 247.459Z" fill="#2573EF"/>
<path d="M276.141 240.794C276.326 240.85 276.505 240.904 276.685 240.961C287.794 244.454 288.021 250.212 277.191 253.823C266.537 257.375 249.151 257.525 238.013 254.204C237.83 254.15 237.651 254.094 237.471 254.037C226.364 250.544 226.137 244.786 236.966 241.175C247.619 237.623 265.005 237.473 276.141 240.794Z" fill="white"/>
<path d="M256.972 256.978C250.161 256.978 243.346 256.175 237.91 254.552C237.726 254.497 237.543 254.441 237.361 254.384C231.751 252.619 228.649 250.196 228.626 247.561C228.603 244.994 231.525 242.604 236.85 240.826C247.621 237.235 264.926 237.065 276.245 240.442C276.432 240.497 276.613 240.553 276.794 240.61C282.407 242.375 285.508 244.798 285.531 247.433C285.554 250 282.632 252.39 277.307 254.167C271.71 256.037 264.343 256.978 256.972 256.978ZM257.212 238.788C249.87 238.788 242.529 239.705 237.082 241.522C232.153 243.166 229.337 245.366 229.356 247.557C229.376 249.817 232.373 252.052 237.582 253.689C237.76 253.745 237.938 253.801 238.119 253.854C249.13 257.139 266.605 256.969 277.078 253.477C282.006 251.833 284.822 249.634 284.804 247.441C284.785 245.182 281.786 242.945 276.577 241.308C276.399 241.252 276.219 241.197 276.038 241.143C270.756 239.568 263.984 238.788 257.212 238.788Z" fill="#2573EF"/>
<path d="M278.64 238.84L278.647 246.398C278.65 248.689 275.999 250.984 270.671 252.762C260.017 256.314 242.631 256.464 231.493 253.143C231.31 253.089 231.131 253.033 230.951 252.976C225.308 251.202 222.474 248.842 222.47 246.477L222.464 238.918C222.467 241.284 225.301 243.643 230.944 245.418C231.124 245.475 231.304 245.529 231.487 245.584C242.625 248.906 260.01 248.756 270.665 245.204C275.993 243.426 278.644 241.129 278.64 238.84Z" fill="#2573EF"/>
<path d="M269.615 232.174C269.799 232.23 269.979 232.284 270.159 232.341C281.267 235.834 281.494 241.592 270.665 245.203C260.01 248.755 242.625 248.905 231.487 245.584C231.304 245.53 231.124 245.474 230.945 245.417C219.838 241.924 219.611 236.166 230.44 232.555C241.093 229.003 258.477 228.853 269.615 232.174Z" fill="white"/>
<path d="M250.443 248.358C243.632 248.358 236.819 247.554 231.382 245.933C231.197 245.877 231.016 245.822 230.835 245.765C225.224 244 222.121 241.577 222.098 238.942C222.075 236.375 224.997 233.983 230.322 232.207C241.092 228.615 258.398 228.446 269.717 231.823C269.903 231.878 270.085 231.934 270.268 231.991C275.878 233.756 278.982 236.179 279.005 238.814C279.027 241.381 276.105 243.771 270.78 245.547C265.183 247.417 257.816 248.358 250.443 248.358ZM250.685 230.168C243.343 230.168 236.003 231.084 230.555 232.901C225.626 234.545 222.81 236.744 222.83 238.937C222.849 241.196 225.846 243.432 231.055 245.07C231.233 245.126 231.411 245.181 231.593 245.235C242.603 248.519 260.079 248.349 270.552 244.858C275.481 243.214 278.296 241.015 278.278 238.822C278.258 236.563 275.259 234.328 270.05 232.689C269.872 232.632 269.693 232.578 269.511 232.524C264.227 230.949 257.455 230.168 250.685 230.168Z" fill="#2573EF"/>
<path d="M283.395 229.124L283.402 236.682C283.405 238.973 280.754 241.269 275.426 243.046C264.772 246.598 247.386 246.749 236.248 243.427C236.065 243.373 235.885 243.318 235.706 243.26C230.062 241.486 227.229 239.127 227.225 236.761L227.219 229.202C227.222 231.568 230.056 233.928 235.699 235.702C235.879 235.759 236.059 235.813 236.242 235.869C247.379 239.19 264.765 239.04 275.42 235.488C280.746 233.71 283.399 231.415 283.395 229.124Z" fill="#2573EF"/>
<path d="M274.368 222.458C274.552 222.513 274.732 222.567 274.912 222.624C286.02 226.117 286.247 231.875 275.418 235.486C264.763 239.038 247.378 239.188 236.24 235.867C236.057 235.813 235.877 235.757 235.698 235.7C224.591 232.207 224.364 226.449 235.193 222.838C245.846 219.286 263.231 219.136 274.368 222.458Z" fill="white"/>
<path d="M255.198 238.643C248.387 238.643 241.574 237.839 236.137 236.218C235.952 236.163 235.769 236.107 235.588 236.05C229.977 234.285 226.876 231.862 226.853 229.227C226.83 226.66 229.752 224.268 235.077 222.492C245.849 218.901 263.153 218.731 274.472 222.108C274.658 222.164 274.84 222.219 275.021 222.276C280.633 224.041 283.735 226.464 283.758 229.099C283.781 231.666 280.859 234.057 275.534 235.833C269.935 237.7 262.568 238.643 255.198 238.643ZM255.438 220.451C248.096 220.451 240.756 221.368 235.309 223.185C230.379 224.828 227.563 227.029 227.583 229.22C227.602 231.48 230.6 233.715 235.808 235.354C235.986 235.409 236.166 235.465 236.347 235.519C247.356 238.803 264.834 238.633 275.305 235.141C280.235 233.498 283.049 231.299 283.031 229.106C283.011 226.846 280.012 224.611 274.804 222.972C274.626 222.917 274.446 222.861 274.265 222.807C268.982 221.232 262.209 220.451 255.438 220.451Z" fill="#2573EF"/>
<path d="M262.199 223.81L260.851 224.988C262.07 225.147 262.989 225.33 263.701 225.519C264.195 225.652 264.588 225.787 264.915 225.921L262.27 227.336C261.931 227.214 261.47 227.029 260.786 226.844C260.157 226.676 259.34 226.509 258.256 226.392C256.209 226.171 255.12 226.475 254.69 226.849C254.185 227.29 254.966 227.691 257.153 228.408C260.258 229.374 260.928 230.272 259.548 231.478C258.185 232.669 255.038 233.473 251.108 233.349L249.545 234.715L246.459 234.381L247.915 233.11C246.752 232.96 245.682 232.748 244.815 232.515C244.143 232.336 243.594 232.143 243.219 231.958L245.956 230.494C246.443 230.72 247.07 230.954 247.833 231.158C248.594 231.362 249.489 231.537 250.512 231.646C252.307 231.839 253.872 231.677 254.486 231.141C255.067 230.633 254.425 230.204 252.48 229.619C249.661 228.774 248.129 227.856 249.613 226.558C250.963 225.38 253.971 224.668 257.663 224.75L259.118 223.479L262.199 223.81Z" fill="#2573EF"/>
<path d="M87.1247 37.0267C87.0561 37.0267 86.9875 37.0071 86.9254 36.9679C86.7572 36.8568 86.7098 36.6313 86.8209 36.463L87.8842 34.839C87.9953 34.6707 88.2207 34.6233 88.3889 34.7328C88.5571 34.8439 88.6045 35.0693 88.4934 35.2376L87.4301 36.8617C87.3599 36.9679 87.2439 37.0267 87.1247 37.0267Z" fill="#2573EF"/>
<path d="M83.403 42.7093C83.3344 42.7093 83.2658 42.6897 83.2037 42.6505C83.0355 42.5394 82.9881 42.3139 83.0992 42.1457L84.1625 40.5216C84.2736 40.3533 84.499 40.3059 84.6672 40.4154C84.8355 40.5265 84.8828 40.752 84.7718 40.9202L83.7084 42.5443C83.6398 42.6522 83.5222 42.7093 83.403 42.7093Z" fill="#2573EF"/>
<path d="M83.8142 37.7192C83.744 37.7192 83.6738 37.6996 83.6101 37.6571L82.0257 36.5869C81.8591 36.4742 81.815 36.2471 81.9277 36.0804C82.0404 35.9138 82.2674 35.8697 82.434 35.9824L84.0184 37.0526C84.185 37.1653 84.2291 37.3924 84.1164 37.5591C84.0462 37.662 83.9318 37.7192 83.8142 37.7192Z" fill="#2573EF"/>
<path d="M89.3631 41.4624C89.2928 41.4624 89.2226 41.4428 89.1589 41.4003L87.5745 40.3301C87.4079 40.2174 87.3638 39.9902 87.4765 39.8236C87.5892 39.6569 87.8162 39.6128 87.9829 39.7256L89.5672 40.7957C89.7338 40.9085 89.7779 41.1356 89.6652 41.3022C89.595 41.4068 89.479 41.4624 89.3631 41.4624Z" fill="#2573EF"/>
<path d="M287.78 147.993C287.723 147.993 287.664 147.98 287.611 147.95C287.433 147.856 287.364 147.635 287.459 147.457L288.367 145.741C288.462 145.563 288.682 145.495 288.86 145.59C289.038 145.684 289.107 145.905 289.012 146.083L288.104 147.799C288.037 147.923 287.911 147.993 287.78 147.993Z" fill="#2573EF"/>
<path d="M284.602 153.996C284.545 153.996 284.486 153.983 284.432 153.953C284.254 153.859 284.185 153.638 284.28 153.46L285.188 151.744C285.283 151.566 285.503 151.498 285.681 151.592C285.859 151.687 285.928 151.908 285.833 152.086L284.925 153.801C284.858 153.926 284.732 153.996 284.602 153.996Z" fill="#2573EF"/>
<path d="M284.548 148.989C284.489 148.989 284.429 148.974 284.373 148.945L282.696 148.027C282.519 147.93 282.454 147.708 282.55 147.532C282.647 147.355 282.869 147.29 283.045 147.386L284.723 148.305C284.899 148.401 284.965 148.623 284.868 148.8C284.803 148.921 284.677 148.989 284.548 148.989Z" fill="#2573EF"/>
<path d="M290.418 152.202C290.359 152.202 290.299 152.187 290.243 152.158L288.566 151.24C288.389 151.143 288.324 150.921 288.42 150.745C288.517 150.568 288.739 150.503 288.915 150.599L290.593 151.517C290.769 151.614 290.835 151.836 290.738 152.013C290.673 152.135 290.547 152.202 290.418 152.202Z" fill="#2573EF"/>
<path d="M102.766 31.1432C102.217 31.1432 101.669 31.0338 101.147 30.8132C100.092 30.3688 99.2756 29.529 98.8477 28.4522C97.9722 26.2514 99.0175 23.7319 101.177 22.8349C102.216 22.4036 103.359 22.4069 104.395 22.8431C105.45 23.2875 106.266 24.1273 106.694 25.2041C107.57 27.4049 106.525 29.9244 104.365 30.8214C103.849 31.0354 103.307 31.1432 102.766 31.1432ZM102.774 23.2434C102.327 23.2434 101.881 23.3316 101.455 23.5081C99.6611 24.2532 98.7954 26.3494 99.5239 28.181C99.88 29.0747 100.556 29.7708 101.43 30.14C102.284 30.5011 103.227 30.5027 104.084 30.1466C105.878 29.4015 106.743 27.3052 106.015 25.4737C105.659 24.5783 104.983 23.8839 104.11 23.5146C103.681 23.3349 103.228 23.2434 102.774 23.2434Z" fill="#2573EF"/>
<path d="M295.767 138.465C295.704 138.465 295.638 138.463 295.573 138.46C294.469 138.409 293.456 137.927 292.718 137.105C291.966 136.269 291.592 135.182 291.663 134.045C291.805 131.725 293.789 129.929 296.079 130.03C297.183 130.081 298.196 130.563 298.934 131.385C299.686 132.221 300.06 133.308 299.99 134.445C299.852 136.7 297.977 138.465 295.767 138.465ZM295.887 130.758C294.059 130.758 292.507 132.221 292.391 134.092C292.334 135.032 292.643 135.93 293.262 136.62C293.868 137.295 294.701 137.69 295.607 137.733C297.504 137.826 299.144 136.327 299.263 134.403C299.32 133.463 299.011 132.565 298.392 131.875C297.786 131.2 296.953 130.805 296.047 130.762C295.993 130.759 295.939 130.758 295.887 130.758Z" fill="#2573EF"/>
<path d="M171.299 47.8587C170.953 47.8587 170.607 47.7934 170.273 47.6643C169.553 47.3833 168.986 46.831 168.678 46.1121C168.047 44.6433 168.707 42.9244 170.148 42.279C170.842 41.9686 171.616 41.949 172.323 42.2251C173.044 42.5061 173.61 43.0584 173.921 43.7773C174.551 45.2462 173.891 46.965 172.451 47.6104C172.082 47.7754 171.691 47.8587 171.299 47.8587ZM171.299 42.761C171.008 42.761 170.719 42.8231 170.447 42.944C169.367 43.4277 168.874 44.7184 169.349 45.8229C169.581 46.3621 170.004 46.7738 170.54 46.983C171.064 47.1888 171.637 47.1741 172.152 46.9438C173.231 46.4618 173.725 45.1694 173.249 44.0649C173.017 43.5257 172.594 43.1139 172.057 42.9048C171.812 42.8084 171.556 42.761 171.299 42.761Z" fill="#2573EF"/>
<path d="M197.554 2.9748C197.436 2.9748 197.322 2.91925 197.252 2.81305C197.139 2.64639 197.183 2.41928 197.35 2.30654L198.959 1.22165C199.125 1.10891 199.352 1.15302 199.465 1.31968C199.578 1.48634 199.534 1.71344 199.367 1.82618L197.758 2.91108C197.696 2.95519 197.624 2.9748 197.554 2.9748Z" fill="#2573EF"/>
<path d="M191.922 6.7707C191.805 6.7707 191.69 6.71515 191.62 6.60894C191.507 6.44229 191.551 6.21518 191.718 6.10244L193.327 5.01755C193.494 4.90481 193.721 4.94892 193.833 5.11558C193.946 5.28223 193.902 5.50934 193.735 5.62208L192.126 6.70698C192.063 6.75109 191.992 6.7707 191.922 6.7707Z" fill="#2573EF"/>
<path d="M194.235 2.32946C194.116 2.32946 194 2.27064 193.929 2.16444L192.882 0.563235C192.771 0.394945 192.819 0.16947 192.988 0.0583661C193.157 -0.0511039 193.384 -0.00535525 193.493 0.164568L194.54 1.76577C194.651 1.93406 194.604 2.15954 194.434 2.27064C194.372 2.30985 194.303 2.32946 194.235 2.32946Z" fill="#2573EF"/>
<path d="M197.897 7.932C197.778 7.932 197.662 7.87318 197.591 7.76698L196.544 6.16577C196.433 5.99748 196.481 5.77201 196.651 5.66091C196.819 5.55144 197.046 5.59718 197.155 5.76711L198.202 7.36831C198.313 7.5366 198.266 7.76207 198.096 7.87318C198.036 7.91239 197.965 7.932 197.897 7.932Z" fill="#2573EF"/>
<path d="M114.875 48.3227C114.772 48.3227 114.669 48.2802 114.597 48.1953C114.467 48.0417 114.485 47.8113 114.636 47.6806L148.684 18.5191C148.838 18.3884 149.068 18.4064 149.199 18.5583C149.329 18.7119 149.311 18.9423 149.159 19.073L115.112 48.2345C115.043 48.2933 114.958 48.3227 114.875 48.3227Z" fill="#2573EF"/>
<path d="M158.536 28.6791C158.433 28.6791 158.332 28.6366 158.258 28.5517C158.128 28.3981 158.146 28.1677 158.298 28.037L179.492 9.88294C179.646 9.75223 179.874 9.76857 180.007 9.92216C180.137 10.0757 180.119 10.3061 179.968 10.4368L158.773 28.5909C158.704 28.6497 158.621 28.6791 158.536 28.6791Z" fill="#2573EF"/>
<path d="M152.561 281.257C144.092 281.257 135.444 280.488 127.465 278.426C127.269 278.375 127.153 278.176 127.203 277.981C127.254 277.785 127.453 277.668 127.648 277.72C158.713 285.752 200.101 274.039 200.516 273.92C200.707 273.864 200.911 273.975 200.966 274.17C201.022 274.362 200.911 274.565 200.716 274.621C200.406 274.707 177.265 281.257 152.561 281.257Z" fill="#2573EF"/>
<path d="M152.424 286.691C142.377 286.691 131.623 285.736 122.79 282.698C122.599 282.633 122.497 282.425 122.563 282.234C122.628 282.043 122.836 281.942 123.027 282.007C146.578 290.106 184.023 283.277 184.399 283.206C184.597 283.17 184.788 283.301 184.824 283.499C184.86 283.697 184.729 283.888 184.531 283.924C184.296 283.969 169.37 286.691 152.424 286.691Z" fill="#2573EF"/>
<path d="M117.382 280.197C117.067 280.197 116.751 280.138 116.448 280.022C115.799 279.774 115.285 279.285 115.002 278.65C114.72 278.014 114.7 277.306 114.95 276.656C115.2 276.008 115.686 275.493 116.322 275.21C116.957 274.928 117.665 274.908 118.313 275.158C118.961 275.406 119.476 275.895 119.758 276.529C120.041 277.164 120.061 277.872 119.811 278.522C119.562 279.171 119.074 279.685 118.439 279.968C118.102 280.122 117.743 280.197 117.382 280.197ZM117.382 275.717C117.122 275.717 116.864 275.771 116.621 275.88C115.677 276.3 115.25 277.411 115.672 278.355C115.876 278.813 116.245 279.163 116.712 279.342C117.179 279.52 117.689 279.509 118.146 279.305C118.604 279.1 118.953 278.731 119.133 278.264C119.313 277.797 119.3 277.287 119.095 276.829C118.891 276.372 118.522 276.022 118.055 275.843C117.834 275.758 117.607 275.717 117.382 275.717Z" fill="#2573EF"/>
<path d="M207.307 275.58C207.255 275.58 207.203 275.568 207.154 275.545C207.034 275.49 206.954 275.375 206.945 275.245L206.366 268.095C206.357 267.976 206.407 267.858 206.5 267.781C206.593 267.706 206.718 267.68 206.834 267.714L214.352 269.941C214.486 269.98 214.586 270.093 214.608 270.232C214.631 270.369 214.574 270.508 214.46 270.59L207.521 275.511C207.456 275.557 207.381 275.58 207.307 275.58ZM207.134 268.567L207.618 274.547L213.421 270.431L207.134 268.567Z" fill="#2573EF"/>
<path d="M237.293 45.2056L218.903 10.9807C218.411 9.91705 217 9.68667 216.194 10.5396L188.285 42.7956C187.841 43.2662 187.71 43.9573 187.955 44.5569C188.198 45.1566 188.773 45.5618 189.42 45.5895C193.512 45.7137 197.605 45.8363 201.697 45.9604C202.291 45.9784 202.84 46.2872 203.165 46.7855C203.49 47.2839 203.55 47.9113 203.327 48.4635C197.424 63.0083 185.949 85.1735 163.987 104.885C119.099 145.17 64.4688 144.634 50.915 144.113C52.047 151.823 53.1789 159.533 54.3108 167.242C68.7155 167.165 128.58 165.211 176.11 118.683C202.067 93.2727 213.669 65.018 218.917 48.3377C219.288 47.1581 220.423 46.3885 221.656 46.4816C226.344 46.8395 231.032 47.1973 235.72 47.5567C236.401 47.511 236.997 47.1189 237.262 46.5323C237.538 45.918 237.34 45.3379 237.293 45.2056Z" fill="#2573EF"/>
<path d="M54.3107 167.606C54.1294 167.606 53.9758 167.474 53.9497 167.294L50.5539 144.165C50.5376 144.057 50.5703 143.949 50.6438 143.867C50.7156 143.786 50.8169 143.737 50.9296 143.746C70.8813 144.513 121.82 142.237 163.742 104.61C180.863 89.2435 194.067 70.3068 202.987 48.3246C203.167 47.8834 203.117 47.3818 202.858 46.9831C202.598 46.5845 202.159 46.3378 201.683 46.3231L189.407 45.9522C188.613 45.9179 187.912 45.4244 187.615 44.6925C187.318 43.9605 187.476 43.1174 188.019 42.5439L215.918 10.2993C216.39 9.79931 217.06 9.57384 217.723 9.68004C218.386 9.78788 218.95 10.216 219.232 10.827L237.613 45.0307C237.621 45.0454 237.627 45.0617 237.634 45.078C237.727 45.328 237.907 45.9865 237.593 46.6825C237.273 47.39 236.564 47.8654 235.743 47.921C235.726 47.9226 235.708 47.9226 235.69 47.921L221.627 46.8459C220.55 46.7626 219.587 47.4227 219.263 48.4471C210.786 75.3898 195.95 99.7673 176.363 118.942C131.855 162.513 76.1815 167.49 54.3123 167.606H54.3107ZM51.3396 144.493L54.6259 166.874C76.6242 166.711 131.751 161.597 175.855 118.421C195.357 99.3294 210.128 75.0565 218.569 48.2282C218.994 46.8786 220.279 46.0094 221.684 46.1188L235.72 47.1906C236.262 47.1465 236.724 46.8377 236.93 46.3819C237.124 45.9522 237.021 45.5339 236.959 45.3542L218.581 11.1538C218.388 10.7388 218.037 10.4725 217.607 10.4022C217.178 10.3303 216.759 10.4741 216.461 10.7894L188.561 43.0341C188.205 43.4131 188.104 43.9523 188.293 44.4196C188.482 44.8869 188.932 45.2038 189.435 45.2251L201.706 45.5943C202.42 45.6156 203.08 45.9865 203.469 46.5845C203.859 47.1825 203.931 47.9357 203.661 48.5991C194.699 70.6858 181.431 89.714 164.227 105.154C122.409 142.688 71.68 145.214 51.3396 144.493Z" fill="white"/>
<path d="M95.8172 257.342C95.8172 257.342 95.6604 263.658 95.5036 272.877C95.3795 280.205 95.2521 289.361 95.2047 298.633H64.4973C63.8815 287.123 63.4683 279.427 63.4683 279.427C63.4683 279.427 60.5135 288.43 57.807 298.633H23.6924C24.3996 286.832 25.0383 275.711 25.4434 268.54C25.7276 263.497 25.8991 260.405 25.8991 260.405L95.8172 257.342Z" fill="#131319"/>
<path d="M57.8071 298.999C57.776 298.999 57.745 298.996 57.714 298.988C57.5196 298.936 57.4036 298.736 57.4543 298.542C60.133 288.444 63.0927 279.406 63.1221 279.316C63.1776 279.149 63.3409 279.045 63.5173 279.068C63.6921 279.09 63.8244 279.234 63.8342 279.409L64.8632 298.615C64.8747 298.816 64.7195 298.988 64.5186 298.999C64.3161 299.016 64.1462 298.855 64.1347 298.655L63.2119 281.429C62.2057 284.602 60.1085 291.385 58.1615 298.73C58.1158 298.89 57.9688 298.999 57.8071 298.999Z" fill="#2573EF"/>
<path d="M23.6922 298.999C23.6856 298.999 23.6775 298.999 23.6693 298.999C23.4684 298.988 23.3149 298.814 23.3279 298.613C24.1005 285.725 24.7571 274.228 25.0789 268.522C25.3631 263.479 25.5346 260.389 25.5346 260.389C25.5444 260.201 25.6963 260.052 25.8825 260.044L95.7991 256.979C95.9003 256.974 95.9983 257.013 96.0702 257.083C96.1421 257.154 96.1813 257.252 96.1796 257.353C96.178 257.417 96.0212 263.774 95.866 272.885C95.7076 282.275 95.6063 290.939 95.5671 298.638C95.5655 298.839 95.4021 299.001 95.2029 299.001H95.2012C95.0003 298.999 94.837 298.836 94.8386 298.635C94.8778 290.933 94.9791 282.265 95.1376 272.873C95.2715 265.04 95.4054 259.242 95.4414 257.726L26.2435 260.76C26.1929 261.681 26.0361 264.483 25.8058 268.565C25.484 274.272 24.8274 285.768 24.0548 298.658C24.045 298.849 23.8849 298.999 23.6922 298.999Z" fill="#2573EF"/>
<path d="M101.267 160.34C102.521 160.242 108.674 172.848 127.929 172.318C147.184 171.791 162.633 150.236 162.633 150.236C162.633 150.236 169.282 139.02 174.329 134.965C179.377 130.909 180.167 130.375 180.167 130.375C180.167 130.375 181.75 132.484 180.167 134.965C178.584 137.446 174.217 142.088 174.217 142.088C174.217 142.088 179.029 144.732 176.86 150.236C174.364 156.568 167.329 156.06 167.329 156.06C167.329 156.06 153.051 219.287 94.0508 189.242L101.267 160.34Z" fill="#131319"/>
<path d="M123.309 197.707C114.373 197.707 104.535 194.992 93.8858 189.569C93.7339 189.492 93.6555 189.321 93.698 189.156L100.916 160.254C100.953 160.102 101.084 159.991 101.241 159.978C101.679 159.945 102.1 160.412 103.021 161.44C105.953 164.711 112.818 172.377 127.922 171.956C146.778 171.439 162.185 150.24 162.339 150.026C162.594 149.593 169.063 138.732 174.104 134.682C179.105 130.663 179.934 130.096 179.966 130.074C180.128 129.965 180.345 130.003 180.463 130.158C180.481 130.181 182.176 132.499 180.479 135.164C179.118 137.296 175.803 140.925 174.784 142.023C175.927 142.833 179.086 145.598 177.203 150.374C174.958 156.063 169.126 156.434 167.649 156.435C167.638 156.435 167.628 156.435 167.618 156.435C167.267 157.842 165.581 164.146 161.862 171.333C157.976 178.844 151.01 188.893 139.896 194.113C134.782 196.508 129.243 197.707 123.309 197.707ZM94.4755 189.048C111.879 197.849 127.055 199.33 139.583 193.446C160.516 183.617 166.912 156.254 166.974 155.978C167.014 155.802 167.179 155.681 167.357 155.695C167.633 155.715 174.156 156.104 176.521 150.103C178.55 144.956 174.228 142.51 174.044 142.409C173.944 142.355 173.877 142.257 173.859 142.146C173.841 142.034 173.875 141.92 173.954 141.838C173.998 141.793 178.318 137.193 179.863 134.769C180.954 133.056 180.397 131.535 180.066 130.904C179.515 131.318 178.075 132.427 174.561 135.251C169.625 139.218 163.017 150.313 162.95 150.424C162.777 150.668 147.157 172.158 127.942 172.684C127.538 172.696 127.138 172.701 126.746 172.701C112.134 172.701 105.398 165.185 102.477 161.925C102.121 161.528 101.757 161.123 101.507 160.891L94.4755 189.048Z" fill="#2573EF"/>
<path d="M5.83398 189.243C5.83398 189.243 11.6129 151.935 32.0268 142.756C52.4423 133.577 80.0594 134.853 87.6758 139.437C95.2922 144.022 115.143 164.748 115.143 164.748L97.6018 189.244C97.6018 189.244 101.61 255.186 98.4413 272.594C98.4413 272.594 78.9274 274.87 70.6511 271.61C62.3748 268.349 35.1612 263.782 22.153 269.759L24.5165 186.272L5.83398 189.243Z" fill="#E2EDFF"/>
<path d="M84.6624 273.74C79.4993 273.74 74.0422 273.335 70.5173 271.948C62.3521 268.731 35.3459 264.097 22.3051 270.09C22.1907 270.142 22.0568 270.133 21.9523 270.062C21.8477 269.992 21.7857 269.874 21.7889 269.747L24.141 186.702L5.8913 189.603C5.77696 189.623 5.65936 189.584 5.57605 189.502C5.49275 189.42 5.45518 189.303 5.47315 189.187C5.48785 189.094 6.96932 179.702 10.9335 169.311C14.6037 159.689 21.2172 147.214 31.8766 142.422C41.0529 138.296 52.6891 135.862 64.6421 135.569C74.7494 135.321 83.8653 136.716 87.8638 139.123C95.4344 143.68 114.594 163.644 115.406 164.492C115.527 164.618 115.541 164.814 115.438 164.956L97.9727 189.35C98.1703 192.651 101.873 255.772 98.7992 272.657C98.7698 272.815 98.6424 272.936 98.4823 272.954C98.0233 273.008 91.6091 273.74 84.6624 273.74ZM39.8393 266.473C52.1501 266.473 65.4506 269.167 70.7852 271.268C78.3592 274.252 95.7546 272.515 98.1295 272.26C101.168 254.692 97.2769 189.92 97.2377 189.265C97.2328 189.182 97.2557 189.099 97.3047 189.03L114.669 164.78C112.52 162.55 94.5573 144.004 87.4881 139.749C83.599 137.409 74.64 136.056 64.6601 136.3C52.8018 136.591 41.2653 139.002 32.1772 143.089C13.444 151.511 7.06079 184.357 6.27841 188.803L24.4595 185.911C24.5673 185.893 24.6767 185.926 24.7568 185.998C24.8384 186.069 24.8842 186.174 24.8809 186.282L22.5337 269.19C27.1578 267.218 33.3614 266.473 39.8393 266.473Z" fill="white"/>
<path d="M40.0845 252.916C39.9113 252.916 39.7562 252.792 39.7251 252.614C39.6908 252.416 39.8231 252.227 40.0208 252.191C56.3055 249.312 66.3981 242.035 71.999 236.435C78.0555 230.38 80.29 224.957 80.3128 224.904C80.388 224.716 80.6019 224.627 80.7881 224.703C80.9743 224.778 81.0658 224.99 80.989 225.178C80.9662 225.234 78.6746 230.794 72.5151 236.952C66.8408 242.625 56.6191 249.998 40.1482 252.91C40.1269 252.915 40.1057 252.916 40.0845 252.916Z" fill="#2573EF"/>
<path d="M96.1237 215.318H56.3984L68.8415 170.931H108.567L96.1237 215.318Z" fill="white"/>
<path d="M96.1232 215.683H56.398C56.2836 215.683 56.1758 215.629 56.1072 215.539C56.0386 215.447 56.0158 215.33 56.0468 215.22L68.4898 170.833C68.5339 170.676 68.6777 170.566 68.841 170.566H108.566C108.681 170.566 108.788 170.62 108.857 170.71C108.926 170.802 108.948 170.919 108.917 171.029L96.4744 215.416C96.4303 215.575 96.2866 215.683 96.1232 215.683ZM56.8782 214.954H95.8456L108.084 171.297H69.1171L56.8782 214.954Z" fill="#2573EF"/>
<path d="M8.38552 188.836L29.0657 185.214C29.0657 185.214 26.6107 214.472 67.2866 198.736C67.2866 198.736 65.7871 194.357 65.9979 189.241C66.2102 184.126 69.2695 189.076 69.6974 193.233C70.1254 197.39 79.6757 195.703 85.4154 194.065C91.1551 192.426 98.6882 193.499 85.4154 200.822C72.1426 208.145 69.2352 204.879 69.2352 204.879C69.2352 204.879 52.2857 228.603 31.1972 223.563C5.25925 217.364 8.38552 188.836 8.38552 188.836Z" fill="#131319"/>
<path d="M37.0901 224.622C35.148 224.622 33.1504 224.405 31.1136 223.918C17.5468 220.676 11.99 211.288 9.71638 203.983C7.26142 196.094 8.01604 188.868 8.02257 188.796C8.04054 188.634 8.16304 188.505 8.32311 188.476L29.0032 184.853C29.1127 184.834 29.2287 184.866 29.312 184.943C29.3953 185.02 29.4394 185.131 29.4296 185.242C29.4214 185.337 28.7239 194.741 35.4747 199.793C41.773 204.507 52.3246 204.077 66.8354 198.517C66.4892 197.388 65.4536 193.599 65.6349 189.225C65.661 188.608 65.7378 186.729 66.8028 186.696C66.8109 186.696 66.8191 186.696 66.8256 186.696C68.1862 186.696 69.7641 190.312 70.0613 193.194C70.125 193.807 70.4158 194.282 70.9532 194.645C73.382 196.29 80.2079 195.171 85.3154 193.712C88.1183 192.912 92.3798 192.546 93.0772 194.235C93.7044 195.756 91.256 198.014 85.5915 201.14C74.4519 207.286 70.4191 206.053 69.3116 205.388C68.3496 206.664 64.3119 211.799 58.3484 216.399C53.1821 220.384 45.6686 224.622 37.0901 224.622ZM8.72329 189.147C8.61548 190.521 8.26921 196.898 10.4187 203.79C13.6463 214.139 20.6665 220.671 31.2818 223.209C33.2549 223.681 35.197 223.893 37.0917 223.893C54.9755 223.895 68.7857 204.88 68.9376 204.667C69.0013 204.577 69.1042 204.52 69.2153 204.515C69.3312 204.51 69.4341 204.555 69.5076 204.638C69.5321 204.662 72.5261 207.52 85.2386 200.504C92.5186 196.486 92.5627 194.906 92.4026 194.518C92.0041 193.55 88.721 193.503 85.5163 194.418C82.8425 195.181 73.8589 197.498 70.5448 195.253C69.8278 194.768 69.4211 194.101 69.3361 193.271C69.0225 190.232 67.43 187.428 66.8322 187.428C66.8305 187.428 66.8289 187.428 66.8256 187.428C66.726 187.431 66.4255 187.775 66.365 189.258C66.1576 194.246 67.6195 198.575 67.6342 198.619C67.6979 198.803 67.6031 199.008 67.4202 199.078C52.4895 204.854 41.5933 205.291 35.0337 200.377C28.8497 195.743 28.6341 187.673 28.6831 185.652L8.72329 189.147Z" fill="#2573EF"/>
<path d="M63.0005 125.751C61.2642 127.341 57.8685 129.283 55.211 127.945C53.2329 126.949 52.1272 124.367 52.1958 121.408C51.2794 121.483 50.0789 121.418 49.2214 120.661C47.9016 119.495 48.1483 117.35 48.2005 115.938C48.439 109.429 44.6577 108.429 45.5839 104.012C46.3107 100.54 49.0368 98.4718 49.5464 98.0845C52.1206 96.1321 53.8634 96.7611 58.1919 95.6272C65.4734 93.7188 65.7054 90.5801 70.5026 90.5654C70.7803 90.5654 77.3089 90.6373 79.5254 95.1485C81.327 98.8182 79.2232 103.279 77.0459 105.622C74.2283 108.656 72.2046 107.156 69.3756 109.701C64.4118 114.17 68.1603 121.027 63.0005 125.751Z" fill="#2573EF"/>
<path d="M77.5335 114.135L77.2461 113.887C75.8054 112.645 74.3044 111.202 73.9221 109.338C72.2953 101.414 65.0399 98.5381 64.705 105.814C64.6201 107.65 57.9167 107.555 58.7122 109.482C60.7866 114.506 60.8323 113.155 57.9053 115.006C57.5737 115.019 57.2454 115.093 56.9334 115.236C55.4324 115.936 54.9015 117.975 55.746 119.788C56.2588 120.89 57.1637 121.648 58.1291 121.924V129.863C58.1291 132.838 56.3307 135.519 53.5769 136.645L50.8965 137.741C50.8965 137.741 63.3918 145.899 76.0749 136.942L74.3828 136.183C71.4019 134.845 69.4451 131.923 69.3422 128.657L69.3291 127.105C70.1817 127.18 71.0082 127.123 71.771 126.901C75.3187 125.868 76.4963 121.78 75.8936 116.697L77.3375 115.921C78.0105 115.561 78.1134 114.635 77.5335 114.135Z" fill="white"/>
<path d="M63.2501 141.482C56.0845 141.482 50.7809 138.103 50.6992 138.049C50.5849 137.974 50.5228 137.843 50.5359 137.709C50.549 137.573 50.6355 137.457 50.7613 137.405L53.4417 136.309C56.0698 135.234 57.7685 132.705 57.7685 129.865V122.19C56.7754 121.821 55.9113 120.999 55.4197 119.946C54.9754 118.991 54.866 117.946 55.111 117.005C55.3625 116.037 55.9571 115.294 56.7836 114.908C57.0955 114.763 57.4353 114.675 57.7946 114.648C58.2895 114.34 58.6946 114.122 59.0229 113.948C59.6224 113.627 59.8167 113.51 59.8331 113.346C59.8608 113.069 59.5946 112.456 59.1536 111.441C58.9396 110.949 58.6815 110.353 58.3794 109.623C58.252 109.316 58.2569 109.008 58.3892 108.735C58.7616 107.971 60.0862 107.6 61.4877 107.206C62.747 106.853 64.3167 106.414 64.3444 105.798C64.5225 101.916 66.5201 101.341 67.3711 101.274C69.875 101.079 73.2186 104.077 74.2819 109.265C74.6461 111.039 76.1276 112.438 77.4866 113.611L77.774 113.858C78.1366 114.171 78.3228 114.644 78.2706 115.119C78.2183 115.596 77.9341 116.016 77.5127 116.243L76.286 116.903C76.8904 122.493 75.2897 126.259 71.8759 127.252C71.2095 127.447 70.481 127.528 69.7003 127.496L69.7101 128.656C69.8081 131.752 71.7011 134.58 74.535 135.851L76.2272 136.611C76.3465 136.665 76.4281 136.778 76.4412 136.908C76.4543 137.039 76.3955 137.167 76.2893 137.242C71.7502 140.446 67.2143 141.482 63.2501 141.482ZM51.7217 137.801C54.34 139.232 64.7707 144.068 75.3338 137.011L74.2329 136.518C71.1458 135.134 69.0828 132.053 68.9767 128.67L68.962 127.11C68.9603 127.007 69.0044 126.909 69.0796 126.839C69.1547 126.769 69.2544 126.733 69.3589 126.744C70.1968 126.819 70.9743 126.754 71.6668 126.553C74.7539 125.654 76.1619 122.079 75.5281 116.743C75.5102 116.594 75.5853 116.449 75.7176 116.379L77.1615 115.603C77.3755 115.488 77.5127 115.284 77.5405 115.042C77.5666 114.8 77.4768 114.572 77.2938 114.413L77.0063 114.166C75.5559 112.915 73.9732 111.413 73.5632 109.415C72.6093 104.768 69.6219 101.837 67.4233 102.004C66.0333 102.113 65.1742 103.509 65.068 105.834C65.0158 106.976 63.3954 107.43 61.6788 107.912C60.604 108.213 59.2679 108.588 59.0392 109.057C59.0115 109.115 58.987 109.2 59.0474 109.347C59.3463 110.072 59.6044 110.665 59.8167 111.154C60.8147 113.454 60.9438 113.748 59.361 114.595C59.0262 114.774 58.608 114.997 58.0984 115.318C58.0445 115.353 57.9824 115.372 57.9187 115.374C57.6198 115.387 57.3405 115.452 57.0857 115.572C56.4601 115.862 56.0077 116.438 55.8117 117.191C55.6092 117.969 55.7023 118.838 56.0763 119.638C56.5222 120.594 57.3275 121.32 58.2291 121.576C58.3859 121.62 58.4937 121.764 58.4937 121.927V129.866C58.4937 133.005 56.6169 135.799 53.7144 136.987L51.7217 137.801Z" fill="#2573EF"/>
<path d="M69.33 127.471C69.312 127.471 69.2924 127.469 69.2745 127.466C64.2339 126.693 61.9733 122.852 61.8802 122.69C61.7789 122.516 61.8394 122.293 62.0141 122.194C62.1889 122.092 62.411 122.153 62.5123 122.328C62.5335 122.365 64.7027 126.028 69.3839 126.747C69.5832 126.778 69.7204 126.965 69.6893 127.164C69.6632 127.342 69.508 127.471 69.33 127.471Z" fill="#2573EF"/>
<path d="M84.613 81.7824C89.8375 76.9963 90.3152 69.012 85.6798 63.9489C81.0445 58.8858 73.0515 58.6612 67.827 63.4473C62.6025 68.2334 62.1249 76.2177 66.7602 81.2808C71.3955 86.3439 79.3885 86.5685 84.613 81.7824Z" fill="white"/>
<path d="M76.3393 85.8096C71.4637 85.8096 66.722 83.2591 64.2524 78.7954C62.1045 74.9133 62.0767 70.278 64.1822 66.3959C64.2785 66.2194 64.499 66.1524 64.6771 66.2488C64.8535 66.3452 64.9204 66.5658 64.8241 66.7439C62.8395 70.4054 62.8657 74.7793 64.8927 78.4425C68.2574 84.5238 76.078 86.852 82.3257 83.6333C85.3719 82.0631 87.5851 79.431 88.5602 76.2204C89.519 73.0605 89.1581 69.7126 87.5427 66.7945C84.1779 60.7132 76.3573 58.385 70.1097 61.6037C69.93 61.6968 69.7111 61.6266 69.618 61.4468C69.5249 61.2671 69.5968 61.0482 69.7748 60.9551C76.3687 57.5566 84.6255 60.0172 88.1797 66.44C89.8914 69.5329 90.2737 73.0817 89.2561 76.4312C88.2238 79.8329 85.8799 82.6203 82.6572 84.282C80.6466 85.3178 78.4791 85.8096 76.3393 85.8096Z" fill="#2573EF"/>
<path d="M73.5116 79.7821L73.92 78.0681C72.7292 77.7642 71.6398 77.1989 71.0518 76.6597L72.0939 74.6599C72.7488 75.2317 73.7191 75.8297 74.8869 76.0715C75.911 76.2839 76.7065 76.0323 76.878 75.3101C77.0413 74.6239 76.5693 74.0733 75.3475 73.3462C73.5802 72.2989 72.4842 71.1258 72.9007 69.3743C73.2797 67.7861 74.6893 66.7715 76.7016 66.7911L77.1099 65.0771L78.8707 65.4415L78.4918 67.0296C79.6825 67.3335 80.4306 67.7534 80.9549 68.1635L79.9487 70.0948C79.529 69.7991 78.8021 69.2141 77.5085 68.9462C76.3406 68.7044 75.8441 69.1308 75.7232 69.6373C75.5811 70.232 76.1201 70.7418 77.5085 71.6355C79.4653 72.8364 80.0908 74.0063 79.7037 75.6304C79.3215 77.2365 77.8629 78.3737 75.7118 78.3067L75.274 80.1464L73.5116 79.7821Z" fill="#2573EF"/>
<path d="M112.548 87.7884C116.988 85.3503 118.673 79.8854 116.312 75.5823C113.951 71.2792 108.437 69.7673 103.997 72.2055C99.5565 74.6436 97.8713 80.1085 100.233 84.4116C102.594 88.7147 108.108 90.2266 112.548 87.7884Z" fill="white"/>
<path d="M108.005 89.5939C106.601 89.5939 105.181 89.2933 103.848 88.661C101.541 87.5647 99.8222 85.64 99.0088 83.2431C98.1839 80.8086 98.3865 78.1829 99.5805 75.8498C102.024 71.0788 107.909 69.0479 112.698 71.3239C115.4 72.6081 117.267 75.4086 117.695 78.8152C117.719 79.0146 117.579 79.1976 117.378 79.2237C117.182 79.2466 116.996 79.1077 116.971 78.9067C116.568 75.7011 114.897 73.1767 112.384 71.984C107.947 69.8747 102.494 71.7585 100.229 76.1831C99.1248 78.3398 98.9369 80.7628 99.6981 83.0078C100.448 85.2168 102.032 86.9895 104.16 88.0009C108.598 90.1103 114.051 88.2264 116.316 83.8018C116.407 83.6221 116.628 83.5502 116.808 83.6434C116.987 83.7349 117.058 83.9554 116.966 84.1352C115.204 87.5777 111.649 89.5939 108.005 89.5939Z" fill="#2573EF"/>
<path d="M108.251 85.4457L108.097 84.1958C107.223 84.2889 106.353 84.1811 105.823 83.967L106.023 82.3674C106.604 82.5864 107.403 82.7465 108.246 82.6174C108.984 82.5047 109.454 82.1371 109.391 81.611C109.329 81.111 108.876 80.8577 107.877 80.6764C106.431 80.415 105.404 79.9019 105.247 78.6259C105.105 77.4674 105.797 76.4365 107.15 75.9463L106.996 74.6964L108.267 74.502L108.409 75.6604C109.283 75.5672 109.889 75.662 110.341 75.8074L110.149 77.3531C109.794 77.2599 109.16 77.0492 108.228 77.1913C107.385 77.3204 107.158 77.7305 107.204 78.0998C107.257 78.5344 107.744 78.7402 108.897 78.9935C110.508 79.3105 111.218 79.9379 111.364 81.1224C111.507 82.2939 110.813 83.4197 109.356 83.9115L109.521 85.2545L108.251 85.4457Z" fill="#2573EF"/>
<path d="M121.787 109.585C122.638 104.086 119.011 98.9583 113.685 98.1329C108.358 97.3074 103.35 101.096 102.498 106.595C101.647 112.095 105.274 117.222 110.6 118.047C115.927 118.873 120.935 115.084 121.787 109.585Z" fill="white"/>
<path d="M112.059 118.852C110.958 118.852 109.853 118.671 108.781 118.305C106.119 117.396 103.977 115.468 102.752 112.874C100.243 107.567 102.411 101.105 107.584 98.4662C110.712 96.8699 114.377 96.9745 117.391 98.744C117.564 98.8453 117.623 99.0691 117.52 99.244C117.418 99.4171 117.195 99.476 117.02 99.3747C114.224 97.731 110.82 97.6362 107.914 99.1182C103.089 101.579 101.068 107.611 103.411 112.563C104.552 114.978 106.543 116.772 109.016 117.615C111.45 118.445 114.065 118.253 116.38 117.073C121.205 114.612 123.225 108.58 120.883 103.628C120.796 103.445 120.875 103.227 121.056 103.141C121.237 103.054 121.456 103.133 121.541 103.314C124.05 108.621 121.882 115.084 116.71 117.722C115.238 118.473 113.652 118.852 112.059 118.852Z" fill="#2573EF"/>
<path d="M114.006 113.813L113.415 112.562C112.536 112.96 111.59 113.15 110.965 113.107L110.622 111.37C111.305 111.398 112.192 111.289 113.026 110.864C113.758 110.491 114.121 109.946 113.872 109.42C113.635 108.92 113.075 108.813 111.971 108.967C110.374 109.194 109.126 109.013 108.521 107.735C107.974 106.577 108.34 105.261 109.581 104.284L108.99 103.033L110.248 102.391L110.795 103.549C111.674 103.15 112.339 103.039 112.861 103.034L113.193 104.716C112.791 104.74 112.058 104.739 111.133 105.211C110.298 105.636 110.204 106.142 110.379 106.511C110.584 106.946 111.164 106.993 112.455 106.858C114.243 106.632 115.202 107.042 115.762 108.227C116.316 109.398 115.981 110.812 114.63 111.828L115.266 113.171L114.006 113.813Z" fill="#2573EF"/>
</g>
<defs>
<clipPath id="clip0_64_455">
<rect width="300" height="299" fill="white"/>
</clipPath>
</defs>
</svg>
