<svg width="300" height="298" viewBox="0 0 300 298" fill="none" xmlns="http://www.w3.org/2000/svg">
<g clip-path="url(#clip0_64_981)">
<path d="M143.038 91.7706L135.4 83.666L124.962 89.8784C122.859 88.3184 120.656 86.9522 118.372 85.7944L119.191 73.6594L108.539 70.471L102.597 81.0915C100.03 80.8033 97.4446 80.73 94.866 80.8733L89.5188 69.9336L78.7073 72.5146L78.8567 84.6773C76.5119 85.7048 74.2386 86.944 72.0529 88.3819L61.9722 81.5833L53.8985 89.2417L60.0967 99.7173C58.5443 101.826 57.1835 104.036 56.029 106.325L43.9315 105.497L40.7585 116.181L51.3475 122.149C51.0617 124.723 50.9903 127.317 51.1332 129.905L40.2324 135.262L42.8111 146.111L54.9345 145.969C55.9592 148.322 57.1965 150.604 58.6304 152.799L51.8639 162.906L59.5023 171.011L69.9403 164.799C72.0431 166.357 74.2467 167.725 76.5298 168.883L75.7114 181.018L86.3637 184.206L92.3052 173.585C94.8709 173.874 97.4576 173.947 100.036 173.805L105.384 184.745L116.195 182.164L116.046 170.001C118.39 168.974 120.664 167.735 122.849 166.297L132.928 173.09L141.002 165.432L134.804 154.956C136.356 152.848 137.719 150.638 138.872 148.348L150.969 149.177L154.142 138.493L143.553 132.527C143.839 129.952 143.91 127.358 143.767 124.77L154.67 119.413L152.091 108.564L139.968 108.706C138.943 106.353 137.706 104.072 136.27 101.878L143.038 91.7706ZM117.117 148.2C105.638 159.089 87.5296 158.575 76.6694 147.054C65.8093 135.531 66.311 117.364 77.7882 106.475C89.2671 95.586 107.376 96.1006 118.236 107.623C129.096 119.144 128.596 137.311 117.117 148.2Z" fill="#131319"/>
<path d="M105.386 185.11C105.25 185.11 105.122 185.033 105.06 184.904L99.8182 174.181C97.3857 174.302 94.9289 174.232 92.5078 173.975L86.6831 184.383C86.6003 184.533 86.4249 184.603 86.2609 184.554L75.6086 181.366C75.4462 181.317 75.3374 181.161 75.3488 180.991L76.151 169.096C74.0092 167.995 71.916 166.697 69.9187 165.233L59.6886 171.322C59.5425 171.408 59.3558 171.382 59.2388 171.258L51.6004 163.154C51.4835 163.03 51.4672 162.841 51.563 162.699L58.1947 152.792C56.8486 150.711 55.6746 148.54 54.6986 146.334L42.8155 146.472C42.6531 146.48 42.4972 146.358 42.4566 146.192L39.878 135.344C39.839 135.178 39.9186 135.007 40.0712 134.932L50.756 129.68C50.6342 127.241 50.7024 124.777 50.959 122.346L40.5795 116.496C40.4317 116.413 40.3603 116.237 40.409 116.075L43.5819 105.391C43.6306 105.226 43.7849 105.12 43.9554 105.13L55.8126 105.943C56.9103 103.793 58.2028 101.692 59.6594 99.6944L53.5847 89.4272C53.497 89.2807 53.5246 89.0934 53.648 88.9762L61.7217 81.3177C61.8451 81.2005 62.0335 81.1842 62.1747 81.2803L72.0541 87.9389C74.1261 86.5922 76.289 85.4132 78.4893 84.4345L78.3431 72.5129C78.3415 72.3419 78.4568 72.1921 78.6224 72.153L89.4339 69.5719C89.5995 69.5312 89.77 69.6127 89.8447 69.7657L95.0864 80.4888C97.5173 80.3683 99.9741 80.4367 102.397 80.6957L108.222 70.2868C108.304 70.137 108.48 70.067 108.644 70.1158L119.296 73.3043C119.458 73.3531 119.567 73.5095 119.556 73.6788L118.754 85.5744C120.895 86.6752 122.99 87.9747 124.984 89.437L135.214 83.3483C135.361 83.2604 135.547 83.2881 135.664 83.4118L143.303 91.5165C143.42 91.6402 143.436 91.8291 143.34 91.9708L136.708 101.878C138.053 103.959 139.228 106.13 140.204 108.336L152.088 108.198C152.253 108.206 152.406 108.312 152.446 108.478L155.025 119.327C155.064 119.493 154.984 119.664 154.832 119.739L144.147 124.99C144.269 127.431 144.201 129.897 143.944 132.325L154.324 138.174C154.471 138.257 154.543 138.433 154.494 138.596L151.321 149.28C151.272 149.444 151.118 149.55 150.948 149.54L139.09 148.728C137.994 150.874 136.702 152.975 135.244 154.977L141.318 165.245C141.406 165.391 141.378 165.578 141.255 165.696L133.181 173.354C133.058 173.471 132.87 173.488 132.728 173.392L122.849 166.733C120.775 168.081 118.612 169.259 116.414 170.236L116.56 182.157C116.561 182.328 116.446 182.478 116.281 182.517L105.469 185.098C105.442 185.106 105.414 185.11 105.386 185.11ZM100.039 173.44C100.177 173.44 100.305 173.519 100.365 173.646L105.584 184.323L115.829 181.877L115.685 170.006C115.683 169.86 115.769 169.726 115.902 169.667C118.21 168.656 120.481 167.42 122.652 165.992C122.774 165.912 122.933 165.912 123.055 165.994L132.892 172.625L140.542 165.367L134.492 155.144C134.417 155.017 134.425 154.859 134.511 154.74C136.054 152.646 137.411 150.439 138.546 148.184C138.613 148.053 138.749 147.975 138.897 147.983L150.704 148.793L153.71 138.667L143.374 132.842C143.246 132.771 143.174 132.629 143.191 132.484C143.473 129.939 143.545 127.35 143.403 124.788C143.395 124.642 143.475 124.505 143.606 124.44L154.246 119.211L151.802 108.931L139.969 109.069C139.836 109.069 139.69 108.984 139.631 108.851C138.621 106.534 137.387 104.254 135.963 102.077C135.883 101.955 135.883 101.795 135.965 101.673L142.569 91.808L135.33 84.1284L125.142 90.1909C125.017 90.2658 124.858 90.2577 124.739 90.1714C122.652 88.6244 120.452 87.2614 118.202 86.1199C118.072 86.0531 117.992 85.9147 118.002 85.7698L118.801 73.9247L108.707 70.9024L102.908 81.2672C102.837 81.3959 102.694 81.4692 102.551 81.4512C100.011 81.1663 97.4312 81.093 94.8802 81.2347C94.7373 81.2428 94.5976 81.163 94.5327 81.0311L89.3137 70.3536L79.069 72.7995L79.2135 84.6706C79.2151 84.8172 79.1291 84.9507 78.9959 85.0093C76.6852 86.0222 74.4135 87.2582 72.2457 88.6847C72.1239 88.7645 71.9648 88.7644 71.843 88.683L62.0058 82.0521L54.356 89.31L60.4048 99.5348C60.4795 99.6618 60.4713 99.8198 60.3853 99.9386C58.8459 102.03 57.4884 104.236 56.3501 106.495C56.2835 106.625 56.1471 106.703 55.9993 106.695L44.1925 105.886L41.1868 116.011L51.5224 121.836C51.6507 121.908 51.7222 122.049 51.7059 122.194C51.4234 124.743 51.3519 127.332 51.4932 129.89C51.5013 130.037 51.4218 130.173 51.2902 130.239L40.6509 135.467L43.0948 145.748L54.9276 145.609C55.0851 145.606 55.2069 145.694 55.2653 145.827C56.2754 148.145 57.5095 150.424 58.9336 152.602C59.0131 152.724 59.0131 152.883 58.9319 153.005L52.3279 162.87L59.5669 170.55L69.7547 164.487C69.8814 164.412 70.0389 164.421 70.1574 164.507C72.2457 166.056 74.446 167.419 76.695 168.558C76.8249 168.625 76.9044 168.764 76.8947 168.909L76.0958 180.754L86.1895 183.776L91.9881 173.411C92.0596 173.282 92.1992 173.209 92.347 173.227C94.8851 173.512 97.4653 173.585 100.018 173.445C100.026 173.44 100.033 173.44 100.039 173.44ZM97.4897 156.407C97.2104 156.407 96.9294 156.404 96.6502 156.396C88.9126 156.176 81.7223 152.948 76.4043 147.304C65.424 135.655 65.9323 117.219 77.5377 106.21C83.1594 100.877 90.5186 98.0562 98.2545 98.2793C105.992 98.4991 113.182 101.727 118.5 107.371C129.481 119.02 128.972 137.456 117.367 148.465C111.948 153.605 104.919 156.407 97.4897 156.407ZM97.415 98.9974C90.1727 98.9974 83.3202 101.728 78.0379 106.739C66.7231 117.472 66.2278 135.443 76.932 146.801C82.1185 152.304 89.127 155.451 96.6696 155.665C104.212 155.878 111.385 153.132 116.865 147.935C128.18 137.202 128.675 119.23 117.971 107.872C112.784 102.37 105.776 99.2221 98.2334 99.0088C97.9606 99.0023 97.6861 98.9974 97.415 98.9974Z" fill="#2573EF"/>
<path d="M208.608 33.127L202.251 28.7727L196.103 34.5161C194.452 33.7719 192.761 33.1726 191.046 32.7264L189.819 24.3971L182.146 23.8125L179.686 31.8732C177.908 32.0572 176.148 32.3894 174.425 32.8665L169.203 26.2568L162.269 29.5983L164.156 37.8038C162.72 38.8444 161.365 40.0185 160.098 41.3147L152.282 38.2077L147.945 44.5797L153.676 50.7497C152.935 52.4058 152.339 54.101 151.894 55.8206L143.59 57.0468L143.014 64.7427L151.052 67.2163C151.237 68.9994 151.57 70.7646 152.045 72.494L145.459 77.7277L148.796 84.6843L156.975 82.7986C158.015 84.2381 159.185 85.5995 160.478 86.8713L157.385 94.7072L163.742 99.0616L169.89 93.3182C171.541 94.0623 173.231 94.6616 174.946 95.1078L176.174 103.437L183.846 104.022L186.306 95.9611C188.085 95.7771 189.845 95.4449 191.568 94.9677L196.79 101.577L203.724 98.236L201.837 90.0304C203.272 88.9898 204.628 87.8157 205.895 86.5195L213.71 89.6265L218.047 83.2546L212.317 77.0845C213.057 75.4284 213.653 73.7332 214.098 72.0136L222.402 70.7874L222.979 63.0915L214.941 60.6196C214.756 58.8365 214.423 57.0713 213.947 55.3419L220.535 50.1082L217.198 43.1516L209.019 45.0373C207.98 43.5977 206.809 42.2364 205.516 40.9646L208.608 33.127ZM199.36 75.1222C193.195 84.1828 180.87 86.5081 171.833 80.3185C162.795 74.1289 160.468 61.766 166.632 52.7071C172.798 43.6466 185.123 41.3212 194.159 47.5108C203.197 53.7004 205.526 66.0634 199.36 75.1222Z" fill="#131319"/>
<path d="M183.848 104.383C183.838 104.383 183.83 104.383 183.82 104.381L176.148 103.797C175.979 103.784 175.839 103.655 175.815 103.486L174.623 95.3956C173.054 94.9739 171.489 94.4202 169.963 93.746L163.99 99.325C163.865 99.4406 163.677 99.4553 163.537 99.3592L157.18 95.0048C157.039 94.9087 156.983 94.728 157.047 94.5684L160.051 86.9572C158.869 85.7766 157.786 84.5162 156.823 83.2037L148.877 85.0357C148.712 85.0731 148.541 84.9917 148.468 84.8386L145.131 77.882C145.058 77.7273 145.1 77.5433 145.233 77.4375L151.633 72.3536C151.207 70.7626 150.899 69.1293 150.717 67.4911L142.908 65.0892C142.746 65.0387 142.638 64.8824 142.651 64.713L143.228 57.0171C143.241 56.8462 143.369 56.7077 143.538 56.6833L151.604 55.4929C152.023 53.9199 152.575 52.3501 153.245 50.821L147.679 44.8268C147.564 44.7014 147.549 44.5125 147.645 44.3725L151.982 38.0005C152.078 37.8588 152.258 37.8035 152.417 37.867L160.009 40.8844C161.184 39.7006 162.439 38.6144 163.748 37.6488L161.917 29.6793C161.878 29.5132 161.96 29.3422 162.113 29.2673L169.047 25.9258C169.199 25.8525 169.384 25.8949 169.49 26.0284L174.564 32.4492C176.151 32.0226 177.78 31.7164 179.412 31.5341L181.8 23.7046C181.851 23.5418 182.006 23.4343 182.175 23.4474L189.848 24.032C190.017 24.045 190.156 24.1736 190.181 24.343L191.373 32.4346C192.941 32.8563 194.507 33.41 196.033 34.0842L202.006 28.5052C202.131 28.388 202.319 28.3749 202.459 28.471L208.816 32.8254C208.957 32.9215 209.012 33.1022 208.949 33.2618L205.945 40.873C207.127 42.0536 208.21 43.314 209.173 44.6265L217.118 42.7946C217.282 42.7571 217.455 42.8385 217.528 42.9916L220.865 49.9482C220.938 50.1029 220.895 50.2869 220.762 50.3927L214.363 55.4767C214.788 57.0692 215.097 58.7025 215.279 60.3391L223.088 62.741C223.25 62.7915 223.357 62.9478 223.344 63.1172L222.768 70.8131C222.755 70.9841 222.626 71.1225 222.458 71.1469L214.392 72.3373C213.973 73.9103 213.421 75.4785 212.75 77.0092L218.317 83.0034C218.432 83.1288 218.447 83.3177 218.351 83.4577L214.014 89.8297C213.918 89.9714 213.738 90.0267 213.579 89.9632L205.987 86.9458C204.811 88.1296 203.555 89.2158 202.247 90.1798L204.079 98.1493C204.118 98.3154 204.035 98.4864 203.883 98.5613L196.949 101.903C196.795 101.976 196.611 101.934 196.506 101.8L191.431 95.3793C189.845 95.806 188.216 96.1121 186.584 96.2945L184.194 104.124C184.148 104.279 184.005 104.383 183.848 104.383ZM176.492 103.09L183.585 103.631L185.959 95.85C186.001 95.7099 186.124 95.609 186.269 95.5943C188.023 95.4119 189.772 95.083 191.47 94.6124C191.611 94.5733 191.762 94.6221 191.852 94.7378L196.894 101.12L203.303 98.0304L201.483 90.1098C201.45 89.9665 201.505 89.8183 201.624 89.732C203.032 88.711 204.381 87.5434 205.636 86.2618C205.739 86.156 205.895 86.1234 206.031 86.1788L213.575 89.1783L217.583 83.2884L212.05 77.3316C211.951 77.2241 211.925 77.0678 211.984 76.9327C212.716 75.2945 213.309 73.6074 213.744 71.9204C213.781 71.7787 213.898 71.6712 214.045 71.6501L222.06 70.4678L222.592 63.3549L214.832 60.9677C214.692 60.9253 214.592 60.8016 214.577 60.6566C214.395 58.8996 214.064 57.1442 213.595 55.4392C213.556 55.2975 213.604 55.1461 213.72 55.0549L220.079 50.0019L216.995 43.5713L209.098 45.3919C208.955 45.4244 208.808 45.3691 208.722 45.2502C207.702 43.8367 206.538 42.4819 205.258 41.2231C205.154 41.1205 205.12 40.9642 205.175 40.8274L208.161 33.2634L202.285 29.2396L196.35 34.7844C196.243 34.8853 196.085 34.9098 195.952 34.8495C194.318 34.1135 192.636 33.5175 190.952 33.0794C190.811 33.042 190.705 32.9247 190.683 32.7798L189.497 24.7387L182.404 24.1997L180.03 31.9803C179.988 32.1203 179.865 32.2213 179.72 32.2359C177.966 32.4183 176.218 32.7489 174.517 33.2178C174.376 33.2569 174.225 33.2081 174.136 33.0925L169.094 26.7107L162.688 29.7998L164.508 37.7204C164.541 37.8637 164.485 38.0119 164.367 38.0982C162.957 39.1209 161.608 40.2884 160.354 41.5684C160.252 41.6742 160.096 41.7051 159.96 41.6514L152.416 38.6519L148.408 44.5418L153.94 50.4986C154.039 50.6061 154.065 50.7624 154.007 50.8976C153.275 52.5341 152.682 54.2211 152.247 55.9098C152.209 56.0515 152.092 56.159 151.946 56.1801L143.931 57.3624L143.398 64.4753L151.159 66.8625C151.298 66.9049 151.399 67.0286 151.414 67.1736C151.597 68.9339 151.927 70.6893 152.396 72.391C152.435 72.5327 152.386 72.6841 152.271 72.7753L145.912 77.8283L148.996 84.2589L156.892 82.4383C157.035 82.4058 157.183 82.4611 157.269 82.58C158.289 83.9935 159.453 85.3483 160.733 86.6071C160.837 86.7097 160.871 86.866 160.816 87.0028L157.829 94.5668L163.706 98.5906L169.641 93.0458C169.748 92.9465 169.906 92.9204 170.039 92.9807C171.672 93.7167 173.355 94.3127 175.039 94.7508C175.18 94.7882 175.285 94.9055 175.308 95.0504L176.492 103.09ZM182.968 84.1531C178.947 84.1531 175.021 82.9448 171.627 80.621C162.438 74.3272 160.062 61.7135 166.332 52.5015C169.368 48.0397 173.957 45.032 179.252 44.0322C184.546 43.0323 189.914 44.1608 194.365 47.2092C203.555 53.503 205.93 66.1167 199.662 75.3287C196.626 79.7905 192.037 82.7982 186.742 83.7981C185.483 84.0358 184.22 84.1531 182.968 84.1531ZM183.023 44.4067C181.815 44.4067 180.599 44.5207 179.386 44.7487C174.282 45.7127 169.86 48.6113 166.933 52.9119C160.89 61.7917 163.18 73.9494 172.038 80.0169C176.328 82.9562 181.501 84.0439 186.605 83.0799C191.709 82.1159 196.132 79.2173 199.058 74.9167C205.101 66.0369 202.811 53.8792 193.953 47.8117C190.683 45.5726 186.899 44.4067 183.023 44.4067Z" fill="#2573EF"/>
<path d="M120.88 252.492L98.5116 267.037C98.4937 267.048 98.4693 267.055 98.445 267.055L43.0531 266.918C42.9686 266.918 42.928 266.851 42.9865 266.814L65.189 252.376C65.2069 252.365 65.2313 252.358 65.2556 252.358L120.813 252.388C120.898 252.386 120.938 252.453 120.88 252.492Z" fill="#131319"/>
<path d="M98.4451 267.42L43.0516 267.283C42.8421 267.283 42.6651 267.158 42.6115 266.97C42.5595 266.794 42.631 266.609 42.7885 266.506L64.9911 252.069C65.0674 252.018 65.1583 251.992 65.2557 251.992L120.813 252.022C121.023 252.022 121.2 252.147 121.255 252.333C121.307 252.508 121.235 252.694 121.078 252.797L98.7098 267.342C98.6318 267.392 98.5409 267.42 98.4451 267.42ZM44.0518 266.553L98.3753 266.689L119.81 252.751L65.3239 252.722L44.0518 266.553ZM65.3889 252.681L65.3856 252.683C65.3873 252.681 65.3873 252.681 65.3889 252.681Z" fill="#2573EF"/>
<path d="M120.931 252.399V282.276L98.7133 296.731C98.6289 296.787 98.4844 296.748 98.4844 296.67V267.054C98.4844 267.054 120.611 252.411 120.931 252.399Z" fill="#2573EF"/>
<path d="M98.4843 296.757L42.9219 296.622L42.969 266.949L98.4843 267.055C98.4843 267.053 98.4843 296.808 98.4843 296.757Z" fill="#131319"/>
<path d="M98.4844 297.122L42.9204 296.987C42.719 296.987 42.5566 296.823 42.5566 296.621L42.6037 266.948C42.6037 266.85 42.6427 266.757 42.7109 266.689C42.7791 266.621 42.8765 266.581 42.9691 266.583L98.4844 266.689C98.6858 266.689 98.8481 266.853 98.8481 267.054V296.756C98.8481 296.854 98.8092 296.946 98.741 297.015C98.6728 297.085 98.5802 297.122 98.4844 297.122ZM43.2857 296.258L98.1207 296.391V267.418L43.3328 267.313L43.2857 296.258Z" fill="#2573EF"/>
<path d="M202.852 197.404L180.505 211.875L118.608 211.739C118.543 211.739 118.51 211.688 118.557 211.659L140.825 197.239L202.767 197.269C202.875 197.269 202.93 197.355 202.852 197.404Z" fill="#131319"/>
<path d="M180.505 212.241L118.608 212.105C118.41 212.105 118.241 211.982 118.187 211.803C118.137 211.632 118.207 211.452 118.359 211.352L140.627 196.933C140.685 196.895 140.755 196.874 140.825 196.874L202.767 196.903C202.991 196.903 203.18 197.035 203.237 197.231C203.29 197.411 203.215 197.605 203.051 197.711L180.703 212.183C180.644 212.22 180.574 212.241 180.505 212.241ZM119.665 211.377L180.397 211.512L201.827 197.635L140.932 197.605L119.665 211.377Z" fill="#2573EF"/>
<path d="M202.952 197.281V282.257L180.674 296.691C180.611 296.732 180.504 296.703 180.504 296.646V211.875C180.504 211.877 202.63 197.293 202.952 197.281Z" fill="#2573EF"/>
<path d="M180.504 296.786L118.527 296.651C118.66 296.737 118.574 211.77 118.574 211.77L180.504 211.875C180.504 211.877 180.504 296.836 180.504 296.786Z" fill="#131319"/>
<path d="M180.504 297.152L118.526 297.017C118.357 297.017 118.209 296.9 118.172 296.734C118.161 296.685 118.161 296.634 118.169 296.587C118.292 294.747 118.211 212.605 118.209 211.773C118.209 211.675 118.248 211.582 118.317 211.514C118.385 211.445 118.477 211.406 118.575 211.406L180.504 211.512C180.706 211.512 180.868 211.677 180.868 211.877V296.787C180.868 296.885 180.829 296.978 180.761 297.046C180.694 297.113 180.6 297.152 180.504 297.152ZM118.896 296.286L180.14 296.419V212.24L118.94 212.136C118.943 215.028 118.961 234.601 118.966 254.183C118.968 264.789 118.966 275.396 118.956 283.358C118.952 287.339 118.943 290.658 118.934 292.983C118.924 294.799 118.919 295.763 118.896 296.286Z" fill="#2573EF"/>
<path d="M161.254 289.02C161.133 289.02 161.016 288.961 160.947 288.852C160.838 288.683 160.887 288.456 161.055 288.347L166.697 284.693C166.866 284.584 167.091 284.633 167.2 284.802C167.309 284.971 167.26 285.198 167.091 285.307L161.45 288.961C161.388 289.002 161.32 289.02 161.254 289.02Z" fill="#2573EF"/>
<path d="M283.531 136.7L260.974 154.168L199.897 154.005C199.806 154.005 199.762 153.921 199.826 153.872L222.043 136.666L283.531 136.7Z" fill="#131319"/>
<path d="M260.974 154.533L199.898 154.37C199.695 154.37 199.518 154.247 199.456 154.064C199.396 153.888 199.454 153.699 199.605 153.582L221.822 136.376C221.886 136.327 221.965 136.3 222.045 136.3L283.531 136.336C283.687 136.336 283.825 136.435 283.875 136.583C283.926 136.731 283.877 136.894 283.753 136.99L261.197 154.458C261.134 154.505 261.056 154.533 260.974 154.533ZM200.718 153.641L260.851 153.802L282.464 137.064L222.168 137.029L200.718 153.641Z" fill="#2573EF"/>
<path d="M283.531 136.715V279.509L261.315 296.723C261.229 296.79 261.083 296.742 261.083 296.648V154.168C261.083 154.168 283.211 136.728 283.531 136.715Z" fill="#2573EF"/>
<path d="M261.083 296.755L199.748 296.594C199.881 296.697 199.795 154.041 199.795 154.041L261.083 154.168C261.083 154.168 261.083 296.814 261.083 296.755Z" fill="#131319"/>
<path d="M261.085 297.12C261.083 297.12 261.083 297.12 261.085 297.12L199.748 296.959C199.576 296.959 199.428 296.839 199.393 296.669C199.383 296.625 199.383 296.581 199.389 296.537C199.514 294.311 199.433 155.447 199.432 154.041C199.432 153.943 199.47 153.851 199.539 153.782C199.607 153.714 199.699 153.675 199.795 153.675L261.083 153.802C261.285 153.802 261.447 153.966 261.447 154.167V296.754C261.447 296.852 261.408 296.944 261.34 297.013C261.273 297.083 261.181 297.12 261.085 297.12ZM200.12 296.23L260.72 296.389V154.531L200.161 154.406C200.162 158.254 200.182 191.768 200.187 225.291C200.188 243.106 200.187 260.924 200.177 274.292C200.172 280.976 200.164 286.547 200.154 290.45C200.149 292.403 200.143 293.937 200.136 294.984C200.131 295.56 200.13 295.954 200.12 296.23Z" fill="#2573EF"/>
<path d="M225.845 279.56C225.736 279.56 225.629 279.511 225.556 279.418C225.432 279.259 225.462 279.029 225.621 278.905L243.381 265.152C243.54 265.028 243.769 265.057 243.892 265.217C244.016 265.377 243.986 265.606 243.827 265.73L226.067 279.484C226.001 279.536 225.923 279.56 225.845 279.56Z" fill="#2573EF"/>
<path d="M225.218 269.205C225.109 269.205 225.002 269.156 224.929 269.063C224.806 268.904 224.835 268.674 224.994 268.55L230.635 264.181C230.794 264.057 231.023 264.087 231.147 264.246C231.27 264.406 231.241 264.635 231.082 264.759L225.44 269.128C225.374 269.18 225.296 269.205 225.218 269.205Z" fill="#2573EF"/>
<path d="M18.3399 275.528L16.8281 288.969L22.5294 291.35L24.629 276.696L18.3399 275.528Z" fill="white"/>
<path d="M22.5298 291.714C22.4827 291.714 22.4356 291.705 22.3901 291.687L16.6905 289.306C16.5411 289.244 16.4502 289.089 16.468 288.928L17.9798 275.487C17.9912 275.386 18.0432 275.295 18.1244 275.235C18.2055 275.175 18.3078 275.15 18.4069 275.17L24.696 276.337C24.8876 276.373 25.0175 276.554 24.9899 276.748L22.8903 291.4C22.874 291.512 22.8075 291.61 22.71 291.666C22.6532 291.698 22.5915 291.714 22.5298 291.714ZM17.2215 288.738L22.2359 290.832L24.2186 276.992L18.6586 275.959L17.2215 288.738Z" fill="#2573EF"/>
<path d="M15.5016 287.7C15.3214 288.975 15.0323 291.338 15.008 293.457C14.9934 294.787 15.9888 295.911 17.3057 296.08C21.0275 296.559 29.4698 297.083 36.6601 296.429C37.1521 296.383 38.0224 296.025 38.266 294.792C39.0795 290.653 31.899 289.638 24.0283 286.637C23.7198 286.52 23.3707 286.59 23.1336 286.819L22.2843 287.643C21.4351 288.469 20.175 288.702 19.087 288.238L16.5051 287.134C16.0667 286.943 15.5698 287.225 15.5016 287.7Z" fill="white"/>
<path d="M29.1682 297.103C24.3292 297.103 19.8166 296.77 17.2607 296.441C15.7522 296.248 14.6285 294.963 14.6447 293.452C14.6691 291.297 14.9662 288.89 15.1416 287.648C15.1903 287.308 15.3884 287.016 15.6856 286.848C15.9827 286.681 16.3335 286.661 16.6485 286.795L19.2304 287.899C20.1852 288.307 21.2845 288.104 22.0315 287.379L22.8807 286.555C23.2169 286.228 23.7186 286.127 24.1587 286.295C25.9952 286.995 27.7603 287.576 29.467 288.138C34.9669 289.947 39.3106 291.377 38.6253 294.863C38.3655 296.182 37.4237 296.728 36.6962 296.793C34.2491 297.015 31.664 297.103 29.1682 297.103ZM16.2214 287.438C16.1597 287.438 16.0997 287.454 16.0444 287.485C15.9454 287.54 15.8788 287.638 15.8642 287.751C15.6921 288.977 15.3982 291.348 15.3738 293.461C15.3608 294.601 16.2117 295.572 17.3532 295.718C21.1968 296.213 29.5011 296.713 36.628 296.065C36.8002 296.049 37.6754 295.911 37.9092 294.722C38.4695 291.869 34.5983 290.595 29.2396 288.832C27.5249 288.267 25.7517 287.684 23.8989 286.977C23.7219 286.91 23.5222 286.951 23.3874 287.081L22.5381 287.905C21.5817 288.835 20.1706 289.097 18.9446 288.573L16.3627 287.469C16.3172 287.448 16.2685 287.438 16.2214 287.438Z" fill="#2573EF"/>
<path d="M15.0148 293.138C15.0148 293.138 15.0099 293.353 15.0099 293.457C14.9953 294.787 15.9907 295.911 17.3076 296.08C21.0294 296.559 29.4717 297.083 36.662 296.429C37.154 296.383 38.0244 296.025 38.268 294.792C38.3427 294.414 38.2972 293.734 38.2972 293.734L37.7873 293.76C30.5207 294.12 23.2378 293.944 15.9972 293.237L15.0148 293.138Z" fill="white"/>
<path d="M29.1682 297.103C24.3292 297.103 19.8166 296.77 17.2607 296.441C15.7522 296.248 14.6285 294.963 14.6447 293.452L14.6496 293.129C14.6512 293.028 14.6967 292.931 14.7714 292.864C14.8477 292.795 14.9467 292.761 15.049 292.773L16.0298 292.869C23.2282 293.572 30.5403 293.748 37.7663 293.39L38.2762 293.365C38.4727 293.356 38.6448 293.507 38.6578 293.706C38.6627 293.781 38.7049 294.447 38.6237 294.86C38.3639 296.179 37.4221 296.723 36.6946 296.79C34.2491 297.015 31.664 297.103 29.1682 297.103ZM15.3738 293.54C15.3998 294.644 16.2377 295.574 17.3532 295.717C21.1968 296.212 29.5011 296.712 36.628 296.064C36.8002 296.047 37.6754 295.909 37.9092 294.72C37.9401 294.564 37.9466 294.323 37.945 294.114L37.8037 294.121C30.5436 294.481 23.1941 294.303 15.9616 293.597L15.3738 293.54Z" fill="#2573EF"/>
<path d="M25.8331 291.47C25.7406 291.47 25.6464 291.434 25.5749 291.362C25.432 291.219 25.432 290.987 25.5749 290.846L28.3371 288.074C28.4783 287.931 28.7106 287.931 28.8518 288.074C28.9947 288.218 28.9947 288.449 28.8518 288.59L26.0897 291.362C26.0199 291.434 25.9273 291.47 25.8331 291.47Z" fill="#2573EF"/>
<path d="M28.5465 291.758C28.4555 291.758 28.3646 291.724 28.2931 291.656C28.1486 291.516 28.1438 291.285 28.2834 291.14L30.4902 288.84C30.6298 288.695 30.8604 288.691 31.0049 288.831C31.1495 288.971 31.1543 289.202 31.0147 289.347L28.8079 291.646C28.7381 291.721 28.6423 291.758 28.5465 291.758Z" fill="#2573EF"/>
<path d="M39.0426 186.949C39.0426 186.949 35.5725 188.968 34.2182 200.81C32.864 212.651 33.3154 226.612 23.8842 240.457C16.3513 251.514 17.0138 270.174 15.9193 282.405C15.8658 282.996 16.3188 283.507 16.9099 283.528L24.131 283.776C24.5906 283.792 25.0046 283.502 25.1459 283.063C26.4369 279.055 32.8542 259.719 40.064 248.508C47.683 236.659 56.9485 205.903 56.9485 205.903C56.9485 205.903 55.2289 198.129 54.9902 190.679C54.7531 183.228 39.0426 186.949 39.0426 186.949Z" fill="#2573EF"/>
<path d="M78.6785 241.896L75.6338 255.073L81.0233 258.095L84.7922 243.783L78.6785 241.896Z" fill="white"/>
<path d="M81.0233 258.462C80.9616 258.462 80.8999 258.445 80.8447 258.414L75.4552 255.392C75.314 255.312 75.2409 255.149 75.2782 254.991L78.3229 241.814C78.3456 241.715 78.409 241.63 78.4967 241.58C78.5844 241.529 78.6883 241.518 78.7857 241.547L84.8994 243.434C85.0862 243.491 85.1949 243.687 85.1446 243.877L81.3757 258.191C81.3465 258.3 81.2702 258.39 81.1662 258.434C81.1191 258.452 81.0721 258.462 81.0233 258.462ZM76.0512 254.889L80.7911 257.548L84.3506 244.029L78.9448 242.361L76.0512 254.889Z" fill="#2573EF"/>
<path d="M74.9879 254.295C74.8077 255.57 73.6661 257.985 73.6418 260.104C73.6271 261.434 74.6225 262.558 75.9395 262.727C79.6613 263.206 88.9544 263.678 96.1463 263.023C96.6384 262.978 97.5087 262.62 97.7523 261.387C98.5658 257.247 91.3853 256.233 83.5146 253.232C83.2061 253.114 82.857 253.184 82.6199 253.414L81.7706 254.238C80.9214 255.064 79.6613 255.297 78.5733 254.832L75.9914 253.728C75.5514 253.538 75.0545 253.821 74.9879 254.295Z" fill="white"/>
<path d="M88.0842 263.705C83.2225 263.705 78.4971 263.424 75.8925 263.088C74.384 262.894 73.2603 261.61 73.2765 260.098C73.2928 258.709 73.7669 257.205 74.1502 255.995C74.3726 255.291 74.5642 254.684 74.6259 254.243C74.673 253.902 74.8728 253.611 75.1699 253.443C75.4671 253.275 75.8178 253.256 76.1328 253.389L78.7147 254.493C79.6695 254.902 80.7689 254.699 81.5158 253.974L82.3651 253.15C82.7012 252.823 83.2014 252.722 83.6414 252.889C85.478 253.59 87.2431 254.171 88.9497 254.733C94.4496 256.542 98.7933 257.972 98.1081 261.458C97.8483 262.777 96.9064 263.323 96.179 263.388C93.6831 263.614 90.8609 263.705 88.0842 263.705ZM75.7058 254.033C75.6441 254.033 75.584 254.049 75.5288 254.08C75.4297 254.135 75.3632 254.233 75.3485 254.345C75.2771 254.847 75.0774 255.482 74.8452 256.216C74.4782 257.379 74.0203 258.827 74.0056 260.108C73.9926 261.248 74.8435 262.217 75.9851 262.365C79.361 262.8 88.7305 263.332 96.1124 262.66C96.2845 262.644 97.1598 262.505 97.3936 261.316C97.9554 258.464 94.0826 257.19 88.724 255.427C87.0092 254.863 85.236 254.278 83.3832 253.572C83.2062 253.505 83.0065 253.546 82.8717 253.674L82.0225 254.498C81.0644 255.428 79.6549 255.69 78.4289 255.166L75.8471 254.062C75.8016 254.042 75.7545 254.033 75.7058 254.033Z" fill="#2573EF"/>
<path d="M73.8449 259.696C73.8449 259.696 73.84 259.911 73.84 260.015C73.8254 261.346 74.8208 262.469 76.1377 262.639C79.8595 263.118 88.9562 263.678 96.1465 263.025C96.6385 262.979 97.5089 262.621 97.7524 261.388C97.8271 261.01 97.7817 260.33 97.7817 260.33L97.2718 260.356C90.0052 260.716 82.7223 260.54 75.4817 259.833L73.8449 259.696Z" fill="white"/>
<path d="M88.7761 263.688C83.3899 263.688 78.343 263.29 76.0908 263.001C74.5822 262.807 73.4585 261.522 73.4748 260.011L73.4797 259.688C73.4813 259.587 73.5251 259.493 73.5998 259.425C73.6745 259.356 73.7719 259.322 73.8742 259.332L75.5094 259.464C82.716 260.167 90.0297 260.343 97.2524 259.986L97.7623 259.962C97.9669 259.957 98.1309 260.104 98.1439 260.302C98.1488 260.377 98.191 261.043 98.1098 261.457C97.85 262.776 96.9082 263.321 96.1807 263.386C93.7986 263.603 91.2508 263.688 88.7761 263.688ZM74.2039 260.092C74.2266 261.2 75.0661 262.133 76.1833 262.276C79.4472 262.696 88.6121 263.342 96.1142 262.66C96.2863 262.644 97.1615 262.505 97.3953 261.317C97.4262 261.159 97.4327 260.919 97.4311 260.711L97.2898 260.718C90.0313 261.076 82.6819 260.9 75.4461 260.193L74.2039 260.092Z" fill="#2573EF"/>
<path d="M85.3185 258.064C85.2259 258.064 85.1317 258.028 85.0603 257.957C84.9174 257.813 84.9174 257.582 85.0603 257.441L87.8224 254.669C87.9637 254.526 88.1959 254.526 88.3372 254.669C88.4801 254.812 88.4801 255.044 88.3372 255.185L85.575 257.958C85.5036 258.03 85.411 258.064 85.3185 258.064Z" fill="#2573EF"/>
<path d="M88.0302 258.353C87.9393 258.353 87.8483 258.319 87.7785 258.251C87.634 258.111 87.6291 257.879 87.7688 257.734L89.9755 255.435C90.1152 255.29 90.3458 255.285 90.4903 255.425C90.6348 255.565 90.6397 255.797 90.5 255.941L88.2932 258.241C88.2218 258.316 88.126 258.353 88.0302 258.353Z" fill="#2573EF"/>
<path d="M51.1641 206.763C51.1641 206.763 68.1882 211.842 86.2955 202.091C86.8298 201.803 87.3981 202.418 87.0749 202.933C86.164 204.379 83.5577 207.931 82.1986 211.63C80.5244 216.187 76.991 239.758 75.8267 247.092C75.7212 247.755 76.2197 248.359 76.8887 248.38L83.85 248.607C84.2901 248.621 84.696 248.376 84.8877 247.977C87.3997 242.728 105.28 201.554 104.654 193.861C103.977 185.543 93.0311 185.968 89.082 185.714C84.9964 185.452 52.416 186.212 52.416 186.212L51.1641 206.763Z" fill="#2573EF"/>
<path d="M3.60501 195.845C4.16523 195.174 4.8927 194.387 5.51625 193.768C6.32329 192.969 9.01559 187.714 9.01559 187.714L13.7247 189.052C13.7247 189.052 11.5228 192.913 12.0521 194.837C12.5442 196.628 12.9323 200.409 10.3179 203.163C10.0175 203.479 9.36147 203.562 9.13251 203.508C8.4505 203.348 8.43589 202.397 8.77039 201.78L9.71384 200.036C9.79665 199.883 9.67162 199.701 9.49949 199.725C8.79313 199.824 7.23913 200.279 5.61368 202.29C4.36333 203.837 1.88375 207.291 1.04911 206.719C-0.438316 205.7 0.534355 199.515 3.60501 195.845Z" fill="#131319"/>
<path d="M1.25821 207.151C1.11045 207.151 0.972421 207.11 0.845763 207.022C0.431687 206.737 0.16538 206.188 0.0565838 205.392C-0.274676 202.964 0.881487 198.535 3.32697 195.612C3.88881 194.939 4.61304 194.154 5.26257 193.511C5.88936 192.889 7.95162 188.997 8.69371 187.549C8.77328 187.395 8.95027 187.318 9.11753 187.365L13.8266 188.704C13.9338 188.735 14.0215 188.813 14.0653 188.917C14.1075 189.022 14.0994 189.139 14.0442 189.236C13.4531 190.274 12.0063 193.286 12.4074 194.742C12.6477 195.617 13.6918 200.148 10.5871 203.417C10.1746 203.851 9.37084 203.941 9.05582 203.866C8.72618 203.788 8.46637 203.571 8.32348 203.254C8.11887 202.795 8.17084 202.134 8.45663 201.608L9.24581 200.148C8.53944 200.319 7.25013 200.855 5.90235 202.521C5.71561 202.751 5.50289 203.024 5.27231 203.319C3.53482 205.532 2.18542 207.151 1.25821 207.151ZM9.20359 188.147C8.6044 189.305 6.51778 193.291 5.77407 194.029C5.1489 194.648 4.4263 195.434 3.88556 196.079C1.63981 198.761 0.465788 203.008 0.779186 205.291C0.857129 205.859 1.02763 206.26 1.25821 206.418C1.7892 206.571 3.90342 203.879 4.69585 202.866C4.92968 202.568 5.14565 202.293 5.33239 202.06C7.01305 199.982 8.63363 199.479 9.45041 199.364C9.66638 199.333 9.8791 199.425 10.0025 199.605C10.1275 199.785 10.1405 200.017 10.035 200.21L9.09155 201.954C8.9178 202.275 8.87233 202.703 8.98275 202.953C9.03146 203.063 9.10616 203.127 9.21658 203.153C9.35785 203.185 9.86611 203.109 10.0545 202.91C12.888 199.925 11.9235 195.742 11.701 194.933C11.2382 193.252 12.6266 190.35 13.1868 189.279L9.20359 188.147Z" fill="#2573EF"/>
<path d="M116.471 136.492L113.428 131.348C112.927 130.501 111.352 130.246 110.566 130.834C93.3717 143.687 75.0809 138.445 72.2539 137.769C65.2438 136.095 61.7104 135.839 56.1764 135.502C48.0767 135.007 36.4258 139.705 28.586 147.567C22.3489 153.822 11.7112 174.109 6.88681 188.203C6.68383 188.795 6.94527 189.445 7.49899 189.735L12.3412 192.252C12.955 192.572 13.7085 192.339 14.0333 191.726C16.4966 187.072 27.1684 167.773 38.3354 161.401C39.1555 160.933 40.3912 161.428 40.3441 162.373C40.1947 165.34 38.3598 176.336 37.7996 186.525C37.7265 187.87 38.6504 189.062 39.9706 189.308L44.8567 190.217C53.3785 192.207 61.3678 189.991 64.8882 188.73C65.9664 188.344 66.4877 187.302 66.6517 186.167C66.9229 184.283 70.7064 169.178 77.6028 159.186C78.4715 157.929 79.7868 157.058 81.3099 156.968C87.4594 156.608 104.966 154.141 116.396 138.08C116.73 137.608 116.763 136.987 116.471 136.492Z" fill="#131319"/>
<path d="M12.9173 192.759C12.6656 192.759 12.4107 192.7 12.1736 192.576L7.33296 190.057C6.61198 189.682 6.28072 188.852 6.54378 188.083C11.5208 173.54 22.3111 153.343 28.329 147.308C35.8847 139.731 47.6071 134.611 56.1987 135.137C61.8675 135.484 65.4123 135.759 72.3379 137.414C72.4483 137.44 72.5831 137.474 72.7406 137.513C86.6227 140.965 99.6279 138.555 110.348 130.54C110.819 130.188 111.526 130.065 112.242 130.208C112.916 130.343 113.461 130.692 113.741 131.162L116.784 136.306C117.147 136.922 117.112 137.699 116.693 138.288C105.319 154.269 88.1751 156.927 81.3307 157.329C80.0024 157.407 78.752 158.158 77.9028 159.391C71.336 168.904 67.3674 183.752 67.0134 186.216C66.8039 187.67 66.0927 188.684 65.0128 189.072C61.0832 190.479 53.2271 192.544 44.7767 190.57L39.9069 189.665C38.4162 189.388 37.3542 188.028 37.4387 186.502C37.7992 179.945 38.6744 173.148 39.3142 168.186C39.6584 165.512 39.9312 163.4 39.9832 162.353C39.9994 162.025 39.7721 161.833 39.6341 161.749C39.3012 161.543 38.8433 161.53 38.5169 161.716C27.634 167.925 17.2724 186.387 14.356 191.897C14.0637 192.444 13.4986 192.759 12.9173 192.759ZM54.9516 135.831C46.6815 135.831 35.9155 140.731 28.8438 147.824C22.886 153.799 12.1817 173.858 7.23229 188.319C7.08777 188.743 7.26963 189.202 7.66747 189.409L12.5081 191.928C12.9417 192.154 13.4824 191.987 13.7113 191.555C16.6505 186.001 27.1014 167.389 38.1548 161.083C38.7101 160.767 39.4571 160.785 40.0141 161.128C40.4801 161.416 40.7334 161.877 40.7074 162.39C40.6538 163.465 40.3794 165.59 40.0335 168.28C39.3954 173.232 38.5218 180.013 38.1629 186.545C38.0996 187.704 38.905 188.736 40.0368 188.948L44.9229 189.857C53.2093 191.791 60.9111 189.766 64.766 188.385C65.8101 188.012 66.1706 186.943 66.2908 186.113C66.5327 184.434 70.2205 169.236 77.3036 158.975C78.2827 157.557 79.7344 156.692 81.2884 156.601C88.0273 156.206 104.909 153.59 116.1 137.865C116.352 137.511 116.374 137.047 116.157 136.681L113.114 131.537C112.943 131.247 112.563 131.019 112.099 130.926C111.592 130.825 111.087 130.902 110.784 131.128C100.039 139.161 86.4652 141.68 72.5653 138.223C72.411 138.184 72.2778 138.151 72.169 138.125C65.3019 136.485 61.7831 136.21 56.1533 135.867C55.7603 135.842 55.3592 135.831 54.9516 135.831Z" fill="#2573EF"/>
<path d="M112.283 132.895C112.218 132.512 112.354 132.125 112.648 131.872C113.038 131.54 113.695 130.974 114.648 130.137C116.331 128.661 118.435 125.715 120.268 124.833C122.102 123.949 128.755 121.343 129.818 121.897C130.882 122.45 130.354 123.703 128.844 124.431C127.334 125.158 125.367 125.906 125.367 125.906C125.367 125.906 126.467 125.842 127.279 127.116C128.09 128.389 126.965 128.904 127.439 129.534C128.047 130.342 127.868 131.28 127.386 131.692C126.288 132.63 124.956 130.777 123.964 132.693C123.274 134.025 121.645 134.893 118.339 135.527C117.453 135.696 116.607 136.038 115.842 136.518C115.525 136.717 115.124 136.732 114.798 136.548C114.012 136.1 112.643 135.035 112.283 132.895Z" fill="#131319"/>
<path d="M115.295 137.041C115.063 137.041 114.831 136.982 114.623 136.865C113.78 136.388 112.309 135.246 111.924 132.957C111.838 132.447 112.026 131.926 112.413 131.595C112.802 131.263 113.457 130.698 114.41 129.863C115.006 129.34 115.657 128.627 116.347 127.871C117.593 126.507 118.882 125.096 120.113 124.504C120.897 124.126 128.586 120.841 129.989 121.573C130.483 121.83 130.75 122.239 130.744 122.726C130.733 123.47 130.067 124.248 129.005 124.759C128.177 125.158 127.207 125.565 126.498 125.854C126.857 126.054 127.248 126.383 127.589 126.919C128.151 127.8 127.927 128.43 127.777 128.845C127.668 129.151 127.662 129.216 127.733 129.312C128.459 130.276 128.242 131.441 127.625 131.968C127.022 132.483 126.361 132.345 125.83 132.234C125.147 132.091 124.734 132.004 124.291 132.861C123.526 134.338 121.767 135.242 118.411 135.885C117.58 136.044 116.782 136.36 116.039 136.828C115.81 136.968 115.551 137.041 115.295 137.041ZM112.642 132.835C112.976 134.826 114.251 135.815 114.98 136.228C115.186 136.346 115.444 136.337 115.652 136.207C116.472 135.693 117.354 135.342 118.275 135.167C121.388 134.571 122.993 133.779 123.645 132.524C124.343 131.177 125.29 131.374 125.98 131.519C126.503 131.628 126.839 131.682 127.154 131.411C127.461 131.149 127.672 130.441 127.152 129.752C126.831 129.325 126.975 128.923 127.09 128.599C127.22 128.234 127.344 127.891 126.973 127.311C126.296 126.249 125.426 126.267 125.387 126.269C125.212 126.275 125.051 126.152 125.015 125.976C124.979 125.8 125.074 125.626 125.241 125.562C125.26 125.554 127.211 124.812 128.688 124.1C129.596 123.662 130.008 123.089 130.013 122.712C130.015 122.638 130.018 122.41 129.651 122.219C128.878 121.817 122.839 123.999 120.426 125.162C119.322 125.694 118.081 127.052 116.881 128.365C116.178 129.135 115.513 129.863 114.887 130.412C113.931 131.25 113.273 131.817 112.882 132.151C112.689 132.319 112.598 132.573 112.642 132.835Z" fill="#2573EF"/>
<path d="M67.831 121.561L58.7344 136.68C58.611 136.853 57.2746 136.806 55.7693 136.959C55.0662 137.03 54.3306 137.138 53.7216 137.237C53.2199 137.319 53.0786 137.973 53.5024 138.255L55.1311 139.336C58.5444 141.603 62.5975 142.776 66.683 142.499C67.8181 142.422 68.906 142.238 69.8738 141.935L73.3569 140.836C73.8798 140.672 73.8749 139.927 73.3521 139.768L68.9158 138.42L72.6619 130.447L67.831 121.561Z" fill="white"/>
<path d="M65.5158 142.902C61.8443 142.902 58.1274 141.764 54.9301 139.64L53.3014 138.559C52.9831 138.347 52.8289 137.97 52.9101 137.595C52.9896 137.221 53.2868 136.939 53.6635 136.877C54.4316 136.752 55.1266 136.657 55.7323 136.595C56.3542 136.532 56.9518 136.502 57.4324 136.478C57.8416 136.457 58.3011 136.434 58.4814 136.398L67.5196 121.371C67.5878 121.259 67.7047 121.194 67.8395 121.195C67.9694 121.199 68.0896 121.27 68.1513 121.386L72.9822 130.272C73.0374 130.375 73.0406 130.497 72.9919 130.603L69.426 138.193L73.4596 139.419C73.8541 139.539 74.1107 139.885 74.114 140.298C74.1156 140.712 73.8623 141.06 73.4693 141.184L69.9862 142.283C69.02 142.585 67.9174 142.78 66.7109 142.861C66.3115 142.887 65.9136 142.902 65.5158 142.902ZM67.8151 122.293L59.0465 136.867C58.8533 137.138 58.5041 137.154 57.4681 137.206C56.9956 137.23 56.4078 137.26 55.8053 137.32C55.2143 137.38 54.5323 137.473 53.7804 137.595C53.6619 137.615 53.6294 137.707 53.6213 137.747C53.6132 137.786 53.6051 137.882 53.7041 137.948L55.3328 139.03C58.7428 141.295 62.765 142.396 66.659 142.132C67.8103 142.054 68.8544 141.87 69.767 141.585L73.2501 140.486C73.3735 140.446 73.3849 140.342 73.3849 140.3C73.3849 140.258 73.3702 140.153 73.2485 140.116L68.8122 138.768C68.7115 138.737 68.6287 138.663 68.5848 138.566C68.5426 138.468 68.5426 138.357 68.5881 138.261L72.2547 130.456L67.8151 122.293Z" fill="#2573EF"/>
<path d="M71.8926 130.757C72.37 130.819 72.8604 130.838 73.3654 130.812L74.2634 130.765C74.2634 130.765 79.4142 130.079 80.2407 128.799C81.0672 127.518 79.32 122.869 79.32 122.869C80.1173 122.248 80.2943 121.463 80.1238 121.199C79.9533 120.936 78.8052 120.533 78.3392 120.19C77.9592 119.91 77.1083 117.684 76.7446 116.728C76.7446 116.728 76.0707 112.953 70.0333 113.443C56.2016 114.567 66.1459 127.404 66.1459 127.404C66.3603 127.653 66.5811 127.892 66.8084 128.12L71.8926 130.757Z" fill="white"/>
<path d="M72.9314 131.189C72.1634 131.189 71.4099 131.086 70.6824 130.883C70.4892 130.829 70.3755 130.627 70.4291 130.433C70.4827 130.239 70.6841 130.125 70.8773 130.179C71.6713 130.402 72.5011 130.49 73.3455 130.448L74.2435 130.401C76.1417 130.147 79.3991 129.43 79.9334 128.601C80.4627 127.781 79.6281 124.729 78.9786 122.998C78.9217 122.848 78.9704 122.679 79.0955 122.581C79.7174 122.096 79.8619 121.523 79.8116 121.387C79.7466 121.324 79.3407 121.13 79.0711 121.001C78.7204 120.834 78.3599 120.66 78.1228 120.485C77.7834 120.234 77.3174 119.253 76.4032 116.86C76.3951 116.839 76.3886 116.816 76.3853 116.794C76.3593 116.655 75.6692 113.354 70.0621 113.809C66.6505 114.086 64.4746 115.069 63.5944 116.732C62.107 119.544 64.4746 123.749 65.8889 126.26L66.0139 126.483C66.113 126.659 66.0513 126.882 65.8759 126.981C65.7005 127.08 65.4781 127.018 65.379 126.843L65.254 126.62C63.7649 123.978 61.274 119.557 62.9498 116.39C63.9533 114.493 66.3257 113.379 70.0021 113.081C75.9453 112.597 76.9878 116.186 77.0917 116.623C78.0384 119.101 78.4118 119.772 78.558 119.899C78.7366 120.029 79.0809 120.195 79.3861 120.342C79.9577 120.616 80.2874 120.782 80.4286 121.001C80.7079 121.435 80.4903 122.296 79.7483 122.983C80.1282 124.043 81.3591 127.737 80.5439 128.999C79.6524 130.381 74.854 131.057 74.3101 131.129L73.3829 131.179C73.2335 131.186 73.0825 131.189 72.9314 131.189Z" fill="#2573EF"/>
<path d="M67.2107 111.802C68.7192 111.504 70.4372 111.739 71.1728 111.488C72.3582 111.083 72.3306 109.716 74.0015 109.581C75.4711 109.462 76.8367 109.737 77.5788 110.866C77.7022 111.055 77.8094 111.265 77.8971 111.503C79.0549 114.693 77.4554 116.23 76.7474 116.73C76.7474 116.73 72.2673 118.888 71.4943 119.508C70.7717 120.088 69.9192 121.469 70.3836 123.467C70.4437 123.724 70.3203 123.991 70.0897 124.12C69.8202 124.271 69.4775 124.196 69.3005 123.941C68.7452 123.136 67.5257 121.579 66.6229 121.938C65.569 122.356 65.2118 125.012 67.1474 125.668C67.7433 125.87 67.9398 126.653 67.5111 127.114C67.1555 127.497 66.6099 127.766 65.7882 127.556C65.7882 127.556 60.9687 124.11 60.3987 119.57C59.8272 115.03 65.2036 112.198 67.2107 111.802Z" fill="#2573EF"/>
<path d="M247.245 107.839H234.587V141.682H247.245V107.839Z" fill="#131319"/>
<path d="M247.245 142.048H234.587C234.386 142.048 234.224 141.885 234.224 141.683V107.838C234.224 107.636 234.386 107.474 234.587 107.474H247.245C247.446 107.474 247.609 107.636 247.609 107.838V141.682C247.609 141.885 247.446 142.048 247.245 142.048ZM234.953 141.319H246.881V108.205H234.953V141.319Z" fill="#2573EF"/>
<path d="M249.916 142.197H231.786C230.439 142.197 229.346 141.101 229.346 139.75V135.157C229.346 133.806 230.439 132.71 231.786 132.71H249.916C251.264 132.71 252.357 133.806 252.357 135.157V139.75C252.357 141.101 251.264 142.197 249.916 142.197Z" fill="#131319"/>
<path d="M249.917 142.561H231.787C230.241 142.561 228.982 141.299 228.982 139.749V135.157C228.982 133.607 230.241 132.345 231.787 132.345H249.917C251.463 132.345 252.721 133.607 252.721 135.157V139.749C252.721 141.299 251.463 142.561 249.917 142.561ZM231.787 133.074C230.642 133.074 229.712 134.007 229.712 135.155V139.748C229.712 140.896 230.642 141.829 231.787 141.829H249.917C251.062 141.829 251.992 140.896 251.992 139.748V135.155C251.992 134.007 251.062 133.074 249.917 133.074H231.787Z" fill="#2573EF"/>
<path d="M264.883 148.094H216.816V144.672C216.816 142.456 218.609 140.658 220.819 140.658H260.879C263.089 140.658 264.882 142.456 264.882 144.672V148.094H264.883Z" fill="#131319"/>
<path d="M264.884 148.458H216.817C216.616 148.458 216.453 148.295 216.453 148.093V144.672C216.453 142.257 218.411 140.293 220.82 140.293H260.879C263.287 140.293 265.246 142.257 265.246 144.672V148.093C265.249 148.295 265.085 148.458 264.884 148.458ZM217.182 147.728H264.52V144.672C264.52 142.659 262.888 141.022 260.881 141.022H220.821C218.814 141.022 217.182 142.659 217.182 144.672V147.728Z" fill="#2573EF"/>
<path d="M231.143 106.186C217.865 98.7084 204.589 87.4234 194.721 75.225C188.661 67.7343 178.996 53.7185 182.347 44.0066C183.315 41.2025 185.777 37.6802 192.009 36.822C196.533 36.2 202.65 37.0598 210.191 39.377L208.546 46.0519C201.789 43.9757 196.479 43.1826 192.767 43.694C190.211 44.0457 188.652 44.9886 188.131 46.4965C186.895 50.0757 189.877 58.9115 199.321 70.5856C208.697 82.175 221.314 92.8982 233.934 100.006L231.143 106.186Z" fill="#131319"/>
<path d="M231.143 106.552C231.082 106.552 231.02 106.536 230.965 106.505C217.648 99.006 204.334 87.6886 194.438 75.4559C188.331 67.9066 178.593 53.767 182.003 43.8874C183.004 40.9872 185.545 37.3445 191.959 36.4602C196.536 35.83 202.705 36.6947 210.297 39.0283C210.482 39.0852 210.591 39.2774 210.544 39.4647L208.899 46.1395C208.874 46.2372 208.811 46.3203 208.725 46.3691C208.637 46.418 208.533 46.4294 208.439 46.4001C201.733 44.3401 196.475 43.5504 192.816 44.0552C190.408 44.3857 188.948 45.2472 188.476 46.615C187.274 50.0982 190.247 58.7907 199.604 70.3541C208.952 81.9093 221.53 92.5998 234.113 99.6867C234.277 99.7795 234.344 99.9831 234.268 100.156L231.476 106.337C231.434 106.43 231.355 106.502 231.259 106.534C231.22 106.546 231.182 106.552 231.143 106.552ZM195.077 36.9911C194.002 36.9911 192.995 37.0562 192.058 37.1849C186.009 38.017 183.625 41.4188 182.69 44.1268C179.395 53.6726 188.991 67.5646 195.002 74.9951C204.758 87.0535 217.851 98.2146 230.975 105.671L233.464 100.157C220.902 93.0265 208.368 82.3473 199.036 70.8133C189.504 59.0317 186.517 50.051 187.786 46.3757C188.356 44.7261 190.014 43.7018 192.716 43.3305C196.413 42.8208 201.648 43.5813 208.283 45.5891L209.753 39.6243C203.977 37.8737 199.058 36.9911 195.077 36.9911Z" fill="#2573EF"/>
<path d="M250.957 105.801C264.021 98.3236 277.082 87.0387 286.79 74.8402C292.751 67.3495 302.261 53.3337 298.964 43.6219C298.013 40.8177 295.59 37.2955 289.458 36.4373C285.007 35.8152 278.99 36.675 271.57 38.9923L273.188 45.6671C279.836 43.5909 285.059 42.7979 288.711 43.3092C291.225 43.6609 292.76 44.6038 293.271 46.1117C294.486 49.691 291.553 58.5267 282.263 70.2008C273.038 81.7903 260.627 92.5134 248.21 99.6214L250.957 105.801Z" fill="#131319"/>
<path d="M250.957 106.166C250.92 106.166 250.881 106.159 250.843 106.148C250.746 106.115 250.666 106.044 250.624 105.949L247.878 99.7677C247.802 99.5967 247.868 99.3948 248.031 99.302C260.409 92.2167 272.783 81.5262 281.98 69.9709C291.184 58.4059 294.11 49.7135 292.928 46.2286C292.464 44.8624 291.028 44.001 288.662 43.6704C285.062 43.1656 279.894 43.9554 273.298 46.0153C273.202 46.0446 273.098 46.0349 273.01 45.9844C272.922 45.9339 272.859 45.8509 272.836 45.7531L271.217 39.0783C271.172 38.891 271.279 38.7005 271.463 38.6435C278.934 36.31 285.005 35.4453 289.508 36.0755C295.823 36.9581 298.322 40.6025 299.308 43.5043C302.661 53.3823 293.082 67.5202 287.074 75.0679C277.338 87.3005 264.24 98.618 251.137 106.118C251.082 106.149 251.019 106.166 250.957 106.166ZM248.677 99.7726L251.126 105.283C264.034 97.8266 276.911 86.6671 286.504 74.6119C292.42 67.1798 301.859 53.2878 298.618 43.7388C297.699 41.0324 295.354 37.6306 289.408 36.7985C285.075 36.1943 279.223 37.0134 272.005 39.2395L273.45 45.2027C279.973 43.1965 285.124 42.4361 288.761 42.9458C291.423 43.317 293.056 44.3429 293.616 45.9925C294.864 49.6662 291.924 58.6453 282.548 70.4269C273.366 81.9626 261.036 92.6434 248.677 99.7726Z" fill="#2573EF"/>
<path d="M240.946 112.196C274.731 112.573 275.097 64.4408 282.365 26.0998L199.271 25.792C205.988 65.2404 207.213 112.836 240.946 112.196Z" fill="#131319"/>
<path d="M240.284 112.567C227.52 112.567 218.328 105.537 212.193 91.0967C206.667 78.0889 204.088 60.3961 201.594 43.288C200.753 37.5169 199.883 31.5504 198.913 25.8542C198.895 25.7484 198.925 25.6393 198.995 25.5562C199.064 25.4748 199.165 25.4145 199.274 25.4276L282.368 25.7353C282.477 25.7353 282.579 25.7842 282.647 25.8689C282.716 25.9519 282.745 26.0626 282.724 26.1701C281.485 32.7033 280.429 39.6371 279.41 46.3429C276.927 62.658 274.358 79.5284 268.947 91.9434C262.902 105.816 253.865 112.564 241.336 112.566C241.206 112.566 241.079 112.566 240.948 112.564C240.725 112.566 240.504 112.567 240.284 112.567ZM199.703 26.1587C200.644 31.7344 201.494 37.5511 202.314 43.1822C204.801 60.2447 207.373 77.8902 212.862 90.8101C218.948 105.138 227.665 111.836 240.253 111.838C240.48 111.838 240.707 111.836 240.938 111.831C240.941 111.831 240.944 111.831 240.949 111.831C241.084 111.833 241.219 111.833 241.352 111.833C253.717 111.833 262.28 105.409 268.278 91.6487C273.652 79.3216 276.212 62.5001 278.689 46.2306C279.687 39.6664 280.72 32.8824 281.926 26.4632L199.703 26.1587Z" fill="#2573EF"/>
<path d="M272.165 70.5462C272.14 70.5462 272.116 70.5445 272.091 70.538C271.895 70.4973 271.767 70.3051 271.807 70.1065C273.35 62.5816 274.394 54.3695 275.404 46.4293C275.778 43.4917 276.164 40.453 276.57 37.4909C276.598 37.2907 276.779 37.1506 276.981 37.1783C277.181 37.206 277.32 37.39 277.293 37.5903C276.887 40.5491 276.5 43.5845 276.127 46.5205C275.115 54.4753 274.069 62.7005 272.522 70.253C272.486 70.4273 272.333 70.5462 272.165 70.5462Z" fill="#2573EF"/>
<path d="M241.67 109.949C241.483 109.949 241.324 109.806 241.308 109.616C241.29 109.415 241.44 109.238 241.639 109.22C253.985 108.148 262.252 99.3793 267.655 81.6247C267.713 81.4325 267.916 81.3234 268.109 81.3821C268.301 81.4407 268.41 81.6459 268.351 81.838C264.891 93.2125 258.361 108.502 241.703 109.948C241.691 109.949 241.68 109.949 241.67 109.949Z" fill="#2573EF"/>
<path d="M284.287 30.372H198.15C196.521 30.372 195.199 29.0481 195.199 27.4132V22.37C195.199 20.7367 196.519 19.4111 198.15 19.4111H284.287C285.916 19.4111 287.238 20.735 287.238 22.37V27.4132C287.238 29.0465 285.916 30.372 284.287 30.372Z" fill="#131319"/>
<path d="M284.288 30.7363H198.15C196.322 30.7363 194.836 29.2447 194.836 27.4127V22.3695C194.836 20.5359 196.323 19.0459 198.15 19.0459H284.288C286.116 19.0459 287.602 20.5375 287.602 22.3695V27.4127C287.602 29.2447 286.114 30.7363 284.288 30.7363ZM198.15 19.7754C196.724 19.7754 195.563 20.9381 195.563 22.3695V27.4127C195.563 28.8424 196.723 30.0068 198.15 30.0068H284.288C285.713 30.0068 286.874 28.8441 286.874 27.4127V22.3695C286.874 20.9397 285.715 19.7754 284.288 19.7754H198.15Z" fill="#2573EF"/>
<path d="M258.896 24.298C258.696 24.298 258.534 24.1368 258.532 23.9365C258.531 23.7346 258.691 23.5701 258.893 23.5668L276.128 23.373C276.13 23.373 276.131 23.373 276.133 23.373C276.333 23.373 276.495 23.5343 276.497 23.7346C276.498 23.9365 276.337 24.1009 276.136 24.1042L258.901 24.298C258.899 24.298 258.898 24.298 258.896 24.298Z" fill="#2573EF"/>
<path d="M244.782 24.4558C244.582 24.4558 244.42 24.2946 244.418 24.0943C244.416 23.8924 244.577 23.7279 244.778 23.7247L254.379 23.6172C254.38 23.6172 254.382 23.6172 254.383 23.6172C254.583 23.6172 254.746 23.7784 254.747 23.9787C254.749 24.1806 254.588 24.3451 254.387 24.3483L244.787 24.4558C244.783 24.4558 244.783 24.4558 244.782 24.4558Z" fill="#2573EF"/>
<path d="M268.835 274.01C268.835 274.01 253.9 241.178 262.467 198.616C262.467 198.616 285.616 218.069 277.271 274.01H268.835Z" fill="#131319"/>
<path d="M277.269 274.376H268.834C268.691 274.376 268.561 274.293 268.502 274.163C268.465 274.08 264.72 265.76 262.078 252.346C259.643 239.97 257.67 220.59 262.108 198.544C262.134 198.417 262.223 198.315 262.345 198.272C262.465 198.23 262.6 198.254 262.699 198.337C262.937 198.538 268.611 203.395 273.335 215.2C277.68 226.06 281.952 245.086 277.63 274.065C277.604 274.243 277.45 274.376 277.269 274.376ZM269.072 273.645H276.956C281.178 245.003 276.956 226.208 272.659 215.472C268.775 205.763 264.154 200.751 262.695 199.328C258.448 220.981 260.393 239.994 262.79 252.179C265.18 264.332 268.476 272.268 269.072 273.645Z" fill="#2573EF"/>
<path d="M272.487 270.951C272.481 270.951 272.474 270.951 272.468 270.951C272.267 270.94 272.114 270.769 272.124 270.567C273.268 249.565 263.828 204.753 263.732 204.304C263.69 204.107 263.816 203.913 264.013 203.871C264.209 203.828 264.402 203.954 264.445 204.152C264.54 204.603 274.001 249.512 272.851 270.608C272.841 270.802 272.681 270.951 272.487 270.951Z" fill="#2573EF"/>
<path d="M283.862 220.633C283.862 220.633 264.618 255.5 276.194 270.588H282.386C282.384 270.588 294.759 243.331 283.862 220.633Z" fill="#131319"/>
<path d="M282.385 270.952H276.194C276.08 270.952 275.975 270.9 275.905 270.809C271.027 264.452 270.837 254.031 275.34 239.84C278.677 229.323 283.494 220.541 283.543 220.453C283.61 220.335 283.732 220.255 283.873 220.264C284.009 220.268 284.131 220.348 284.191 220.471C289.863 232.285 289.16 245.326 287.57 254.184C285.851 263.769 282.749 270.667 282.718 270.737C282.657 270.869 282.527 270.952 282.385 270.952ZM276.374 270.223H282.147C283.251 267.65 293.513 242.544 283.84 221.447C281.335 226.221 266.142 256.536 276.374 270.223Z" fill="#2573EF"/>
<path d="M279.085 271.878C278.89 271.878 278.729 271.723 278.721 271.526C278.338 261.609 280.723 241.387 282.18 230.216C282.206 230.016 282.386 229.874 282.589 229.902C282.788 229.928 282.928 230.112 282.902 230.312C281.449 241.46 279.067 261.635 279.448 271.498C279.456 271.7 279.299 271.869 279.099 271.878C279.094 271.878 279.089 271.878 279.085 271.878Z" fill="#2573EF"/>
<path d="M247.119 233.63C247.119 233.63 263.513 239.238 269.448 272.446H263C263 272.446 249.545 254.208 247.119 233.63Z" fill="#131319"/>
<path d="M269.449 272.812H263C262.885 272.812 262.776 272.756 262.708 272.663C262.573 272.481 249.167 254.111 246.757 233.673C246.743 233.549 246.793 233.425 246.891 233.345C246.988 233.266 247.118 233.243 247.236 233.283C247.407 233.342 251.483 234.782 256.331 240.344C260.777 245.446 266.726 255.145 269.806 272.382C269.825 272.488 269.796 272.598 269.726 272.68C269.657 272.761 269.557 272.812 269.449 272.812ZM263.187 272.082H269.014C265.948 255.319 260.162 245.866 255.828 240.877C252.124 236.614 248.831 234.803 247.56 234.213C250.016 253.243 261.929 270.322 263.187 272.082Z" fill="#2573EF"/>
<path d="M265.925 271.877C265.75 271.877 265.595 271.75 265.566 271.57C263.124 256.77 252.555 241.86 252.449 241.712C252.332 241.547 252.369 241.319 252.532 241.202C252.696 241.085 252.923 241.122 253.04 241.285C253.147 241.435 263.814 256.48 266.284 271.452C266.316 271.65 266.182 271.839 265.984 271.872C265.964 271.875 265.945 271.877 265.925 271.877Z" fill="#2573EF"/>
<path d="M253.444 269.811H293.889L294.796 288.995C295.019 293.698 291.276 297.634 286.58 297.634H263.481C257.926 297.634 253.423 293.115 253.428 287.542L253.444 269.811Z" fill="#131319"/>
<path d="M286.58 298H263.481C260.696 298 258.079 296.912 256.11 294.937C254.142 292.961 253.059 290.336 253.063 287.544L253.079 269.81C253.079 269.608 253.243 269.445 253.442 269.445H293.887C294.082 269.445 294.241 269.598 294.251 269.794L295.159 288.978C295.271 291.354 294.431 293.609 292.794 295.331C291.159 297.052 288.951 298 286.58 298ZM253.808 270.176L253.792 287.545C253.788 290.142 254.797 292.583 256.627 294.422C258.457 296.259 260.891 297.272 263.481 297.272H286.58C288.751 297.272 290.771 296.404 292.268 294.829C293.767 293.254 294.535 291.19 294.431 289.016L293.541 270.178H253.808V270.176Z" fill="#2573EF"/>
<path d="M41.5308 57.7537C41.4415 57.7537 41.3522 57.7211 41.2823 57.656C41.1346 57.5192 41.1265 57.2879 41.2645 57.1397C63.4248 33.2965 84.9437 23.2801 99.0937 19.0755C114.447 14.5143 124.71 15.6217 124.81 15.6331C125.01 15.6559 125.153 15.8366 125.13 16.0369C125.107 16.2372 124.926 16.3805 124.727 16.3577C124.627 16.3463 114.479 15.2585 99.2561 19.7888C85.2035 23.9706 63.8275 33.9316 41.7955 57.638C41.7256 57.7146 41.6282 57.7537 41.5308 57.7537Z" fill="#2573EF"/>
<path d="M46.8411 42.847C46.7405 42.847 46.6414 42.8062 46.5683 42.7248C46.4352 42.5734 46.4482 42.3438 46.5992 42.2086C70.8429 20.6044 92.8847 12.6317 107.108 9.74779C122.544 6.61635 132.386 8.63884 132.483 8.66001C132.68 8.70235 132.806 8.89613 132.764 9.09317C132.722 9.29021 132.53 9.41559 132.332 9.37488C132.236 9.35371 122.507 7.36216 107.207 10.4741C93.0828 13.3466 71.1871 21.277 47.0831 42.7558C47.0149 42.816 46.9272 42.847 46.8411 42.847Z" fill="#2573EF"/>
<path d="M143.869 4.39825C143.828 4.39825 143.788 4.39662 143.747 4.395C142.722 4.33637 142.133 3.55473 141.563 2.79752C141.025 2.08428 140.517 1.41174 139.666 1.27332C138.647 1.10885 137.822 1.84815 136.95 2.62979C135.992 3.48797 135.004 4.37708 133.645 4.17353C132.444 3.99441 131.784 3.05807 131.201 2.23409C130.643 1.44431 130.162 0.760373 129.319 0.73269C128.605 0.708264 128.038 1.17073 127.444 1.65926C126.746 2.23246 125.955 2.88057 124.862 2.65585C124.29 2.5386 123.935 2.24549 123.621 1.98657C123.313 1.73254 123.069 1.53061 122.649 1.50944C121.978 1.47525 121.254 1.9198 120.504 2.83009C120.375 2.98479 120.146 3.00759 119.99 2.87894C119.836 2.7503 119.813 2.52069 119.942 2.36436C120.848 1.26681 121.767 0.731062 122.686 0.779914C123.345 0.814111 123.738 1.13654 124.084 1.42151C124.368 1.656 124.613 1.85793 125.008 1.93935C125.761 2.09405 126.327 1.62995 126.983 1.09257C127.626 0.564964 128.356 -0.0342932 129.344 0.00153192C130.547 0.0422423 131.182 0.941128 131.796 1.8107C132.343 2.58583 132.859 3.31699 133.752 3.45052C134.77 3.60196 135.594 2.86591 136.464 2.0859C137.425 1.22447 138.421 0.333729 139.782 0.553565C140.922 0.737576 141.571 1.59901 142.143 2.35785C142.656 3.03853 143.099 3.62638 143.788 3.66709C144.757 3.72572 145.882 2.66725 147.04 0.613816C147.139 0.437947 147.362 0.376067 147.537 0.475401C147.712 0.574734 147.774 0.797827 147.675 0.973696C146.376 3.27465 145.13 4.39825 143.869 4.39825Z" fill="#2573EF"/>
<path d="M283.809 110.706C283.791 110.706 283.773 110.705 283.755 110.703C283.555 110.674 283.419 110.486 283.448 110.288L283.866 107.485C283.895 107.285 284.083 107.15 284.28 107.177C284.479 107.207 284.616 107.394 284.587 107.593L284.169 110.395C284.142 110.576 283.986 110.706 283.809 110.706Z" fill="#2573EF"/>
<path d="M282.837 117.233C282.819 117.233 282.801 117.231 282.784 117.23C282.584 117.2 282.447 117.013 282.477 116.814L282.894 114.012C282.923 113.812 283.11 113.675 283.308 113.704C283.508 113.733 283.644 113.921 283.615 114.119L283.198 116.922C283.17 117.103 283.014 117.233 282.837 117.233Z" fill="#2573EF"/>
<path d="M281.675 112.29C281.657 112.29 281.639 112.289 281.621 112.287L278.826 111.869C278.627 111.839 278.49 111.654 278.52 111.453C278.549 111.253 278.736 111.116 278.934 111.146L281.728 111.564C281.928 111.593 282.064 111.779 282.035 111.979C282.006 112.16 281.852 112.29 281.675 112.29Z" fill="#2573EF"/>
<path d="M288.183 113.264C288.166 113.264 288.148 113.262 288.13 113.261L285.335 112.842C285.136 112.813 284.999 112.626 285.028 112.427C285.058 112.227 285.244 112.09 285.442 112.119L288.237 112.538C288.437 112.567 288.573 112.754 288.544 112.953C288.516 113.134 288.36 113.264 288.183 113.264Z" fill="#2573EF"/>
<path d="M161.996 11.809C161.174 11.809 160.375 11.5354 159.706 11.016C158.066 9.74093 157.73 7.3667 158.959 5.72363C159.55 4.93222 160.414 4.42415 161.39 4.29225C162.386 4.15872 163.376 4.42741 164.18 5.05272C165.822 6.32777 166.156 8.702 164.927 10.3451C164.336 11.1365 163.472 11.6445 162.496 11.7764C162.33 11.7976 162.163 11.809 161.996 11.809ZM159.542 6.16167C158.55 7.48883 158.825 9.4071 160.153 10.4379C160.801 10.9411 161.598 11.1609 162.399 11.0518C163.18 10.946 163.871 10.5388 164.344 9.9054C165.336 8.57824 165.062 6.65996 163.733 5.62755C163.086 5.12437 162.287 4.90616 161.488 5.01364C160.708 5.12111 160.016 5.52822 159.542 6.16167Z" fill="#2573EF"/>
<path d="M298 55.4996C303.2 37.0996 288.833 35.4996 281 36.9996L280 43.4995C292.8 40.2995 294.5 45.4995 294 48.4995C292 61.6995 278.833 75.6662 272.5 80.9995L268.5 92.9995C283.3 81.3995 294.333 63.1662 298 55.4996Z" fill="#2573EF" stroke="#2573EF"/>
<path d="M183.5 55.5005C178.403 37.2404 192.822 36.0119 200.5 37.5005L201.5 44.0003C188.954 40.8247 187.01 45.5233 187.5 48.5005C189.46 61.6001 202.292 76.2077 208.5 81.5005L213 93.0005C198.494 81.4887 185 62.5005 183.5 55.5005Z" fill="#2573EF" stroke="#2573EF"/>
<path d="M217 144.5C217 142.567 218.567 141 220.5 141H261.5C263.433 141 265 142.567 265 144.5V148H217V144.5Z" fill="#2573EF"/>
</g>
<defs>
<clipPath id="clip0_64_981">
<rect width="300" height="298" fill="white"/>
</clipPath>
</defs>
</svg>
