<svg width="188" height="168" viewBox="0 0 188 168" fill="none" xmlns="http://www.w3.org/2000/svg">
<g clip-path="url(#clip0_75_619)">
<path d="M96.2806 0.366279L90.1634 1.93696L14.7984 21.2881L8.68121 22.8588C5.712 23.6248 3.16918 25.5321 1.61061 28.1625C0.0520497 30.7928 -0.394975 33.9313 0.367612 36.8894L26.8931 139.305C27.6624 142.261 29.578 144.793 32.2198 146.345C34.8615 147.897 38.0136 148.342 40.9846 147.583L41.0003 147.579L128.568 125.094L128.584 125.09C131.553 124.324 134.096 122.417 135.655 119.786C137.213 117.156 137.66 114.018 136.898 111.06L110.372 8.64402C109.603 5.68763 107.687 3.15578 105.045 1.60394C102.404 0.0520947 99.2515 -0.393009 96.2806 0.366279Z" fill="#F2F2F2"/>
<path d="M97.1128 3.57726L89.8674 5.43763L16.7586 24.2095L9.51333 26.0698C7.39888 26.6153 5.58807 27.9735 4.47817 29.8467C3.36827 31.7198 3.04993 33.9548 3.59299 36.0613L30.1185 138.477C30.6663 140.582 32.0305 142.385 33.9117 143.49C35.793 144.595 38.0377 144.912 40.1533 144.372L40.1691 144.368L127.737 121.883L127.753 121.879C129.867 121.334 131.678 119.975 132.788 118.102C133.898 116.229 134.216 113.994 133.673 111.888L107.148 9.47204C106.6 7.36674 105.236 5.56376 103.354 4.45866C101.473 3.35356 99.2285 3.03658 97.1128 3.57726Z" fill="white"/>
<path d="M91.6416 36.7421L47.3432 48.1164C46.8484 48.2434 46.3232 48.1696 45.8832 47.9111C45.4431 47.6526 45.1242 47.2306 44.9966 46.7379C44.869 46.2453 44.9432 45.7224 45.2028 45.2842C45.4624 44.8461 45.8863 44.5285 46.381 44.4015L90.6794 33.0271C91.174 32.9006 91.6988 32.9748 92.1385 33.2333C92.5782 33.4919 92.8969 33.9137 93.0244 34.406C93.1519 34.8984 93.0779 35.421 92.8186 35.859C92.5593 36.2971 92.136 36.6147 91.6416 36.7421Z" fill="#F2F2F2"/>
<path d="M100.961 41.0352L48.9672 54.3854C48.4724 54.5124 47.9473 54.4386 47.5072 54.18C47.0671 53.9215 46.7482 53.4996 46.6206 53.0069C46.493 52.5143 46.5672 51.9914 46.8268 51.5532C47.0865 51.115 47.5103 50.7975 48.005 50.6705L99.9988 37.3202C100.494 37.1932 101.019 37.2671 101.459 37.5256C101.899 37.7841 102.218 38.2061 102.345 38.6987C102.473 39.1913 102.399 39.7142 102.139 40.1524C101.88 40.5906 101.456 40.9081 100.961 41.0352Z" fill="#F2F2F2"/>
<path d="M98.918 64.8363L54.6196 76.2106C54.3746 76.2735 54.1195 76.2878 53.869 76.2526C53.6185 76.2173 53.3774 76.1333 53.1595 76.0053C52.9416 75.8773 52.7512 75.7078 52.5991 75.5065C52.4469 75.3053 52.3361 75.0761 52.2729 74.8322C52.2098 74.5883 52.1955 74.3343 52.2308 74.0849C52.2662 73.8355 52.3506 73.5954 52.4792 73.3785C52.6077 73.1615 52.7779 72.9719 52.9801 72.8204C53.1823 72.6689 53.4124 72.5586 53.6574 72.4957L97.9558 61.1214C98.2008 61.0585 98.4558 61.0442 98.7063 61.0795C98.9568 61.1147 99.1979 61.1987 99.4158 61.3267C99.6337 61.4547 99.8242 61.6242 99.9763 61.8255C100.128 62.0268 100.239 62.2559 100.302 62.4998C100.366 62.7438 100.38 62.9977 100.345 63.2471C100.309 63.4966 100.225 63.7366 100.096 63.9536C99.9676 64.1705 99.7974 64.3602 99.5953 64.5116C99.3931 64.6631 99.1629 64.7734 98.918 64.8363Z" fill="#F2F2F2"/>
<path d="M108.237 69.1293L56.2436 82.4796C55.9986 82.5425 55.7436 82.5567 55.493 82.5215C55.2425 82.4862 55.0014 82.4022 54.7835 82.2742C54.5656 82.1462 54.3752 81.9767 54.2231 81.7755C54.071 81.5742 53.9601 81.345 53.897 81.1011C53.8338 80.8572 53.8195 80.6032 53.8549 80.3538C53.8903 80.1044 53.9746 79.8643 54.1032 79.6474C54.2317 79.4304 54.402 79.2408 54.6041 79.0893C54.8063 78.9379 55.0364 78.8275 55.2814 78.7646L107.275 65.4144C107.77 65.2874 108.295 65.3612 108.735 65.6197C109.175 65.8783 109.494 66.3002 109.622 66.7929C109.749 67.2855 109.675 67.8084 109.416 68.2466C109.156 68.6848 108.732 69.0023 108.237 69.1293Z" fill="#F2F2F2"/>
<path d="M106.194 92.9305L61.8956 104.305C61.401 104.431 60.8761 104.357 60.4363 104.099C59.9965 103.84 59.6778 103.418 59.5503 102.926C59.4228 102.434 59.4968 101.911 59.7562 101.473C60.0155 101.035 60.439 100.717 60.9335 100.59L105.232 89.2156C105.727 89.0885 106.252 89.1624 106.692 89.4209C107.132 89.6794 107.451 90.1014 107.578 90.594C107.706 91.0866 107.632 91.6096 107.372 92.0477C107.113 92.4859 106.689 92.8034 106.194 92.9305Z" fill="#F2F2F2"/>
<path d="M115.513 97.2235L63.5196 110.574C63.2746 110.637 63.0194 110.651 62.7687 110.616C62.5181 110.581 62.2768 110.497 62.0587 110.369C61.8406 110.241 61.65 110.072 61.4978 109.87C61.3455 109.669 61.2346 109.44 61.1714 109.196C61.1082 108.952 61.0939 108.698 61.1293 108.448C61.1648 108.198 61.2493 107.958 61.378 107.741C61.5068 107.524 61.6772 107.335 61.8796 107.183C62.0819 107.032 62.3123 106.922 62.5575 106.859L114.551 93.5086C115.046 93.3815 115.571 93.4554 116.011 93.7139C116.451 93.9724 116.77 94.3944 116.898 94.8871C117.025 95.3797 116.951 95.9026 116.692 96.3408C116.432 96.779 116.008 97.0965 115.513 97.2235Z" fill="#F2F2F2"/>
<path d="M39.7812 59.7791L24.1044 63.8044C23.8672 63.865 23.6155 63.8295 23.4045 63.7056C23.1936 63.5817 23.0406 63.3795 22.9792 63.1434L19.3806 49.2492C19.3197 49.013 19.3554 48.7624 19.4799 48.5523C19.6043 48.3423 19.8074 48.19 20.0444 48.1288L35.7212 44.1036C35.9585 44.0429 36.2102 44.0785 36.4211 44.2024C36.632 44.3263 36.785 44.5285 36.8464 44.7645L40.445 58.6588C40.5059 58.895 40.4702 59.1456 40.3458 59.3556C40.2213 59.5657 40.0183 59.718 39.7812 59.7791Z" fill="#E6E6E6"/>
<path d="M47.0576 87.8733L31.3808 91.8986C31.1435 91.9592 30.8918 91.9237 30.6809 91.7997C30.4699 91.6758 30.317 91.4737 30.2556 91.2376L26.657 77.3433C26.5961 77.1071 26.6318 76.8565 26.7562 76.6465C26.8807 76.4365 27.0837 76.2842 27.3208 76.223L42.9976 72.1977C43.2348 72.1371 43.4865 72.1726 43.6975 72.2966C43.9084 72.4205 44.0614 72.6227 44.1228 72.8587L47.7214 86.753C47.7823 86.9892 47.7466 87.2398 47.6221 87.4498C47.4977 87.6598 47.2946 87.8121 47.0576 87.8733Z" fill="#E6E6E6"/>
<path d="M54.3339 115.967L38.6571 119.993C38.4199 120.053 38.1682 120.018 37.9573 119.894C37.7463 119.77 37.5934 119.568 37.5319 119.332L33.9333 105.438C33.8724 105.201 33.9081 104.951 34.0326 104.741C34.157 104.531 34.3601 104.378 34.5972 104.317L50.274 100.292C50.5112 100.231 50.7629 100.267 50.9738 100.391C51.1848 100.515 51.3378 100.717 51.3992 100.953L54.9978 114.847C55.0587 115.083 55.023 115.334 54.8985 115.544C54.7741 115.754 54.571 115.906 54.3339 115.967Z" fill="#E6E6E6"/>
<path d="M157.377 26.3273H66.9118C63.8446 26.3307 60.9039 27.5454 58.7351 29.7049C56.5662 31.8644 55.3462 34.7924 55.3428 37.8464V143.612C55.3462 146.666 56.5662 149.594 58.7351 151.754C60.9039 153.913 63.8446 155.128 66.9118 155.132H157.377C160.444 155.128 163.385 153.913 165.554 151.754C167.723 149.594 168.943 146.666 168.946 143.612V37.8464C168.943 34.7924 167.723 31.8644 165.554 29.7049C163.385 27.5454 160.444 26.3307 157.377 26.3273Z" fill="#E6E6E6"/>
<path d="M157.377 29.6434H66.9114C64.7272 29.6458 62.6331 30.5108 61.0886 32.0487C59.5441 33.5865 58.6753 35.6715 58.6729 37.8464V143.613C58.6753 145.787 59.5441 147.872 61.0886 149.41C62.6331 150.948 64.7272 151.813 66.9114 151.815H157.377C159.561 151.813 161.655 150.948 163.2 149.41C164.744 147.872 165.613 145.787 165.615 143.613V37.8464C165.613 35.6716 164.744 33.5865 163.2 32.0487C161.655 30.5109 159.561 29.6458 157.377 29.6434Z" fill="white"/>
<path d="M166.882 168C178.545 168 188 158.586 188 146.972C188 135.359 178.545 125.945 166.882 125.945C155.218 125.945 145.763 135.359 145.763 146.972C145.763 158.586 155.218 168 166.882 168Z" fill="#2573EF"/>
<path d="M176.982 144.23H169.636V136.916C169.636 136.188 169.346 135.491 168.829 134.976C168.313 134.462 167.612 134.173 166.881 134.173C166.151 134.173 165.45 134.462 164.934 134.976C164.417 135.491 164.127 136.188 164.127 136.916V144.23H156.781C156.05 144.23 155.35 144.519 154.833 145.033C154.317 145.547 154.026 146.245 154.026 146.972C154.026 147.7 154.317 148.397 154.833 148.912C155.35 149.426 156.05 149.715 156.781 149.715H164.127V157.029C164.127 157.756 164.417 158.454 164.934 158.968C165.45 159.483 166.151 159.772 166.881 159.772C167.612 159.772 168.313 159.483 168.829 158.968C169.346 158.454 169.636 157.756 169.636 157.029V149.715H176.982C177.712 149.715 178.413 149.426 178.929 148.912C179.446 148.397 179.736 147.7 179.736 146.972C179.736 146.245 179.446 145.547 178.929 145.033C178.413 144.519 177.712 144.23 176.982 144.23Z" fill="white"/>
<path d="M143.762 87.7616H98.0146C97.7615 87.7619 97.5107 87.7125 97.2767 87.6162C97.0427 87.52 96.8301 87.3787 96.651 87.2006C96.4719 87.0224 96.3297 86.8108 96.2328 86.578C96.1358 86.3451 96.0859 86.0955 96.0859 85.8434C96.0859 85.5913 96.1358 85.3417 96.2328 85.1088C96.3297 84.876 96.4719 84.6644 96.651 84.4863C96.8301 84.3081 97.0427 84.1668 97.2767 84.0706C97.5107 83.9743 97.7615 83.9249 98.0146 83.9252H143.762C144.273 83.9257 144.762 84.1281 145.123 84.4878C145.484 84.8474 145.687 85.335 145.687 85.8434C145.687 86.3518 145.484 86.8394 145.123 87.1991C144.762 87.5587 144.273 87.7611 143.762 87.7616Z" fill="#E6E6E6"/>
<path d="M151.709 94.2356H98.0146C97.7615 94.2359 97.5107 94.1865 97.2767 94.0902C97.0427 93.994 96.8301 93.8527 96.651 93.6746C96.4719 93.4964 96.3297 93.2848 96.2328 93.052C96.1358 92.8191 96.0859 92.5695 96.0859 92.3174C96.0859 92.0653 96.1358 91.8157 96.2328 91.5828C96.3297 91.35 96.4719 91.1384 96.651 90.9602C96.8301 90.7821 97.0427 90.6408 97.2767 90.5446C97.5107 90.4483 97.7615 90.3989 98.0146 90.3992H151.709C152.22 90.3992 152.71 90.6013 153.072 90.961C153.433 91.3207 153.636 91.8087 153.636 92.3174C153.636 92.8262 153.433 93.3141 153.072 93.6738C152.71 94.0335 152.22 94.2356 151.709 94.2356Z" fill="#E6E6E6"/>
<path d="M143.762 116.775H98.0146C97.7615 116.775 97.5107 116.726 97.2767 116.63C97.0427 116.533 96.8301 116.392 96.651 116.214C96.4719 116.036 96.3297 115.824 96.2328 115.591C96.1358 115.358 96.0859 115.109 96.0859 114.857C96.0859 114.605 96.1358 114.355 96.2328 114.122C96.3297 113.889 96.4719 113.678 96.651 113.5C96.8301 113.321 97.0427 113.18 97.2767 113.084C97.5107 112.988 97.7615 112.938 98.0146 112.938H143.762C144.273 112.938 144.763 113.141 145.125 113.5C145.486 113.86 145.689 114.348 145.689 114.857C145.689 115.365 145.486 115.853 145.125 116.213C144.763 116.573 144.273 116.775 143.762 116.775Z" fill="#E6E6E6"/>
<path d="M151.709 123.249H98.0146C97.7615 123.249 97.5107 123.2 97.2767 123.104C97.0427 123.007 96.8301 122.866 96.651 122.688C96.4719 122.51 96.3297 122.298 96.2328 122.065C96.1358 121.832 96.0859 121.583 96.0859 121.331C96.0859 121.079 96.1358 120.829 96.2328 120.596C96.3297 120.363 96.4719 120.152 96.651 119.974C96.8301 119.795 97.0427 119.654 97.2767 119.558C97.5107 119.462 97.7615 119.412 98.0146 119.412H151.709C151.963 119.412 152.213 119.462 152.447 119.558C152.681 119.654 152.894 119.795 153.073 119.974C153.252 120.152 153.394 120.363 153.491 120.596C153.588 120.829 153.638 121.079 153.638 121.331C153.638 121.583 153.588 121.832 153.491 122.065C153.394 122.298 153.252 122.51 153.073 122.688C152.894 122.866 152.681 123.007 152.447 123.104C152.213 123.2 151.963 123.249 151.709 123.249Z" fill="#E6E6E6"/>
<path d="M87.7668 97.1746H71.5771C71.3322 97.1743 71.0974 97.0773 70.9242 96.9049C70.751 96.7325 70.6536 96.4987 70.6533 96.2548V81.906C70.6536 81.6621 70.751 81.4283 70.9242 81.2559C71.0974 81.0835 71.3322 80.9865 71.5771 80.9862H87.7668C88.0117 80.9865 88.2465 81.0835 88.4197 81.2559C88.5929 81.4283 88.6903 81.6621 88.6906 81.906V96.2548C88.6903 96.4987 88.5929 96.7325 88.4197 96.9049C88.2465 97.0773 88.0117 97.1743 87.7668 97.1746Z" fill="#E6E6E6"/>
<path d="M87.7668 126.188H71.5771C71.3322 126.188 71.0974 126.091 70.9242 125.918C70.751 125.746 70.6536 125.512 70.6533 125.268V110.919C70.6536 110.675 70.751 110.442 70.9242 110.269C71.0974 110.097 71.3322 110 71.5771 110H87.7668C88.0117 110 88.2465 110.097 88.4197 110.269C88.5929 110.442 88.6903 110.675 88.6906 110.919V125.268C88.6903 125.512 88.5929 125.746 88.4197 125.918C88.2465 126.091 88.0117 126.188 87.7668 126.188Z" fill="#E6E6E6"/>
<path d="M143.813 55.4641H110.085C109.574 55.4641 109.084 55.262 108.722 54.9023C108.361 54.5425 108.158 54.0546 108.158 53.5459C108.158 53.0371 108.361 52.5492 108.722 52.1895C109.084 51.8297 109.574 51.6276 110.085 51.6276H143.813C144.324 51.6276 144.814 51.8297 145.175 52.1895C145.536 52.5492 145.739 53.0371 145.739 53.5459C145.739 54.0546 145.536 54.5425 145.175 54.9023C144.814 55.262 144.324 55.4641 143.813 55.4641Z" fill="#CCCCCC"/>
<path d="M151.76 61.9381H110.085C109.832 61.9381 109.581 61.8885 109.348 61.7921C109.114 61.6957 108.901 61.5544 108.722 61.3763C108.544 61.1982 108.402 60.9867 108.305 60.754C108.208 60.5213 108.158 60.2718 108.158 60.0199C108.158 59.768 108.208 59.5186 108.305 59.2858C108.402 59.0531 108.544 58.8416 108.722 58.6635C108.901 58.4854 109.114 58.3441 109.348 58.2477C109.581 58.1513 109.832 58.1017 110.085 58.1017H151.76C152.271 58.1017 152.761 58.3038 153.122 58.6635C153.483 59.0233 153.686 59.5112 153.686 60.0199C153.686 60.5287 153.483 61.0166 153.122 61.3763C152.761 61.7361 152.271 61.9381 151.76 61.9381Z" fill="#CCCCCC"/>
<path d="M102.621 69.7839H71.5263C71.2814 69.7836 71.0466 69.6866 70.8734 69.5142C70.7002 69.3418 70.6028 69.108 70.6025 68.8641V44.7016C70.6028 44.4578 70.7002 44.224 70.8734 44.0516C71.0466 43.8791 71.2814 43.7821 71.5263 43.7819H102.621C102.865 43.7821 103.1 43.8791 103.273 44.0516C103.447 44.224 103.544 44.4578 103.544 44.7016V68.8641C103.544 69.108 103.447 69.3418 103.273 69.5142C103.1 69.6866 102.865 69.7836 102.621 69.7839Z" fill="#2573EF"/>
</g>
<defs>
<clipPath id="clip0_75_619">
<rect width="188" height="168" fill="white"/>
</clipPath>
</defs>
</svg>
