<svg width="232" height="182" viewBox="0 0 232 182" fill="none" xmlns="http://www.w3.org/2000/svg">
<path d="M225.283 124.426C221.489 115.76 214.202 108.527 205.449 104.969C196.332 101.262 185.863 102.61 176.26 101.369C167.919 100.291 161.902 96.5522 156.921 89.9046C152.15 83.5352 147.871 76.4813 140.07 73.5346C133.905 71.2059 126.897 71.8525 120.769 74.2776C109.48 78.7483 100.952 88.2526 93.7703 97.722C87.2134 106.368 81.8655 115.834 69.7372 116.142C57.601 116.451 46.0473 109.5 33.8292 111.341C17.6801 113.776 4.22939 127.277 1.41141 143.348C-1.23024 158.41 5.39752 173.021 16.7844 181.604H212.503C226.851 166.32 234.381 145.205 225.283 124.426Z" fill="#61D0E9" fill-opacity="0.15"/>
<path d="M48.3558 181.605H48.8943C52.6332 177.478 55.563 172.471 57.4238 166.913C60.437 157.916 60.311 148.473 57.0664 140.325C55.426 136.207 53.0598 132.37 50.7692 128.659C48.4472 124.894 46.0464 121.002 44.417 116.832C43.7432 115.107 43.2457 113.256 42.9466 111.367C42.8112 111.349 42.6758 111.335 42.542 111.318C42.8427 113.275 43.3543 115.193 44.0517 116.976C45.6937 121.179 48.1055 125.087 50.4371 128.866C52.7182 132.562 55.0765 136.386 56.7027 140.471C59.9127 148.532 60.0371 157.876 57.0522 166.786C55.1662 172.413 52.1751 177.468 48.3558 181.605Z" fill="white"/>
<path d="M211.557 164.464C215.59 165.327 219.475 166.101 223.233 166.587C223.298 166.463 223.361 166.338 223.424 166.213C219.634 165.729 215.711 164.95 211.638 164.077C205.436 162.751 198.723 161.314 192.064 161.314C187.941 161.314 183.84 161.864 179.894 163.332C178.4 163.889 176.958 164.594 175.587 165.435C172.025 163.911 168.443 162.246 164.896 160.419C167.47 158.471 170.072 156.565 172.702 154.721C192.22 141.036 210.233 133.277 227.635 131.075C227.6 130.946 227.564 130.818 227.528 130.69C210.078 132.91 192.028 140.689 172.478 154.397C169.792 156.28 167.136 158.229 164.509 160.218C160.52 158.149 156.578 155.874 152.762 153.363C145.841 148.81 137.611 142.311 130.422 133.675C158.279 130.537 186.64 126.583 209.801 111.038C210.681 110.449 211.656 109.752 212.665 108.963C212.553 108.884 212.44 108.805 212.328 108.726C211.361 109.478 210.428 110.142 209.584 110.71C186.429 126.25 158.015 130.173 130.123 133.311C125.043 127.141 120.504 119.895 117.351 111.505C112.438 98.4357 112.697 85.6116 118.063 76.3176C118.296 75.9145 118.541 75.5161 118.795 75.124C118.571 75.2268 118.349 75.3343 118.127 75.4418C117.989 75.6663 117.853 75.8923 117.723 76.12C112.298 85.5167 112.028 98.4641 116.983 111.644C120.12 119.988 124.618 127.206 129.656 133.364C128.041 133.545 126.425 133.724 124.816 133.903C119.009 134.546 113.001 135.212 107.17 135.966C105.042 136.241 102.877 136.562 100.722 136.965C96.1045 127.178 91.0321 117.631 84.4752 109.442C84.3807 109.535 84.2863 109.627 84.1918 109.72C90.692 117.846 95.7329 127.323 100.324 137.041C90.9282 138.84 81.8052 142.223 76.9343 150.096C72.3846 157.448 72.3893 167.612 76.9469 180.303C77.1043 180.743 77.2665 181.174 77.4318 181.604H77.8537C77.6727 181.135 77.4932 180.659 77.3184 180.169C72.8034 167.596 72.7876 157.548 77.2696 150.303C82.0823 142.523 91.1565 139.186 100.5 137.409C102.131 140.871 103.705 144.363 105.27 147.833L105.44 148.211C110.876 160.261 116.498 171.888 123.858 181.606H124.349C116.921 171.871 111.268 160.174 105.797 148.048L105.627 147.671C104.075 144.231 102.513 140.768 100.898 137.335C103.011 136.943 105.135 136.628 107.222 136.359C113.05 135.605 119.054 134.94 124.862 134.296C126.558 134.108 128.258 133.92 129.958 133.729C137.215 142.5 145.551 149.089 152.551 153.694C156.324 156.177 160.222 158.43 164.166 160.482C157.47 165.568 150.959 170.917 144.6 176.141C142.398 177.949 140.172 179.777 137.927 181.604H138.55C140.668 179.879 142.77 178.155 144.849 176.447C151.252 171.188 157.81 165.799 164.553 160.684C168.081 162.507 171.642 164.169 175.186 165.691C170.339 168.786 166.387 173.581 163.999 179.402C163.7 180.131 163.438 180.868 163.198 181.606H163.612C163.84 180.918 164.084 180.232 164.363 179.552C166.757 173.716 170.742 168.926 175.627 165.879C185.532 170.105 195.266 173.241 203.632 175.726L203.946 175.82C207.471 176.866 211.076 177.94 214.266 179.661C214.356 179.559 214.445 179.457 214.534 179.355C211.292 177.589 207.635 176.501 204.058 175.44L203.743 175.347C195.464 172.887 185.841 169.789 176.042 165.626C177.319 164.863 178.656 164.219 180.038 163.704C190.244 159.905 201.568 162.327 211.557 164.464Z" fill="white"/>
<path d="M17.7706 138.863C19.5086 146.009 18.7341 153.725 15.6421 160.034C13.6176 164.167 10.6942 167.909 7.09375 171.121C7.16617 171.233 7.23859 171.344 7.311 171.455C10.9697 168.199 13.9403 164.404 15.9948 160.208C19.126 153.817 19.9116 146.002 18.1516 138.768C16.7772 133.117 14.0128 128.33 10.192 124.866C10.1069 124.967 10.0219 125.068 9.93849 125.17C13.6948 128.581 16.4151 133.295 17.7706 138.863Z" fill="white"/>
<path d="M222.246 31.4328C220.614 25.9846 217.744 20.9825 213.637 16.4098C209.52 11.8371 203.906 8.06132 196.794 5.07551C189.682 2.0897 180.646 0.596802 169.686 0.596802C160.942 0.596802 152.032 1.78102 142.954 4.14946C133.867 6.52632 125.985 9.9064 119.301 14.2995L128.003 38.2898L123.339 42.0838L130.103 44.0804C136.779 40.5713 142.863 38.0232 148.351 36.4363C153.831 34.8578 159.655 34.0679 165.829 34.0679C171.996 34.0679 176.665 35.5608 179.836 38.5466C183.006 41.5408 184.588 45.1356 184.588 49.3575C184.588 54.4536 182.956 58.9758 179.71 62.9312C176.447 66.8865 172.849 70.884 168.908 74.9249C166.172 77.7311 163.511 80.6299 160.942 83.6157C158.374 86.61 156.098 89.8104 154.132 93.2424C152.157 96.666 150.576 100.355 149.38 104.31C148.175 108.265 147.581 112.701 147.581 117.617C147.581 119.204 147.615 121.091 147.707 123.289C147.722 123.694 147.743 124.088 147.767 124.478H141.373L148.351 129.217H182.279C182.103 128.162 182.019 126.934 182.019 125.528C182.019 124.121 182.019 123.065 182.019 122.362C182.019 119.377 182.622 116.434 183.818 113.534C185.014 110.634 186.52 107.871 188.32 105.229C190.118 102.596 192.127 100.09 194.36 97.7225C196.586 95.3457 198.728 93.1063 200.786 90.9961C203.522 88.1899 206.35 85.2055 209.262 82.0386C212.174 78.8732 214.75 75.5437 216.976 72.0261C219.202 68.5085 221.042 64.6906 222.498 60.5557C223.954 56.4292 224.69 51.907 224.69 46.9821C224.689 42.0628 223.869 36.8811 222.246 31.4328Z" fill="#36B8E1"/>
<path d="M158.644 32.3921C152.543 32.3921 146.787 33.1554 141.372 34.6834C135.947 36.2198 129.936 38.685 123.337 42.0819L112.662 13.2607C119.268 9.00934 127.058 5.7373 136.038 3.43761C145.01 1.14634 153.815 0 162.456 0C173.288 0 182.219 1.4452 189.247 4.33419C196.275 7.22318 201.824 10.8769 205.893 15.3023C209.953 19.7277 212.788 24.5684 214.401 29.8412C216.005 35.1141 216.815 40.1288 216.815 44.8867C216.815 49.6531 216.087 54.0294 214.649 58.0226C213.21 62.0243 211.391 65.72 209.192 69.124C206.992 72.5279 204.445 75.7494 201.568 78.8138C198.691 81.8782 195.895 84.7672 193.192 87.4822C191.157 89.5251 189.04 91.6915 186.841 93.9926C184.633 96.2839 182.649 98.7085 180.871 101.258C179.093 103.816 177.604 106.489 176.422 109.295C175.24 112.101 174.644 114.949 174.644 117.838C174.644 118.519 174.644 119.54 174.644 120.903C174.644 122.265 174.727 123.452 174.9 124.474H141.37C141.022 122.772 140.817 120.862 140.733 118.736C140.642 116.611 140.609 114.784 140.609 113.247C140.609 108.49 141.195 104.197 142.386 100.368C143.568 96.5407 145.132 92.9698 147.082 89.657C149.026 86.3359 151.274 83.2392 153.813 80.3404C156.352 77.4514 158.981 74.6438 161.685 71.9288C165.579 68.0183 169.135 64.1486 172.36 60.3209C175.568 56.4932 177.18 52.1169 177.18 47.185C177.18 43.0992 175.618 39.6209 172.484 36.7235C169.353 33.8373 164.739 32.3921 158.644 32.3921Z" fill="#61D0E9"/>
<path d="M184.599 162.284C184.599 168.427 182.619 173.167 178.658 176.51C174.698 179.861 170.221 181.529 165.223 181.529C160.218 181.529 155.743 179.861 151.783 176.51C147.829 173.167 145.849 168.427 145.849 162.284C145.849 156.149 147.829 151.409 151.783 148.058C157.879 142.892 166.898 141.741 174.035 145.367C180.369 148.586 184.599 155.119 184.599 162.284Z" fill="#36B8E1"/>
<path d="M177.961 162.285C177.961 168.428 175.981 173.167 172.02 176.511C168.06 179.861 163.583 181.53 158.585 181.53C153.58 181.53 149.105 179.861 145.145 176.511C141.191 173.167 139.211 168.428 139.211 162.285C139.211 156.149 141.191 151.409 145.145 148.059C149.105 144.715 153.582 143.04 158.585 143.04C163.583 143.04 168.059 144.715 172.02 148.059C175.981 151.411 177.961 156.15 177.961 162.285Z" fill="#61D0E9"/>
<path d="M59.8745 61.7281C60.2933 59.484 58.8212 57.3238 56.5864 56.9033C54.3517 56.4827 52.2005 57.961 51.7817 60.2051C51.3629 62.4492 52.8351 64.6094 55.0698 65.0299C57.3046 65.4505 59.4557 63.9722 59.8745 61.7281Z" fill="#61D0E9" fill-opacity="0.23"/>
<path d="M61.8427 69.4982C62.0784 68.2356 61.2432 67.019 59.9773 66.7808C58.7115 66.5426 57.4943 67.373 57.2587 68.6355C57.023 69.8981 57.8582 71.1147 59.1241 71.353C60.3899 71.5912 61.6071 70.7608 61.8427 69.4982Z" fill="#61D0E9" fill-opacity="0.23"/>
<path d="M57.1281 51.667C63.458 45.3106 63.458 35.0048 57.1281 28.6484C50.7982 22.292 40.5354 22.292 34.2054 28.6484C27.8755 35.0048 27.8755 45.3106 34.2055 51.667C40.5354 58.0234 50.7982 58.0234 57.1281 51.667Z" fill="#61D0E9" fill-opacity="0.23"/>
<path d="M39.4445 42.2082C40.5724 42.2082 41.4867 41.29 41.4867 40.1574C41.4867 39.0248 40.5724 38.1067 39.4445 38.1067C38.3167 38.1067 37.4023 39.0248 37.4023 40.1574C37.4023 41.29 38.3167 42.2082 39.4445 42.2082Z" fill="white"/>
<path d="M45.6682 42.208C46.796 42.208 47.7104 41.2899 47.7104 40.1573C47.7104 39.0247 46.796 38.1066 45.6682 38.1066C44.5403 38.1066 43.626 39.0247 43.626 40.1573C43.626 41.2899 44.5403 42.208 45.6682 42.208Z" fill="white"/>
<path d="M51.8928 42.208C53.0207 42.208 53.935 41.2899 53.935 40.1573C53.935 39.0247 53.0207 38.1066 51.8928 38.1066C50.7649 38.1066 49.8506 39.0247 49.8506 40.1573C49.8506 41.2899 50.7649 42.208 51.8928 42.208Z" fill="white"/>
<path d="M34.0573 173.381L35.5718 179.245C35.9669 180.773 37.4389 181.807 39.0683 181.695C44.0336 181.357 54.3515 180.135 60.2739 175.751L58.591 167.301C50.4488 166.839 42.8355 167.295 36.2408 169.522C34.5878 170.082 33.6338 171.743 34.0573 173.381Z" fill="#102048"/>
<path d="M43.5449 178.047C43.4583 178.047 43.3796 177.99 43.356 177.903L41.322 170.592C41.2921 170.486 41.3535 170.378 41.459 170.348C41.5645 170.32 41.6731 170.38 41.7014 170.486L43.7354 177.798C43.7653 177.903 43.7039 178.011 43.5985 178.041C43.5811 178.046 43.5638 178.047 43.5449 178.047Z" fill="white"/>
<path d="M47.9414 177.059C47.8548 177.059 47.7761 177.002 47.7525 176.916L45.7185 169.604C45.6886 169.498 45.75 169.391 45.8555 169.361C45.9609 169.33 46.0696 169.392 46.0979 169.498L48.1319 176.81C48.1618 176.916 48.1004 177.023 47.9949 177.053C47.9776 177.058 47.9587 177.059 47.9414 177.059Z" fill="white"/>
<path d="M53.045 141.688L34.1221 147.329L48.1758 166.665L68.3519 168.276L96.1806 156.46L85.6045 140.481L53.045 141.688Z" fill="#61D0E9"/>
<path d="M76.3758 144.373C117.934 132.02 124.612 168.902 59.7717 175.616C57.4811 173.028 54.8048 168.538 53.7422 164.784L87.983 148.894L76.3758 144.373Z" fill="#61D0E9"/>
<path d="M78.141 170.807C76.1968 170.182 74.3344 168.948 74.3344 168.948L67.6562 171.052L69.1865 178.348L76.1244 179.763C78.2386 175.88 78.3614 172.691 78.141 170.807Z" fill="#F9B384"/>
<path d="M53.8917 165.04L53.5957 164.528C60.7398 160.359 79.0362 150.344 94.6264 147.39L94.7366 147.973C79.2346 150.909 61.0075 160.887 53.8917 165.04Z" fill="#36B8E1"/>
<path d="M53.0457 141.688C14.3638 134.302 4.34497 171.633 69.1868 178.347C71.4774 175.759 73.2721 172.702 74.3348 168.947C64.3742 162.255 53.2377 155.894 41.0338 149.834L53.0457 141.688Z" fill="#61D0E9"/>
<path d="M74.1769 169.196C72.3366 168.02 70.4191 166.777 68.3898 165.461C58.1994 158.854 46.6504 151.365 36.8379 147.095L37.0725 146.552C46.9291 150.841 58.5001 158.343 68.7094 164.963C70.7387 166.278 72.6546 167.52 74.4933 168.697L74.1769 169.196Z" fill="#36B8E1"/>
<path d="M24.6648 160.196L24.1484 159.91C25.5999 157.27 27.9267 155.49 31.0611 154.619L31.2186 155.19C28.1991 156.029 26.0565 157.667 24.6648 160.196Z" fill="#36B8E1"/>
<path d="M105.4 157.95C104.009 155.421 101.865 153.783 98.8467 152.943L99.0041 152.373C102.139 153.244 104.465 155.026 105.917 157.664L105.4 157.95Z" fill="#36B8E1"/>
<path d="M65.5642 178.019L65.1328 177.615C68.2279 174.287 70.128 170.774 70.9435 166.874L71.5213 166.996C70.6822 171.003 68.7348 174.609 65.5642 178.019Z" fill="#36B8E1"/>
<path d="M97.433 168.634C92.4771 165.559 82.8693 170.872 80.4574 171.141C79.7537 171.22 78.9414 171.065 78.1417 170.808C78.3621 172.694 78.2393 175.881 76.125 179.763L77.3041 180.004C77.3041 180.004 85.4511 183.003 94.094 181.257C102.071 179.645 101.329 171.051 97.433 168.634Z" fill="#102048"/>
<path d="M90.6769 178.691C90.658 178.691 90.6376 178.688 90.6171 178.682C90.5132 178.649 90.4565 178.538 90.488 178.434C91.0768 176.562 91.3334 172.879 89.6285 170.405C89.5671 170.314 89.5891 170.191 89.6788 170.129C89.7686 170.068 89.8914 170.09 89.9528 170.18C91.738 172.771 91.4767 176.606 90.8643 178.552C90.8375 178.636 90.7604 178.691 90.6769 178.691Z" fill="white"/>
<path d="M86.7912 179.431C86.7723 179.431 86.7518 179.428 86.7314 179.421C86.6275 179.388 86.5708 179.278 86.6023 179.173C87.1911 177.301 87.4477 173.618 85.7427 171.144C85.6813 171.054 85.7034 170.93 85.7931 170.869C85.8828 170.807 86.0056 170.829 86.067 170.919C87.8523 173.51 87.5909 177.346 86.9785 179.292C86.9533 179.377 86.8746 179.431 86.7912 179.431Z" fill="white"/>
<path d="M46.2016 93.5564C46.2016 93.5564 55.9433 85.2378 55.5828 83.657C55.3246 82.5266 52.5649 84.1834 52.5649 84.1834C52.5649 84.1834 56.4345 79.572 56.2377 79.0123C55.8866 78.0116 53.2087 79.8771 53.2087 79.8771C53.2087 79.8771 55.0176 77.2623 54.1533 76.8354C53.289 76.4086 51.403 78.0211 51.403 78.0211C51.403 78.0211 52.505 76.5699 51.9871 76.1889C51.4692 75.8079 49.2368 77.3745 49.2368 77.3745C49.2368 77.3745 50.0381 75.5439 48.3363 76.2379C46.6345 76.9319 34.6982 87.9316 34.6982 87.9316L46.2016 93.5564Z" fill="#F9B384"/>
<path d="M50.188 83.6905C50.1408 83.6905 50.0936 83.6731 50.0558 83.6383C48.3836 82.103 47.6451 81.7314 45.8013 81.1606C45.6974 81.129 45.6392 81.0183 45.6707 80.914C45.7021 80.8096 45.8124 80.7511 45.9163 80.7827C47.8278 81.3725 48.5914 81.7583 50.3219 83.3458C50.4022 83.4201 50.4085 83.545 50.3345 83.6256C50.2951 83.6683 50.2416 83.6905 50.188 83.6905Z" fill="#E28B6D"/>
<path d="M47.2526 88.2023C47.2432 88.2023 47.2337 88.2023 47.2259 88.2007C47.1188 88.1849 47.0432 88.0853 47.0574 87.9778C47.2495 86.6022 47.6809 85.742 48.3753 85.3499C48.9705 85.0147 49.7436 85.0479 50.6757 85.4527C50.7749 85.4954 50.8221 85.6124 50.778 85.712C50.7355 85.8116 50.619 85.859 50.5198 85.8148C49.7073 85.4622 49.0508 85.421 48.5689 85.6946C47.9958 86.0187 47.6179 86.8046 47.4479 88.0331C47.4337 88.1311 47.3487 88.2023 47.2526 88.2023Z" fill="#E28B6D"/>
<path d="M46.7924 79.8867C46.7404 79.8867 46.6885 79.8662 46.6491 79.825C46.5751 79.746 46.5783 79.6211 46.657 79.5452L49.1023 77.232C49.181 77.1561 49.3054 77.1608 49.381 77.2399C49.455 77.3189 49.4518 77.4439 49.3731 77.5197L46.9278 79.833C46.89 79.8677 46.8412 79.8867 46.7924 79.8867Z" fill="#E28B6D"/>
<path d="M49.0568 80.6776C49.008 80.6776 48.9592 80.6586 48.9198 80.6222C48.8411 80.5464 48.8395 80.4214 48.9135 80.3424L51.2628 77.8853C51.3384 77.8062 51.4627 77.8031 51.5415 77.879C51.6202 77.9549 51.6218 78.0798 51.5478 78.1588L49.1985 80.6159C49.1592 80.657 49.1072 80.6776 49.0568 80.6776Z" fill="#E28B6D"/>
<path d="M51.3678 82.0601C51.319 82.0601 51.2718 82.0427 51.234 82.0064C51.1553 81.9321 51.1505 81.8072 51.2245 81.7265L53.0668 79.7422C53.1408 79.6631 53.2652 79.6584 53.3455 79.7327C53.4242 79.807 53.4289 79.9319 53.3549 80.0126L51.5127 81.9969C51.4733 82.038 51.4214 82.0601 51.3678 82.0601Z" fill="#E28B6D"/>
<path d="M83.0023 149.197L47.384 150.58L43.4482 117.974C43.4482 117.974 55.3719 106.617 59.9594 102.434L67.7049 102.036C91.7333 113.002 87.7992 126.701 83.0023 149.197Z" fill="#2573EF"/>
<path d="M67.7051 102.036C67.7051 102.036 95.1953 104.396 103.862 123.31C112.343 141.817 77.4924 148.406 77.4924 148.406L67.7051 102.036Z" fill="#2573EF"/>
<path d="M36.2819 106.088L47.642 92.2059L37.0187 85.7417C32.5871 88.8355 24.0182 95.8435 16.756 103.78C15.1534 105.531 13.9003 107.577 13.2705 109.83C12.7321 111.752 12.6345 113.651 12.9368 115.51C13.7255 120.357 17.5211 124.095 22.5888 124.691C26.9165 125.2 43.4481 123.901 56.8296 119.949L60.7653 104.695C58.7423 103.544 43.7126 103.343 36.2819 106.088Z" fill="#2573EF"/>
<g opacity="0.8">
<path d="M90.645 109.541C90.7048 109.526 90.7631 109.514 90.8229 109.499C90.6985 109.425 90.5742 109.354 90.4498 109.281C88.4347 109.748 86.3566 110.223 84.3069 110.472C83.0758 110.62 78.9606 110.894 77.7594 108.141C77.1612 106.772 77.6146 105.248 78.29 104.18C78.1908 104.151 78.0932 104.123 77.9956 104.094C77.3029 105.226 76.8574 106.815 77.4887 108.26C78.7717 111.2 83.0601 110.922 84.3431 110.766C86.4511 110.511 88.5843 110.018 90.645 109.541Z" fill="white"/>
<path d="M103.475 130.872C102.162 130.362 100.805 129.834 99.379 129.97C96.8775 130.208 94.7364 132.693 94.6058 135.508C94.5176 137.429 95.2481 139.441 96.6398 141.21C96.7232 141.158 96.8066 141.105 96.8901 141.051C95.5283 139.331 94.8136 137.378 94.9002 135.521C95.023 132.846 97.0444 130.487 99.4058 130.264C100.761 130.138 102.029 130.628 103.368 131.147C103.847 131.332 104.333 131.52 104.828 131.678C104.853 131.583 104.878 131.486 104.902 131.39C104.418 131.237 103.943 131.053 103.475 130.872Z" fill="white"/>
<path d="M34.0894 121.444C32.3734 120.018 29.7066 119.637 26.7737 120.399C24.1604 121.078 21.9186 122.423 20.3789 124.201C20.4797 124.235 20.5788 124.271 20.6812 124.301C22.1799 122.613 24.3382 121.337 26.8477 120.686C29.6861 119.947 32.2585 120.308 33.9005 121.672C34.6813 122.32 35.2339 123.163 35.6354 124.07C35.7361 124.059 35.8384 124.046 35.9408 124.035C35.5204 123.06 34.9348 122.148 34.0894 121.444Z" fill="white"/>
<path d="M18.5723 101.841C21.7885 101.038 24.9261 99.9106 27.8212 98.2364C28.9154 97.6041 30.1496 96.7978 31.0186 95.6137C31.9427 94.3538 32.2497 92.8535 31.8404 91.6015C31.6798 91.1098 31.3949 90.6783 31.0391 90.3336C30.9635 90.3953 30.8879 90.4585 30.8124 90.5202C31.1445 90.8379 31.4106 91.2379 31.5602 91.6948C31.9396 92.8567 31.6499 94.2558 30.7825 95.4383C29.9465 96.5781 28.7422 97.3638 27.6748 97.9803C24.945 99.5596 21.9916 100.652 18.958 101.441C18.8289 101.574 18.7014 101.708 18.5723 101.841Z" fill="white"/>
</g>
<path d="M70.2203 94.7863L70.2156 95.2922L70.1353 103.154L70.1259 104.006C70.1101 105.339 69.567 106.546 68.6886 107.424C67.8148 108.295 66.6121 108.842 65.2802 108.851C62.5961 108.866 60.3999 106.701 60.3747 104.001L60.2803 94.2852L70.2203 94.7863Z" fill="#F9B384"/>
<path d="M70.2154 95.2917L70.1351 103.153C65.7837 101.375 63.9922 96.645 63.9922 96.645L70.2154 95.2917Z" fill="#102048"/>
<path d="M71.9364 81.5733C73.495 83.453 78.0494 94.1002 73.4336 97.733C68.24 101.821 60.3355 95.1025 60.3355 95.1025L59.2744 82.7005L66.1352 80.884L71.9364 81.5733Z" fill="#F9B384"/>
<path d="M55.7798 80.8904C55.7798 80.8904 40.5611 88.8612 52.9697 111.836C54.5629 114.788 58.094 116.074 61.1135 114.636C64.3534 113.091 65.5798 109.117 63.8197 105.979C61.7904 102.359 59.8304 97.6951 60.668 94.2267L55.7798 80.8904Z" fill="#102048"/>
<path d="M60.1274 87.5866C61.7351 85.9722 61.7351 83.3547 60.1274 81.7403C58.5198 80.1259 55.9132 80.1259 54.3055 81.7403C52.6978 83.3547 52.6978 85.9722 54.3055 87.5866C55.9132 89.201 58.5197 89.201 60.1274 87.5866Z" fill="#FBC343"/>
<path d="M62.2814 89.6293C61.8359 87.0509 61.5651 85.2819 64.1611 83.9524C64.1611 83.9524 73.3093 85.6234 75.0552 82.1565C76.8011 78.6912 74.1406 73.2214 68.5691 77.0202C54.3061 74.2221 52.3933 87.6264 56.7179 92.0939L60.9858 91.4363C61.8454 91.3051 62.4294 90.4893 62.2814 89.6293Z" fill="#102048"/>
<path d="M69.3646 90.2482C69.7003 90.2482 69.9724 89.975 69.9724 89.6379C69.9724 89.3008 69.7003 89.0276 69.3646 89.0276C69.0289 89.0276 68.7568 89.3008 68.7568 89.6379C68.7568 89.975 69.0289 90.2482 69.3646 90.2482Z" fill="#102048"/>
<path d="M73.4818 88.2114C73.8175 88.2114 74.0896 87.9381 74.0896 87.601C74.0896 87.264 73.8175 86.9907 73.4818 86.9907C73.1461 86.9907 72.874 87.264 72.874 87.601C72.874 87.9381 73.1461 88.2114 73.4818 88.2114Z" fill="#102048"/>
<path d="M73.0598 91.5174C73.0173 91.5174 72.9748 91.5015 72.9417 91.4699C72.8724 91.4035 72.8693 91.2944 72.9354 91.2248C73.1795 90.9671 73.4471 90.605 73.3338 90.341C73.2173 90.0674 72.7244 89.9504 72.4977 89.9504C72.0127 89.9504 71.7797 89.084 71.7372 88.91C71.7151 88.8168 71.7718 88.7235 71.8647 88.7013C71.9576 88.6776 72.0505 88.7361 72.0726 88.8294C72.1607 89.1962 72.3623 89.6057 72.4977 89.6057C72.7307 89.6057 73.4408 89.7164 73.6503 90.2066C73.7998 90.556 73.644 90.9797 73.1842 91.4652C73.1511 91.4999 73.1055 91.5174 73.0598 91.5174Z" fill="#102048"/>
<path d="M73.0923 93.8346C73.0592 93.8346 73.0262 93.8251 72.9963 93.8045C71.8516 93.0282 70.6943 93.6796 70.6833 93.6859C70.6014 93.7334 70.4959 93.7049 70.4486 93.6227C70.4014 93.5405 70.4298 93.4345 70.5116 93.3871C70.5667 93.3555 71.8673 92.6234 73.1899 93.5183C73.2687 93.5721 73.2891 93.6796 73.2356 93.7587C73.2025 93.8077 73.1474 93.8346 73.0923 93.8346Z" fill="#102048"/>
<path d="M69.0993 86.9921C69.4457 87.6467 68.8427 87.7779 68.1357 88.1542C67.4287 88.5305 66.706 88.6697 66.5407 88.3566C66.3754 88.0451 66.8146 87.487 67.5216 87.1091C68.2286 86.7312 68.8317 86.4861 69.0993 86.9921Z" fill="#102048"/>
<path d="M71.6747 85.8119C71.8274 86.3953 72.2604 86.1408 72.8902 85.9747C73.52 85.8087 74.0302 85.4909 73.9578 85.2126C73.8853 84.9344 73.3154 84.8426 72.684 85.0087C72.0541 85.1747 71.5566 85.3613 71.6747 85.8119Z" fill="#102048"/>
<path opacity="0.4" d="M67.7795 93.8113C68.5076 93.137 68.5534 91.9976 67.8819 91.2665C67.2104 90.5353 66.0757 90.4893 65.3476 91.1636C64.6195 91.838 64.5737 92.9774 65.2452 93.7085C65.9168 94.4396 67.0514 94.4857 67.7795 93.8113Z" fill="#EB5D60"/>
<path d="M61.9338 94.1785C62.7535 93.1118 62.4396 91.4889 61.2327 90.5537C60.0259 89.6186 58.383 89.7252 57.5633 90.792C56.7436 91.8587 57.0575 93.4816 58.2643 94.4168C59.4712 95.3519 61.1141 95.2452 61.9338 94.1785Z" fill="#F9B384"/>
<path d="M60.8141 93.397C60.7196 93.397 60.6424 93.3195 60.6424 93.2246C60.6424 92.7139 60.3952 92.2427 59.9796 91.9613C59.6253 91.721 59.2017 91.6656 58.8475 91.8095C58.7593 91.8443 58.6585 91.8032 58.6223 91.7146C58.5861 91.6261 58.6286 91.5249 58.7168 91.4885C59.1765 91.3004 59.7198 91.3684 60.1701 91.6735C60.6802 92.0182 60.9857 92.5969 60.9857 93.223C60.9873 93.3195 60.9101 93.397 60.8141 93.397Z" fill="#102048"/>
<path d="M36.1349 105.95L29.9219 112.699L30.2109 112.967L36.4239 106.218L36.1349 105.95Z" fill="#102048"/>
<path d="M79.9098 134.961L79.7949 134.584C84.3179 133.199 88.7086 131.544 92.6868 126.548L92.9938 126.795C88.9463 131.877 84.4957 133.558 79.9098 134.961Z" fill="#102048"/>
<path d="M82.6612 119.656H44.184C42.8002 119.656 41.6777 120.875 41.6777 122.379V149.967C41.6777 151.47 42.8002 152.689 44.184 152.689H82.6628C84.0466 152.689 85.1691 151.47 85.1691 149.967V122.379C85.1675 120.874 84.045 119.656 82.6612 119.656Z" fill="#D3DFFF"/>
<path d="M65.4537 134.429C65.6002 134.429 65.7182 134.557 65.7182 134.716V137.628C65.7182 137.786 65.6002 137.916 65.4537 137.916H61.3905C61.2441 137.916 61.126 137.788 61.126 137.628V134.716C61.126 134.558 61.2441 134.429 61.3905 134.429H65.4537ZM65.4537 133.638H61.3905C60.8112 133.638 60.3389 134.122 60.3389 134.716V137.628C60.3389 138.223 60.8112 138.706 61.3905 138.706H65.4537C66.0331 138.706 66.5054 138.223 66.5054 137.628V134.716C66.5054 134.122 66.0331 133.638 65.4537 133.638Z" fill="#1F3C88"/>
<path d="M232 181.21H0V182.001H232V181.21Z" fill="#2573EF"/>
</svg>
