<svg width="24" height="24" viewBox="0 0 24 24" fill="none" xmlns="http://www.w3.org/2000/svg">
<g clip-path="url(#clip0_64_3378)">
<path d="M3.75 16.6875V7.3125C3.75 5.24142 5.42892 3.5625 7.5 3.5625H4.6875C2.61642 3.5625 0.9375 5.24142 0.9375 7.3125V16.6875C0.9375 18.7586 2.61642 20.4375 4.6875 20.4375H7.5C5.42892 20.4375 3.75 18.7586 3.75 16.6875Z" fill="#CEE1F2"/>
<path d="M19.3125 6.375H4.6875C4.16972 6.375 3.75 6.79472 3.75 7.3125C3.75 7.83028 4.16972 8.25 4.6875 8.25H19.3125C19.8303 8.25 20.25 7.83028 20.25 7.3125C20.25 6.79472 19.8303 6.375 19.3125 6.375Z" fill="#2573EF"/>
<path d="M19.3125 2.625H4.6875C2.10281 2.625 0 4.72781 0 7.3125V16.6875C0 19.2722 2.10281 21.375 4.6875 21.375H19.3125C21.8972 21.375 24 19.2722 24 16.6875V7.3125C24 4.72781 21.8972 2.625 19.3125 2.625ZM22.125 16.6875C22.125 18.2383 20.8633 19.5 19.3125 19.5H4.6875C3.13669 19.5 1.875 18.2383 1.875 16.6875V7.3125C1.875 5.76169 3.13669 4.5 4.6875 4.5H19.3125C20.8633 4.5 22.125 5.76169 22.125 7.3125V16.6875Z" fill="#2573EF"/>
<path d="M6.5625 17.625C5.01169 17.625 3.75 16.3633 3.75 14.8125C3.75 13.2617 5.01169 12 6.5625 12C8.11331 12 9.375 13.2617 9.375 14.8125C9.375 16.3633 8.11331 17.625 6.5625 17.625ZM6.5625 13.875C6.04556 13.875 5.625 14.2956 5.625 14.8125C5.625 15.3294 6.04556 15.75 6.5625 15.75C7.07944 15.75 7.5 15.3294 7.5 14.8125C7.5 14.2956 7.07944 13.875 6.5625 13.875Z" fill="#2573EF"/>
<path d="M19.3125 15.75H17.4375C16.9197 15.75 16.5 16.1697 16.5 16.6875C16.5 17.2053 16.9197 17.625 17.4375 17.625H19.3125C19.8303 17.625 20.25 17.2053 20.25 16.6875C20.25 16.1697 19.8303 15.75 19.3125 15.75Z" fill="#2573EF"/>
</g>
<defs>
<clipPath id="clip0_64_3378">
<rect width="24" height="24" fill="white" transform="translate(24) rotate(90)"/>
</clipPath>
</defs>
</svg>
