<svg width="24" height="24" viewBox="0 0 24 24" fill="none" xmlns="http://www.w3.org/2000/svg">
<g clip-path="url(#clip0_64_3389)">
<g clip-path="url(#clip1_64_3389)">
<path d="M3.75 13.6875C3.75 12.2155 4.59858 10.9423 5.83284 10.3285C5.51602 10.0836 5.11894 9.9375 4.6875 9.9375C2.61642 9.9375 0.9375 11.6164 0.9375 13.6875C0.9375 15.7586 2.61642 17.4375 4.6875 17.4375C5.11894 17.4375 5.51602 17.2914 5.83284 17.0465C4.59858 16.4327 3.75 15.1595 3.75 13.6875Z" fill="#E7E7E7"/>
<path d="M19.3125 9C17.7617 9 16.5 10.2617 16.5 11.8125V19.3125C16.5 19.8294 16.0794 20.25 15.5625 20.25H14.4637C14.0767 19.1588 13.0347 18.375 11.8125 18.375C10.2617 18.375 9 19.6367 9 21.1875C9 22.7383 10.2617 24 11.8125 24C13.0347 24 14.0767 23.2162 14.4637 22.125H15.5625C17.1133 22.125 18.375 20.8633 18.375 19.3125V18.2137C18.6684 18.3178 18.9839 18.375 19.3125 18.375C21.8972 18.375 24 16.2722 24 13.6875C24 11.1028 21.8972 9 19.3125 9ZM11.8125 22.125C11.2956 22.125 10.875 21.7044 10.875 21.1875C10.875 20.6706 11.2956 20.25 11.8125 20.25C12.3294 20.25 12.75 20.6706 12.75 21.1875C12.75 21.7044 12.3294 22.125 11.8125 22.125ZM19.3125 16.5C18.7956 16.5 18.375 16.0794 18.375 15.5625V11.8125C18.375 11.2956 18.7956 10.875 19.3125 10.875C20.8633 10.875 22.125 12.1367 22.125 13.6875C22.125 15.2383 20.8633 16.5 19.3125 16.5Z" fill="#2573EF"/>
<path d="M4.6875 18.375C6.23831 18.375 7.5 17.1133 7.5 15.5625V11.8125C7.5 10.2617 6.23831 9 4.6875 9C2.10281 9 0 11.1028 0 13.6875C0 16.2722 2.10281 18.375 4.6875 18.375ZM4.6875 10.875C5.20444 10.875 5.625 11.2956 5.625 11.8125V15.5625C5.625 16.0794 5.20444 16.5 4.6875 16.5C3.13669 16.5 1.875 15.2383 1.875 13.6875C1.875 12.1367 3.13669 10.875 4.6875 10.875Z" fill="#2573EF"/>
<path d="M4.6875 7.5C5.20528 7.5 5.625 7.08028 5.625 6.5625C5.625 3.97781 7.72781 1.875 10.3125 1.875H13.6875C16.2722 1.875 18.375 3.97781 18.375 6.5625C18.375 7.08028 18.7947 7.5 19.3125 7.5C19.8303 7.5 20.25 7.08028 20.25 6.5625C20.25 2.94394 17.3061 0 13.6875 0H10.3125C6.69394 0 3.75 2.94394 3.75 6.5625C3.75 7.08028 4.16972 7.5 4.6875 7.5Z" fill="#2573EF"/>
</g>
</g>
<defs>
<clipPath id="clip0_64_3389">
<rect width="24" height="24" fill="white"/>
</clipPath>
<clipPath id="clip1_64_3389">
<rect width="24" height="24" fill="white"/>
</clipPath>
</defs>
</svg>
