<svg width="24" height="24" viewBox="0 0 24 24" fill="none" xmlns="http://www.w3.org/2000/svg">
<path d="M0.0703983 10.72C0.627199 15.4944 4.6784 19.2 9.6 19.2C14.8992 19.2 19.2 14.8992 19.2 9.6C19.2 4.6784 15.4944 0.6272 10.72 0.0704C11.1424 0.0256 11.5712 0 12 0C18.6304 0 24 5.3696 24 12C24 18.6304 18.6304 24 12 24C5.3696 24 -1.90735e-06 18.6304 -1.90735e-06 12C-1.90735e-06 11.5648 0.0255985 11.1424 0.0703983 10.72Z" fill="#2573EF"/>
<path d="M2.40078 0C2.40078 1.3248 3.47598 2.4 4.80078 2.4C3.47598 2.4 2.40078 3.4752 2.40078 4.8C2.40078 3.4752 1.32558 2.4 0.000781536 2.4C1.32558 2.4 2.40078 1.3248 2.40078 0Z" fill="#CCE0FF"/>
<path d="M10.7973 2.40027C10.7973 3.72507 11.8725 4.80027 13.1973 4.80027C11.8725 4.80027 10.7973 5.87547 10.7973 7.20027C10.7973 5.87547 9.72847 4.80027 8.39727 4.80027C9.72207 4.80027 10.7973 3.72507 10.7973 2.40027Z" fill="#CCE0FF"/>
<path d="M7.19961 12C7.19961 13.3248 8.27481 14.4 9.59961 14.4C8.27481 14.4 7.19961 15.4752 7.19961 16.8C7.19961 15.4752 6.12441 14.4 4.79961 14.4C6.12441 14.4 7.19961 13.3248 7.19961 12Z" fill="#CCE0FF"/>
<path d="M14.4008 9.59973C14.4008 10.9245 15.476 11.9997 16.8008 11.9997C15.476 11.9997 14.4008 13.0749 14.4008 14.3997C14.4008 13.0749 13.3256 11.9997 12.0008 11.9997C13.3256 11.9997 14.4008 10.9245 14.4008 9.59973Z" fill="#CCE0FF"/>
</svg>
