<svg width="27" height="28" viewBox="0 0 27 28" fill="none" xmlns="http://www.w3.org/2000/svg">
<path d="M7.9875 19.2143H9.675V13.4486H7.9875V19.2143ZM17.325 19.2143H19.0125V7.40176H17.325V19.2143ZM12.6562 19.2143H14.3438V15.8955H12.6562V19.2143ZM12.6562 13.4486H14.3438V11.7611H12.6562V13.4486ZM5.0625 23.6299C4.6125 23.6299 4.21875 23.4611 3.88125 23.1236C3.54375 22.7861 3.375 22.3924 3.375 21.9424V5.06738C3.375 4.61738 3.54375 4.22363 3.88125 3.88613C4.21875 3.54863 4.6125 3.37988 5.0625 3.37988H21.9375C22.3875 3.37988 22.7812 3.54863 23.1187 3.88613C23.4562 4.22363 23.625 4.61738 23.625 5.06738V21.9424C23.625 22.3924 23.4562 22.7861 23.1187 23.1236C22.7812 23.4611 22.3875 23.6299 21.9375 23.6299H5.0625ZM5.0625 21.9424H21.9375V5.06738H5.0625V21.9424Z" fill="#7E838E"/>
</svg>
