<svg width="20" height="20" viewBox="0 0 20 20" fill="none" xmlns="http://www.w3.org/2000/svg">
<path d="M2.91699 16.6667C2.58366 16.6667 2.29199 16.5417 2.04199 16.2917C1.79199 16.0417 1.66699 15.75 1.66699 15.4167V4.58337C1.66699 4.25004 1.79199 3.95837 2.04199 3.70837C2.29199 3.45837 2.58366 3.33337 2.91699 3.33337H17.0837C17.417 3.33337 17.7087 3.45837 17.9587 3.70837C18.2087 3.95837 18.3337 4.25004 18.3337 4.58337V15.4167C18.3337 15.75 18.2087 16.0417 17.9587 16.2917C17.7087 16.5417 17.417 16.6667 17.0837 16.6667H2.91699ZM10.0003 10.375L17.0837 5.72921V4.58337L10.0003 9.12504L2.91699 4.58337V5.72921L10.0003 10.375Z" fill="#2573EF"/>
</svg>
