<svg width="48" height="39" viewBox="0 0 48 39" fill="none" xmlns="http://www.w3.org/2000/svg">
<path d="M16.831 32.1717V13.6123L11.3359 17.3843V31.0795C13.0014 31.5482 14.8388 31.9227 16.831 32.1717Z" fill="#2573EF"/>
<path d="M22.5971 32.5235C24.0016 32.5235 25.387 32.4607 26.747 32.3374V6.80591L21.252 10.5779V32.5033C21.6954 32.5145 22.143 32.5235 22.5971 32.5235Z" fill="#2573EF"/>
<path d="M36.2968 30.2677C36.4241 30.2206 36.5429 30.1691 36.6659 30.1197V0L31.1709 3.76973V31.7007C33.0082 31.3352 34.7331 30.8553 36.2968 30.2677Z" fill="#2573EF"/>
<path d="M37.5934 14.6841V15.0317C42.2546 16.9849 45.1952 19.8352 45.1952 23.0129C45.1952 26.3947 41.8621 29.4087 36.6662 31.3642C35.0092 31.9876 33.1612 32.5056 31.1711 32.8914C28.5276 33.4049 25.6337 33.6897 22.5976 33.6897C10.9752 33.6897 1.40665 29.5432 0.146393 24.2127C0.053041 24.6903 0 25.177 0 25.6703C0 33.0326 10.744 39.0001 24 39.0001C37.256 39.0001 48 33.0326 48 25.6703C48 21.109 43.8777 17.0881 37.5934 14.6841Z" fill="#2573EF"/>
<path d="M14.0811 15.9622V31.3349C14.8555 31.4874 15.6511 31.622 16.4615 31.7318V14.3274L14.0811 15.9622Z" fill="url(#paint0_linear_64_2061)"/>
<path d="M24 9.15631V32.1066C24.7977 32.0819 25.5934 32.046 26.3805 31.981V7.52148L24 9.15631Z" fill="url(#paint1_linear_64_2061)"/>
<path d="M33.9189 2.34791V30.6422C34.7061 30.4179 35.4593 30.1713 36.1743 29.8999C36.2167 29.8842 36.2591 29.8685 36.2994 29.8506V0.715332L33.9189 2.34791Z" fill="url(#paint2_linear_64_2061)"/>
<path d="M43.4089 18.3103C43.9817 18.9046 44.44 19.5235 44.788 20.1582C45.8063 21.6113 46.3537 23.1677 46.3537 24.7621C46.3537 31.8979 35.7519 37.7039 22.7229 37.7039C15.5051 37.7039 9.03407 35.9211 4.69531 33.1179C8.97891 36.4369 16.0334 38.6099 24.0022 38.6099C37.0334 38.6099 47.6352 32.8039 47.6352 25.6681C47.6331 23.0084 46.1225 20.4497 43.4089 18.3103Z" fill="url(#paint3_linear_64_2061)"/>
<defs>
<linearGradient id="paint0_linear_64_2061" x1="15.2725" y1="21.1373" x2="15.2725" y2="30.3271" gradientUnits="userSpaceOnUse">
<stop stop-color="white" stop-opacity="0"/>
<stop offset="1" stop-color="white" stop-opacity="0.4"/>
</linearGradient>
<linearGradient id="paint1_linear_64_2061" x1="25.1907" y1="17.9666" x2="25.1907" y2="27.8727" gradientUnits="userSpaceOnUse">
<stop stop-color="white" stop-opacity="0"/>
<stop offset="1" stop-color="white" stop-opacity="0.4"/>
</linearGradient>
<linearGradient id="paint2_linear_64_2061" x1="35.1091" y1="11.4956" x2="35.1091" y2="24.7089" gradientUnits="userSpaceOnUse">
<stop stop-color="white" stop-opacity="0"/>
<stop offset="1" stop-color="white" stop-opacity="0.4"/>
</linearGradient>
<linearGradient id="paint3_linear_64_2061" x1="28.7649" y1="31.4214" x2="37.9528" y2="28.5239" gradientUnits="userSpaceOnUse">
<stop stop-color="white" stop-opacity="0"/>
<stop offset="1" stop-color="white" stop-opacity="0.4"/>
</linearGradient>
</defs>
</svg>
