<svg width="24" height="24" viewBox="0 0 24 24" fill="none" xmlns="http://www.w3.org/2000/svg">
<g clip-path="url(#clip0_64_3405)">
<g clip-path="url(#clip1_64_3405)">
<path d="M3.75 19.3125V4.6875C3.75 2.61633 5.42897 0.9375 7.5 0.9375H4.6875C2.61647 0.9375 0.9375 2.61633 0.9375 4.6875V19.3125C0.9375 21.3835 2.61647 23.0625 4.6875 23.0625H7.5C5.42897 23.0625 3.75 21.3835 3.75 19.3125Z" fill="#E7E7E7"/>
<path d="M23.7276 11.3394C23.7268 11.3387 23.7262 11.3379 23.7254 11.3371L20.9129 8.52461C20.5468 8.15846 19.9532 8.15846 19.5871 8.52461C19.221 8.89075 19.221 9.48432 19.5871 9.85042L20.7991 11.0625H8.4375C7.91972 11.0625 7.5 11.4822 7.5 12C7.5 12.5178 7.91972 12.9375 8.4375 12.9375H20.7992L19.5871 14.1496C19.221 14.5157 19.221 15.1093 19.5871 15.4754C19.7701 15.6585 20.0101 15.75 20.25 15.75C20.49 15.75 20.7299 15.6585 20.913 15.4754L23.7255 12.6629C23.7262 12.6622 23.7269 12.6613 23.7276 12.6606C24.0912 12.2943 24.0889 11.7032 23.7276 11.3394Z" fill="#2573EF"/>
<path d="M11.8125 24H4.6875C2.10277 24 0 21.8972 0 19.3125V4.6875C0 2.10281 2.10277 0 4.6875 0H11.8125C14.3972 0 16.5 2.10281 16.5 4.6875V8.25C16.5 8.76778 16.0803 9.1875 15.5625 9.1875C15.0447 9.1875 14.625 8.76778 14.625 8.25V4.6875C14.625 3.13669 13.3633 1.875 11.8125 1.875H4.6875C3.13669 1.875 1.875 3.13669 1.875 4.6875V19.3125C1.875 20.8633 3.13669 22.125 4.6875 22.125H11.8125C13.3633 22.125 14.625 20.8633 14.625 19.3125V15.75C14.625 15.2322 15.0447 14.8125 15.5625 14.8125C16.0803 14.8125 16.5 15.2322 16.5 15.75V19.3125C16.5 21.8972 14.3972 24 11.8125 24Z" fill="#2573EF"/>
</g>
</g>
<defs>
<clipPath id="clip0_64_3405">
<rect width="24" height="24" fill="white" transform="translate(24) rotate(90)"/>
</clipPath>
<clipPath id="clip1_64_3405">
<rect width="24" height="24" fill="white"/>
</clipPath>
</defs>
</svg>
