<svg width="16" height="16" viewBox="0 0 16 16" fill="none" xmlns="http://www.w3.org/2000/svg">
<path d="M3.66699 14.6667C3.39199 14.6667 3.15658 14.5688 2.96074 14.3729C2.76491 14.1771 2.66699 13.9417 2.66699 13.6667V6.43335C2.66699 6.15835 2.76491 5.92294 2.96074 5.7271C3.15658 5.53127 3.39199 5.43335 3.66699 5.43335H4.83366V3.83335C4.83366 2.95724 5.14258 2.21044 5.76043 1.59294C6.37827 0.975437 7.12549 0.666687 8.00209 0.666687C8.87869 0.666687 9.62533 0.975437 10.242 1.59294C10.8587 2.21044 11.167 2.95724 11.167 3.83335V5.43335H12.3337C12.6087 5.43335 12.8441 5.53127 13.0399 5.7271C13.2357 5.92294 13.3337 6.15835 13.3337 6.43335V13.6667C13.3337 13.9417 13.2357 14.1771 13.0399 14.3729C12.8441 14.5688 12.6087 14.6667 12.3337 14.6667H3.66699ZM8.00313 11.3334C8.35681 11.3334 8.65866 11.211 8.90866 10.9662C9.15866 10.7214 9.28366 10.4271 9.28366 10.0834C9.28366 9.75002 9.15773 9.44724 8.90586 9.17502C8.65399 8.9028 8.35121 8.76669 7.99753 8.76669C7.64384 8.76669 7.34199 8.9028 7.09199 9.17502C6.84199 9.44724 6.71699 9.7528 6.71699 10.0917C6.71699 10.4306 6.84293 10.7222 7.09479 10.9667C7.34666 11.2111 7.64944 11.3334 8.00313 11.3334ZM5.83366 5.43335H10.167V3.83335C10.167 3.2315 9.95654 2.71993 9.53563 2.29864C9.1147 1.87734 8.60359 1.66669 8.00229 1.66669C7.40098 1.66669 6.88921 1.87734 6.46699 2.29864C6.04477 2.71993 5.83366 3.2315 5.83366 3.83335V5.43335Z" fill="#2573EF"/>
</svg>
