<svg width="24" height="24" viewBox="0 0 24 24" fill="none" xmlns="http://www.w3.org/2000/svg">
<g clip-path="url(#clip0_64_3398)">
<g clip-path="url(#clip1_64_3398)">
<path d="M11.0731 11.4566C7.68325 12.6134 3.95354 9.92801 4.01842 6.32811C3.95335 2.729 7.68367 0.0419396 11.0731 1.1997C6.13318 2.82069 6.13632 9.83755 11.0731 11.4566ZM16.2415 20.2501V18.9844C16.2415 17.4312 17.5007 16.172 19.054 16.172H16.2415C14.6882 16.172 13.429 17.4312 13.429 18.9844V20.2501C13.429 21.8034 14.6882 23.0626 16.2415 23.0626H19.054C17.5007 23.0626 16.2415 21.8034 16.2415 20.2501Z" fill="#E7E7E7"/>
<path d="M20.695 15.4388V14.2031C20.5531 10.4762 15.2105 10.479 15.07 14.2031V15.4229C13.5746 15.9162 12.4919 17.3259 12.4919 18.9844V20.25C12.4919 22.3178 14.1741 24 16.2419 24H19.4762C21.544 24 23.2262 22.3178 23.2262 20.25V18.9844C23.2262 17.3433 22.1661 15.946 20.695 15.4388ZM17.8825 13.2656C18.3994 13.2656 18.82 13.6862 18.82 14.2031V15.2344H16.945V14.2031C16.945 13.6862 17.3656 13.2656 17.8825 13.2656ZM21.3512 20.25C21.3512 21.2839 20.5101 22.125 19.4762 22.125H16.2419C15.208 22.125 14.3669 21.2839 14.3669 20.25V18.9844C14.3669 17.9505 15.208 17.1094 16.2419 17.1094H19.4762C20.5101 17.1094 21.3512 17.9505 21.3512 18.9844V20.25ZM16.2419 6.32811C16.2419 2.83879 13.4031 0 9.91376 0C1.53019 0.31814 1.53248 12.3394 9.91386 12.6562C13.4031 12.6562 16.2419 9.81744 16.2419 6.32811ZM9.91376 10.7812C7.45831 10.7812 5.46065 8.78356 5.46065 6.32811C5.68452 0.428577 14.1439 0.430172 14.3669 6.32816C14.3669 8.78356 12.3693 10.7812 9.91376 10.7812Z" fill="#2573EF"/>
<path d="M1.71094 24C1.19316 24 0.773438 23.5803 0.773438 23.0625V22.0781C0.773438 18.6745 2.77838 15.596 5.88131 14.2352C7.03791 13.7786 7.75303 15.4119 6.63431 15.9524C4.21298 17.0142 2.64844 19.4187 2.64844 22.0781V23.0625C2.64844 23.5803 2.22872 24 1.71094 24ZM17.8359 18.4688C17.1887 18.4688 16.6641 18.9935 16.6641 19.6407C16.7215 21.1935 18.9506 21.193 19.0078 19.6407C19.0078 18.9935 18.4832 18.4688 17.8359 18.4688Z" fill="#2573EF"/>
</g>
</g>
<defs>
<clipPath id="clip0_64_3398">
<rect width="24" height="24" fill="white" transform="translate(24) rotate(90)"/>
</clipPath>
<clipPath id="clip1_64_3398">
<rect width="24" height="24" fill="white"/>
</clipPath>
</defs>
</svg>
