<svg width="27" height="28" viewBox="0 0 27 28" fill="none" xmlns="http://www.w3.org/2000/svg">
<path d="M13.95 12.8433C12.4591 12.8433 11.2394 12.3767 10.2906 11.4433C9.34191 10.51 8.86754 9.31007 8.86754 7.84344C8.86754 6.37681 9.34191 5.17684 10.2906 4.24353C11.2394 3.31022 12.4591 2.84357 13.95 2.84357C15.4409 2.84357 16.6606 3.31022 17.6094 4.24353C18.5581 5.17684 19.0325 6.37681 19.0325 7.84344C19.0325 9.31007 18.5581 10.51 17.6094 11.4433C16.6606 12.3767 15.4409 12.8433 13.95 12.8433ZM3.10742 23.543V20.4098C3.10742 19.5654 3.32201 18.8432 3.7512 18.2432C4.18039 17.6432 4.73381 17.1876 5.41147 16.8765C6.92491 16.2099 8.37624 15.7099 9.76545 15.3766C11.1547 15.0433 12.5495 14.8766 13.95 14.8766C15.3505 14.8766 16.7397 15.0488 18.1176 15.3932C19.4955 15.7377 20.9412 16.2321 22.4547 16.8765C23.1549 17.1876 23.7196 17.6432 24.1488 18.2432C24.578 18.8432 24.7926 19.5654 24.7926 20.4098V23.543H3.10742ZM5.14041 21.5431H22.7596V20.4098C22.7596 20.0542 22.6523 19.7154 22.4377 19.3931C22.2231 19.0709 21.9577 18.8321 21.6415 18.6765C20.1958 17.9876 18.8743 17.5154 17.6771 17.2599C16.4799 17.0043 15.2376 16.8765 13.95 16.8765C12.6624 16.8765 11.4088 17.0043 10.189 17.2599C8.96919 17.5154 7.64775 17.9876 6.22466 18.6765C5.90842 18.8321 5.64865 19.0709 5.44535 19.3931C5.24205 19.7154 5.14041 20.0542 5.14041 20.4098V21.5431ZM13.95 10.8434C14.831 10.8434 15.5594 10.56 16.1355 9.99339C16.7115 9.42673 16.9995 8.71009 16.9995 7.84344C16.9995 6.9768 16.7115 6.26015 16.1355 5.6935C15.5594 5.12684 14.831 4.84352 13.95 4.84352C13.069 4.84352 12.3406 5.12684 11.7645 5.6935C11.1885 6.26015 10.9005 6.9768 10.9005 7.84344C10.9005 8.71009 11.1885 9.42673 11.7645 9.99339C12.3406 10.56 13.069 10.8434 13.95 10.8434Z" fill="#7E838E"/>
</svg>
