<svg width="16" height="16" viewBox="0 0 16 16" fill="none" xmlns="http://www.w3.org/2000/svg">
<path d="M3.66699 5.43333H10.167V3.83333C10.167 3.23148 9.95654 2.71991 9.53563 2.29862C9.1147 1.87732 8.60359 1.66667 8.00229 1.66667C7.40098 1.66667 6.88921 1.87732 6.46699 2.29862C6.04477 2.71991 5.83366 3.23148 5.83366 3.83333H4.83366C4.83366 2.95556 5.14258 2.20833 5.76043 1.59167C6.37827 0.975 7.12549 0.666667 8.00209 0.666667C8.87869 0.666667 9.62533 0.975416 10.242 1.59292C10.8587 2.21042 11.167 2.95722 11.167 3.83333V5.43333H12.3337C12.6087 5.43333 12.8441 5.53125 13.0399 5.72708C13.2357 5.92292 13.3337 6.15833 13.3337 6.43333V13.6667C13.3337 13.9417 13.2357 14.1771 13.0399 14.3729C12.8441 14.5688 12.6087 14.6667 12.3337 14.6667H3.66699C3.39199 14.6667 3.15658 14.5688 2.96074 14.3729C2.76491 14.1771 2.66699 13.9417 2.66699 13.6667V6.43333C2.66699 6.15833 2.76491 5.92292 2.96074 5.72708C3.15658 5.53125 3.39199 5.43333 3.66699 5.43333ZM8.00313 11.3333C8.35682 11.3333 8.65866 11.2109 8.90866 10.9661C9.15866 10.7214 9.28366 10.4271 9.28366 10.0833C9.28366 9.75 9.15773 9.44722 8.90586 9.175C8.65399 8.90278 8.35122 8.76667 7.99753 8.76667C7.64384 8.76667 7.34199 8.90278 7.09199 9.175C6.84199 9.44722 6.71699 9.75278 6.71699 10.0917C6.71699 10.4306 6.84293 10.7222 7.09479 10.9667C7.34666 11.2111 7.64944 11.3333 8.00313 11.3333Z" fill="#2573EF"/>
</svg>
