<svg width="46" height="46" viewBox="0 0 46 46" fill="none" xmlns="http://www.w3.org/2000/svg">
<rect width="46" height="46" rx="23" fill="#CEEEFF" fill-opacity="0.4"/>
<g clip-path="url(#clip0_64_2429)">
<path d="M21.8076 13C16.9512 13 13 16.9512 13 21.8076C13 26.6642 16.9512 30.6152 21.8076 30.6152C26.6642 30.6152 30.6152 26.6642 30.6152 21.8076C30.6152 16.9512 26.6642 13 21.8076 13ZM21.8076 28.9892C17.8477 28.9892 14.626 25.7675 14.626 21.8076C14.626 17.8477 17.8477 14.626 21.8076 14.626C25.7675 14.626 28.9891 17.8477 28.9891 21.8076C28.9891 25.7675 25.7675 28.9892 21.8076 28.9892Z" fill="#04122F"/>
<path d="M32.762 31.6124L28.1007 26.9511C27.7831 26.6335 27.2687 26.6335 26.9511 26.9511C26.6335 27.2684 26.6335 27.7834 26.9511 28.1007L31.6124 32.762C31.7711 32.9208 31.979 33.0002 32.1872 33.0002C32.395 33.0002 32.6031 32.9208 32.762 32.762C33.0796 32.4446 33.0796 31.9297 32.762 31.6124Z" fill="#04122F"/>
<circle cx="19.9232" cy="18.3847" r="1.53846" fill="#2573EF"/>
</g>
<defs>
<clipPath id="clip0_64_2429">
<rect width="20" height="20" fill="white" transform="translate(13 13)"/>
</clipPath>
</defs>
</svg>
