<svg width="27" height="27" viewBox="0 0 27 27" fill="none" xmlns="http://www.w3.org/2000/svg">
<path d="M7.9875 19.2094H9.675V13.4437H7.9875V19.2094ZM17.325 19.2094H19.0125V7.39687H17.325V19.2094ZM12.6562 19.2094H14.3438V15.8906H12.6562V19.2094ZM12.6562 13.4437H14.3438V11.7562H12.6562V13.4437ZM5.0625 23.625C4.6125 23.625 4.21875 23.4562 3.88125 23.1187C3.54375 22.7812 3.375 22.3875 3.375 21.9375V5.0625C3.375 4.6125 3.54375 4.21875 3.88125 3.88125C4.21875 3.54375 4.6125 3.375 5.0625 3.375H21.9375C22.3875 3.375 22.7812 3.54375 23.1187 3.88125C23.4562 4.21875 23.625 4.6125 23.625 5.0625V21.9375C23.625 22.3875 23.4562 22.7812 23.1187 23.1187C22.7812 23.4562 22.3875 23.625 21.9375 23.625H5.0625Z" fill="#2573EF"/>
</svg>
