<svg width="27" height="27" viewBox="0 0 27 27" fill="none" xmlns="http://www.w3.org/2000/svg">
<path d="M13.95 12.8384C12.4591 12.8384 11.2394 12.3717 10.2906 11.4384C9.34191 10.5051 8.86754 9.30513 8.86754 7.8385C8.86754 6.37187 9.34191 5.1719 10.2906 4.23859C11.2394 3.30528 12.4591 2.83862 13.95 2.83862C15.4409 2.83862 16.6606 3.30528 17.6094 4.23859C18.5581 5.1719 19.0325 6.37187 19.0325 7.8385C19.0325 9.30513 18.5581 10.5051 17.6094 11.4384C16.6606 12.3717 15.4409 12.8384 13.95 12.8384ZM3.10742 23.5381V20.4048C3.10742 19.5604 3.32201 18.8382 3.7512 18.2382C4.18039 17.6382 4.73381 17.1827 5.41147 16.8716C6.92491 16.205 8.37624 15.705 9.76545 15.3716C11.1547 15.0383 12.5495 14.8717 13.95 14.8717C15.3505 14.8717 16.7397 15.0439 18.1176 15.3883C19.4955 15.7327 20.9412 16.2272 22.4547 16.8716C23.1549 17.1827 23.7196 17.6382 24.1488 18.2382C24.578 18.8382 24.7926 19.5604 24.7926 20.4048V23.5381H3.10742Z" fill="#2573EF"/>
</svg>
