<svg width="24" height="24" viewBox="0 0 24 24" fill="none" xmlns="http://www.w3.org/2000/svg">
<g clip-path="url(#clip0_64_3482)">
<path d="M8.4375 20.25C9.31116 20.25 10.0453 20.8476 10.2534 21.6562C10.292 21.5064 10.3125 21.3494 10.3125 21.1875L10.3125 19.3125C10.3125 18.277 9.47302 17.4375 8.4375 17.4375C7.40198 17.4375 6.5625 18.277 6.5625 19.3125L6.5625 21.1875C6.5625 21.3494 6.58303 21.5064 6.62156 21.6562C6.82973 20.8476 7.5638 20.25 8.4375 20.25Z" fill="#E7E7E7"/>
<path d="M8.4375 3.75C9.31116 3.75 10.0453 4.34756 10.2534 5.15625C10.292 5.00644 10.3125 4.84936 10.3125 4.6875L10.3125 2.8125C10.3125 1.77698 9.47302 0.9375 8.4375 0.9375C7.40198 0.9375 6.5625 1.77698 6.5625 2.8125L6.5625 4.6875C6.5625 4.84936 6.58303 5.00644 6.62156 5.15625C6.82973 4.34756 7.5638 3.75 8.4375 3.75Z" fill="#E7E7E7"/>
<path d="M17.8125 12C18.6862 12 19.4203 12.5976 19.6284 13.4062C19.667 13.2564 19.6875 13.0994 19.6875 12.9375L19.6875 11.0625C19.6875 10.027 18.848 9.1875 17.8125 9.1875C16.777 9.1875 15.9375 10.027 15.9375 11.0625L15.9375 12.9375C15.9375 13.0994 15.958 13.2564 15.9966 13.4062C16.2047 12.5976 16.9388 12 17.8125 12Z" fill="#E7E7E7"/>
<path d="M-4.09794e-08 20.25C-1.83465e-08 19.7322 0.419719 19.3125 0.9375 19.3125L2.8125 19.3125C3.33028 19.3125 3.75 19.7322 3.75 20.25C3.75 20.7678 3.33028 21.1875 2.8125 21.1875L0.9375 21.1875C0.419719 21.1875 -6.36124e-08 20.7678 -4.09794e-08 20.25Z" fill="#74A6F5"/>
<path d="M-4.09794e-08 3.75C-1.83465e-08 3.23222 0.419719 2.8125 0.9375 2.8125L2.8125 2.8125C3.33028 2.8125 3.75 3.23222 3.75 3.75C3.75 4.26778 3.33028 4.6875 2.8125 4.6875L0.9375 4.6875C0.419719 4.6875 -6.36124e-08 4.26778 -4.09794e-08 3.75Z" fill="#74A6F5"/>
<path d="M-4.09794e-08 12C-1.83465e-08 11.4822 0.419719 11.0625 0.9375 11.0625L12.1875 11.0625C12.7053 11.0625 13.125 11.4822 13.125 12C13.125 12.5178 12.7053 12.9375 12.1875 12.9375L0.9375 12.9375C0.419719 12.9375 -6.36124e-08 12.5178 -4.09794e-08 12Z" fill="#74A6F5"/>
<path d="M11.25 21.1875L23.0625 21.1875C23.5803 21.1875 24 20.7678 24 20.25C24 19.7322 23.5803 19.3125 23.0625 19.3125L11.25 19.3125C11.25 17.7617 9.98831 16.5 8.4375 16.5C6.88669 16.5 5.625 17.7617 5.625 19.3125L5.625 21.1875C5.625 22.7383 6.88669 24 8.4375 24C9.98831 24 11.25 22.7383 11.25 21.1875ZM7.5 21.1875L7.5 19.3125C7.5 18.7956 7.92056 18.375 8.4375 18.375C8.95444 18.375 9.375 18.7956 9.375 19.3125L9.375 21.1875C9.375 21.7044 8.95444 22.125 8.4375 22.125C7.92056 22.125 7.5 21.7044 7.5 21.1875Z" fill="#2573EF"/>
<path d="M11.25 4.6875L23.0625 4.6875C23.5803 4.6875 24 4.26778 24 3.75C24 3.23222 23.5803 2.8125 23.0625 2.8125L11.25 2.8125C11.25 1.26169 9.98831 -6.1247e-07 8.4375 -6.80258e-07C6.88669 -7.48047e-07 5.625 1.26169 5.625 2.8125L5.625 4.6875C5.625 6.23831 6.88669 7.5 8.4375 7.5C9.98831 7.5 11.25 6.23831 11.25 4.6875ZM7.5 4.6875L7.5 2.8125C7.5 2.29556 7.92056 1.875 8.4375 1.875C8.95444 1.875 9.375 2.29556 9.375 2.8125L9.375 4.6875C9.375 5.20444 8.95444 5.625 8.4375 5.625C7.92056 5.625 7.5 5.20444 7.5 4.6875Z" fill="#2573EF"/>
<path d="M20.625 12.9375L23.0625 12.9375C23.5803 12.9375 24 12.5178 24 12C24 11.4822 23.5803 11.0625 23.0625 11.0625L20.625 11.0625C20.625 9.51169 19.3633 8.25 17.8125 8.25C16.2617 8.25 15 9.51169 15 11.0625L15 12.9375C15 14.4883 16.2617 15.75 17.8125 15.75C19.3633 15.75 20.625 14.4883 20.625 12.9375ZM16.875 12.9375L16.875 11.0625C16.875 10.5456 17.2956 10.125 17.8125 10.125C18.3294 10.125 18.75 10.5456 18.75 11.0625L18.75 12.9375C18.75 13.4544 18.3294 13.875 17.8125 13.875C17.2956 13.875 16.875 13.4544 16.875 12.9375Z" fill="#2573EF"/>
</g>
<defs>
<clipPath id="clip0_64_3482">
<rect width="24" height="24" fill="white" transform="translate(24) rotate(90)"/>
</clipPath>
</defs>
</svg>
