<svg width="27" height="28" viewBox="0 0 27 28" fill="none" xmlns="http://www.w3.org/2000/svg">
<path d="M12.7406 19.1299H14.4281V14.4611H19.125V12.7736H14.4281V7.87988H12.7406V12.7736H7.875V14.4611H12.7406V19.1299ZM13.5075 24.7549C11.9562 24.7549 10.4984 24.4596 9.13404 23.8689C7.76968 23.2783 6.57656 22.4721 5.55469 21.4502C4.53281 20.4283 3.72656 19.2345 3.13594 17.8687C2.54531 16.503 2.25 15.0437 2.25 13.4908C2.25 11.938 2.54531 10.4787 3.13594 9.11291C3.72656 7.74714 4.53281 6.55801 5.55469 5.54551C6.57656 4.53301 7.77038 3.73145 9.13615 3.14082C10.5019 2.5502 11.9612 2.25488 13.5141 2.25488C15.0669 2.25488 16.5262 2.5502 17.892 3.14082C19.2577 3.73145 20.4469 4.53301 21.4594 5.54551C22.4719 6.55801 23.2734 7.74863 23.8641 9.11738C24.4547 10.4861 24.75 11.9461 24.75 13.4974C24.75 15.0487 24.4547 16.5065 23.8641 17.8708C23.2734 19.2352 22.4719 20.4266 21.4594 21.445C20.4469 22.4634 19.2563 23.2697 17.8875 23.8638C16.5187 24.4578 15.0587 24.7549 13.5075 24.7549ZM13.5141 23.0674C16.1672 23.0674 18.4219 22.1346 20.2781 20.2689C22.1344 18.4033 23.0625 16.1439 23.0625 13.4908C23.0625 10.8377 22.1361 8.58301 20.2834 6.72676C18.4307 4.87051 16.1695 3.94238 13.5 3.94238C10.8562 3.94238 8.60156 4.86875 6.73594 6.72147C4.87031 8.57421 3.9375 10.8354 3.9375 13.5049C3.9375 16.1486 4.87031 18.4033 6.73594 20.2689C8.60156 22.1346 10.8609 23.0674 13.5141 23.0674Z" fill="#7E838E"/>
</svg>
