<svg width="72" height="13" viewBox="0 0 72 13" fill="none" xmlns="http://www.w3.org/2000/svg">
<path d="M64.3608 1.42374C64.5127 0.967809 65.1576 0.967808 65.3095 1.42374L66.2177 4.14944C66.2857 4.35364 66.4768 4.49139 66.6921 4.49139H69.6037C70.0911 4.49139 70.2904 5.11759 69.8927 5.39936L67.559 7.0529C67.3793 7.1802 67.3041 7.41003 67.3737 7.61893L68.2701 10.3096C68.4229 10.7681 67.901 11.155 67.5067 10.8756L65.1242 9.18759C64.9511 9.06489 64.7193 9.06489 64.5461 9.18759L62.1636 10.8756C61.7693 11.155 61.2475 10.7681 61.4002 10.3096L62.2967 7.61893C62.3663 7.41003 62.2911 7.1802 62.1114 7.0529L59.7776 5.39936C59.3799 5.11759 59.5793 4.49139 60.0667 4.49139H62.9783C63.1935 4.49139 63.3846 4.35364 63.4527 4.14944L64.3608 1.42374Z" fill="#FFA200"/>
<path d="M35.2759 1.42374C35.4278 0.967809 36.0727 0.967808 36.2246 1.42374L37.1327 4.14944C37.2008 4.35364 37.3918 4.49139 37.6071 4.49139H40.5187C41.0061 4.49139 41.2054 5.11759 40.8078 5.39936L38.474 7.0529C38.2943 7.1802 38.2191 7.41003 38.2887 7.61893L39.1852 10.3096C39.3379 10.7681 38.816 11.155 38.4218 10.8756L36.0393 9.18759C35.8661 9.06489 35.6343 9.06489 35.4612 9.18759L33.0787 10.8756C32.6844 11.155 32.1625 10.7681 32.3153 10.3096L33.2117 7.61893C33.2813 7.41003 33.2061 7.1802 33.0264 7.0529L30.6927 5.39936C30.295 5.11759 30.4943 4.49139 30.9817 4.49139H33.8933C34.1086 4.49139 34.2997 4.35364 34.3677 4.14944L35.2759 1.42374Z" fill="#FFA200"/>
<path d="M49.8178 1.42374C49.9698 0.967809 50.6147 0.967808 50.7666 1.42374L51.6747 4.14944C51.7428 4.35364 51.9338 4.49139 52.1491 4.49139H55.0607C55.5481 4.49139 55.7474 5.11759 55.3497 5.39936L53.016 7.0529C52.8363 7.1802 52.7611 7.41003 52.8307 7.61893L53.7272 10.3096C53.8799 10.7681 53.358 11.155 52.9637 10.8756L50.5813 9.18759C50.4081 9.06489 50.1763 9.06489 50.0031 9.18759L47.6207 10.8756C47.2264 11.155 46.7045 10.7681 46.8572 10.3096L47.7537 7.61893C47.8233 7.41003 47.7481 7.1802 47.5684 7.0529L45.2347 5.39936C44.837 5.11759 45.0363 4.49139 45.5237 4.49139H48.4353C48.6506 4.49139 48.8417 4.35364 48.9097 4.14944L49.8178 1.42374Z" fill="#FFA200"/>
<path d="M20.7339 1.42374C20.8858 0.967809 21.5307 0.967808 21.6826 1.42374L22.5907 4.14944C22.6588 4.35364 22.8499 4.49139 23.0651 4.49139H25.9767C26.4641 4.49139 26.6635 5.11759 26.2658 5.39936L23.932 7.0529C23.7523 7.1802 23.6771 7.41003 23.7467 7.61893L24.6432 10.3096C24.7959 10.7681 24.2741 11.155 23.8798 10.8756L21.4973 9.18759C21.3241 9.06489 21.0923 9.06489 20.9192 9.18759L18.5367 10.8756C18.1424 11.155 17.6205 10.7681 17.7733 10.3096L18.6697 7.61893C18.7393 7.41003 18.6641 7.1802 18.4844 7.0529L16.1507 5.39936C15.753 5.11759 15.9523 4.49139 16.4397 4.49139H19.3513C19.5666 4.49139 19.7577 4.35364 19.8257 4.14944L20.7339 1.42374Z" fill="#FFA200"/>
<path d="M6.19089 1.42374C6.3428 0.967809 6.98771 0.967808 7.13962 1.42374L8.04777 4.14944C8.1158 4.35364 8.30689 4.49139 8.52213 4.49139H11.4337C11.9211 4.49139 12.1205 5.11759 11.7228 5.39936L9.38903 7.0529C9.20937 7.1802 9.13413 7.41003 9.20373 7.61893L10.1002 10.3096C10.253 10.7681 9.73108 11.155 9.33679 10.8756L6.95432 9.18759C6.78114 9.06489 6.54937 9.06489 6.37619 9.18759L3.99372 10.8756C3.59942 11.155 3.07754 10.7681 3.23029 10.3096L4.12678 7.61893C4.19638 7.41003 4.12113 7.1802 3.94148 7.0529L1.60771 5.39936C1.21002 5.11759 1.40938 4.49139 1.89678 4.49139H4.80838C5.02362 4.49139 5.21471 4.35364 5.28274 4.14944L6.19089 1.42374Z" fill="#FFA200"/>
</svg>
